<?xml version="1.0" encoding="utf-8"?>
<!-- Generator: Adobe Illustrator 22.0.0, SVG Export Plug-In . SVG Version: 6.00 Build 0)  -->
<svg version="1.1" xmlns="http://www.w3.org/2000/svg" xmlns:xlink="http://www.w3.org/1999/xlink" x="0px" y="0px"
	 viewBox="0 0 2500 2000" style="enable-background:new 0 0 2500 2000;" xml:space="preserve">
<style type="text/css">
	.st0{fill:#F9E1EF;}
	.st1{fill:#BC87BF;}
	.st2{fill:#FFFFFF;}
	.st3{fill:#FFE4CA;}
	.st4{fill:#F8B6AB;}
	.st5{fill:#FDE41B;}
	.st6{fill:#AA5D3C;}
	.st7{fill:#470C07;}
	.st8{fill:#994E34;}
	.st9{fill:#D17D43;}
	.st10{filter:url(#Adobe_OpacityMaskFilter);}
	.st11{filter:url(#Adobe_OpacityMaskFilter_1_);}
	.st12{mask:url(#SVGID_1_);fill:url(#SVGID_2_);}
	.st13{fill:url(#SVGID_3_);}
	.st14{filter:url(#Adobe_OpacityMaskFilter_2_);}
	.st15{filter:url(#Adobe_OpacityMaskFilter_3_);}
	.st16{mask:url(#SVGID_4_);fill:url(#SVGID_5_);}
	.st17{fill:url(#SVGID_6_);}
	.st18{fill:#CFD8E8;}
	.st19{fill:#FFAD12;}
	.st20{fill:#3F0A08;}
	.st21{fill:#6D1D17;}
	.st22{fill:#FF4564;}
	.st23{fill:#E5E6E7;}
	.st24{fill:#BBBDBF;}
	.st25{fill:#D0D2D3;}
	.st26{fill:#89D81A;}
	.st27{fill:#49C00F;}
	.st28{opacity:0.34;fill:#F8B6AB;}
</style>
<g id="BG">
	<g>
		<rect class="st0" width="2500" height="2000"/>
	</g>
	<ellipse class="st1" cx="1281.7" cy="950.4" rx="869.1" ry="814.3"/>
	<g>
		<path class="st2" d="M836.6,1243.4l2.4-7c1.1-3.3,5.5-3.8,7.4-0.9l13.8,21.6c0.5,0.8,1.3,1.4,2.1,1.7l24.3,8.3
			c3.3,1.1,3.8,5.5,0.9,7.4l-21.6,13.8c-0.8,0.5-1.4,1.3-1.7,2.1l-8.3,24.3c-1.1,3.3-5.5,3.8-7.4,0.9l-13.8-21.6
			c-0.5-0.8-1.3-1.4-2.1-1.7l-24.3-8.3c-3.3-1.1-3.8-5.5-0.9-7.4l21.6-13.8c0.8-0.5,1.4-1.3,1.7-2.1L836.6,1243.4"/>
		<path class="st2" d="M738.6,1228l-13.9-4.8c-1.9-0.6-2.2-3.2-0.5-4.2l12.4-7.9c0.5-0.3,0.8-0.7,1-1.2l4.8-13.9
			c0.6-1.9,3.2-2.2,4.2-0.5l7.9,12.4c0.3,0.5,0.7,0.8,1.2,1l13.9,4.8c1.9,0.6,2.2,3.2,0.5,4.2l-12.4,7.9c-0.5,0.3-0.8,0.7-1,1.2
			l-4.8,13.9c-0.6,1.9-3.2,2.2-4.2,0.5l-7.9-12.4C739.5,1228.5,739.1,1228.2,738.6,1228z"/>
		<path class="st2" d="M800.9,1140.5l-19.3-6.6c-2.6-0.9-3-4.4-0.7-5.9l17.2-11c0.6-0.4,1.1-1,1.3-1.7l6.6-19.3
			c0.9-2.6,4.4-3,5.9-0.7l11,17.2c0.4,0.6,1,1.1,1.7,1.3l19.3,6.6c2.6,0.9,3,4.4,0.7,5.9l-17.2,11c-0.6,0.4-1.1,1-1.3,1.7l-6.6,19.3
			c-0.9,2.6-4.4,3-5.9,0.7l-11-17.2C802.2,1141.2,801.6,1140.7,800.9,1140.5z"/>
	</g>
	<g>
		<path class="st2" d="M1727.6,1104.6l5.1-5.3c2.4-2.5,6.6-1.1,7,2.4l3.2,25.5c0.1,0.9,0.5,1.8,1.2,2.4l18.3,17.9
			c2.5,2.4,1.1,6.6-2.4,7l-25.5,3.2c-0.9,0.1-1.8,0.5-2.4,1.2l-17.9,18.3c-2.4,2.5-6.6,1.1-7-2.4l-3.2-25.5
			c-0.1-0.9-0.5-1.8-1.2-2.4l-18.3-17.9c-2.5-2.4-1.1-6.6,2.4-7l25.5-3.2c0.9-0.1,1.8-0.5,2.4-1.2L1727.6,1104.6"/>
		<path class="st2" d="M1803.3,1078.9l-10.5-10.3c-1.4-1.4-0.6-3.8,1.4-4l14.6-1.8c0.5-0.1,1-0.3,1.4-0.7l10.3-10.5
			c1.4-1.4,3.8-0.6,4,1.4l1.8,14.6c0.1,0.5,0.3,1,0.7,1.4l10.5,10.3c1.4,1.4,0.6,3.8-1.4,4l-14.6,1.8c-0.5,0.1-1,0.3-1.4,0.7
			l-10.3,10.5c-1.4,1.4-3.8,0.6-4-1.4l-1.8-14.6C1804,1079.8,1803.7,1079.3,1803.3,1078.9z"/>
		<path class="st2" d="M1739.5,996.3l-14.6-14.3c-2-1.9-0.8-5.3,1.9-5.6l20.3-2.5c0.7-0.1,1.4-0.4,1.9-1l14.3-14.6
			c1.9-2,5.3-0.8,5.6,1.9l2.5,20.3c0.1,0.7,0.4,1.4,1,1.9l14.6,14.3c2,1.9,0.8,5.3-1.9,5.6l-20.3,2.5c-0.7,0.1-1.4,0.4-1.9,1
			l-14.3,14.6c-1.9,2-5.3,0.8-5.6-1.9l-2.5-20.3C1740.4,997.5,1740,996.8,1739.5,996.3z"/>
	</g>
</g>
<g id="Layer_1">
	<ellipse class="st1" cx="1302.5" cy="1818.3" rx="535.6" ry="113.1"/>
	<path class="st3" d="M1636.1,865.8c-12.6-13.3-30.6-18.2-46.9-12.9c-10.3-42.9-52.4-79.9-84.5-107.4c-39.7-34-85.3-61.2-134.1-79.9
		c-109.7-42-223.6-23.5-326.3,29.6c-2.8,1.5-3.7,4.3-3.1,6.7c-20,29.7-40,59.5-60.9,88.7c-21.1,29.4-43.5,57.7-66.2,85.8
		c-1.2,1.4-1.1,3.1-0.4,4.4c-4.9,10.6-8.2,21.8-9.2,33.6c-0.6,7.3,1.9,15.8,0.9,22.7c-1.6,11.1-7.4,15-12.6,23.1
		c-13.5,21.1-13.7,48.9-8.4,72.6c5.1,22.5,16,45,34.4,59.6c20.2,16,44.2,17.1,68.4,15c18.7,48,74.8,72.8,120.5,87.4
		c30.8,9.8,62.7,16.4,94.9,19.2c13.8,1.2,27.7,1.6,41.5,1.3c8.4-0.2,15.5-1.9,22.8,2.8c7.2,4.6,14.2,19.5,19.4,26.6
		c3.2,4.3,10.8,3.8,12.6-1.6c5.6-15.8,14.1-28.7,22.8-42.3c8.3-0.2,16.6-1.6,24.7-4c42.2-2.7,82.2-26.4,112.7-54.5
		c-0.8-1.8-0.6-4,0.2-6c1.2-2.7,7.4-3,7.6-5.9c0.1-3.1,6.5-4.9,7.6-7.9c0.6-1.7,3.6-0.5,4.4-2.1c0.1-0.3,6.2-4.9,6.3-4.9
		c0.6-2.4,7.4-4.6,6.9-6.9c-2.1-10.9,3.1-7.6,11.8-14.4c8.3-6.4-2.2-9.1,8.1-8.6c6.3,0.3,5.5-17.1,11.5-15.4
		c6.1-7.6,11.9-15.4,16-24c38.7,0.9,70.4-24.5,90.5-57.1c4-5.8,7.5-11.7,10.5-17.6c7.8-15.4,11.4-29.3,11.7-42.8
		C1655.4,906.3,1652.3,882.8,1636.1,865.8z"/>
	<path class="st3" d="M1292.5,1747.5c-10.8-1.7-25.3,2.1-36.3,2.6c-16.5,0.7-35.2,3.1-51-2.5c-2.2-0.8-4.8,0.4-5.1,2.9
		c-0.8,6.9-0.8,5.5,0.2,12.4c0.6,3.9,5.5,4.4,7.3,1.6c14.9,6.2,30.8,9,45.7,15.7c0.2,0.1,0.4,0.2,0.6,0.3c4.2,3.6,5.8,4.1,15.2,4.4
		c9.3,0.2,32.5,2.5,35.8-9.4C1307.5,1766.2,1303.1,1749.2,1292.5,1747.5z"/>
	<path class="st3" d="M1377.3,1768.3c-6.8-1.5-13.6-0.4-20.4,0c-7.2,0.4-12.8-1.6-19.8-2.5c-0.8-0.1-1.5,0-2.2,0.2
		c-0.6-0.5-1.3-1-1.9-1.4c-5.3-3.9-10.5,3.4-6.1,7.9c7.8,7.9,18.5,20.4,29.5,23.6c3.8,1.1,7-0.1,9.8-2.8c4.9-4.7,8-9.8,14.2-13.2
		C1385.7,1776.9,1382.1,1769.4,1377.3,1768.3z"/>
	<path class="st3" d="M1449.1,1765.9c1.5-1.1,2.5-3,2.1-4.8c-1.4-7.2-9.8-7.4-15.5-5.9c-2.5,0.7-3.1,3.3-2.3,5.4
		c-1.4,1.4-1.8,3.7,0.3,5c2.1,1.3,4.3,2.7,6.4,4c2.4,1.5,4.6,2.1,7.4,1.9c2.4-0.1,3.3-3.1,2.1-4.9
		C1449.5,1766.3,1449.3,1766.1,1449.1,1765.9z"/>
	<path class="st4" d="M965.1,1059c-2.7-10.2-13.5-19.9-21.8-25.9c-4.5-3.3-9.5-5.6-14.7-6.5c-3.6-2.1-7.4-3.4-10.9-3.5
		c-12.9-0.4-16.9,11.3-14.4,22.2c2.5,10.8,8.9,20.5,17.8,27.1c8.4,6.2,19.9,10.7,30.4,8.8C962.1,1079.1,967.7,1069,965.1,1059z"/>
	<path class="st4" d="M1613.8,915.9c-3.8,1-7.3,2.9-10.4,5.5c-19.6,5.2-34.9,34.4-23.4,52.2c8.7,13.5,25.1,10.6,35.9,1.4
		c10.6-9,17.6-22.2,19.1-36.1C1636.4,925.8,1628.9,912.1,1613.8,915.9z"/>
	<path class="st4" d="M1504.4,1101c0.2-1.1-5.4,0.7-5.8,0.8c-4.6,1.5-9.2,3.3-13.6,5.2c-10.3,4.5-20.5,9.3-30.8,14.1
		c-9.5,4.4-18.1,10.5-26.9,16c-74.7,46.7-166.8,64-253.3,53c-68.8-8.7-143.3-22.2-179.5-90.4c-2.8-5.2-10.3-2.3-8.5,3.4
		c27.7,91.3,146,100.1,225.3,107.6c17.9,1.7,35.8,2.6,53.6,2c0.8,9.6,8.3,17.2,15.4,23.4c3.7,3.2,10.4,2.8,14.1-0.7
		c2.3,0,4.7-0.5,6.7-1.6c2.5-1.4,4.7-3.5,6.3-5.9c0.9-1.4,1.9-2.8,2.5-4.3c1.4-3.5,0.4-6.7-1.3-9.8c-0.3-0.5-0.6-0.9-0.9-1.2
		c0.3-0.6,0.7-1.3,1-1.9c0.4-0.9,0.7-1.9,0.8-2.8c14.3-2.8,28.4-6.9,42.2-12.7c21.5-8.9,41.9-20.7,61.7-32.8
		c15.5-9.5,53.4-30.7,68.7-40.3C1482.2,1119.8,1504,1103.2,1504.4,1101z"/>
	<path class="st4" d="M1294.3,1749.3c-3.9-5.3-11.3-1.4-11.1,4.4c0,0.5,0.1,1,0.1,1.5c-20.6-11.8-52.7-8.8-73.8-10.2
		c-5.9-0.4-7.3,8.5-1.3,9.3c21.5,2.6,68.2-0.2,76.7,24.3c2.6,7.4,13.9,5.7,14.8-1.8C1301,1766.4,1300.5,1757.9,1294.3,1749.3z"/>
	<path class="st4" d="M1366.3,1770.4c-2.9-0.8-5.4-1.9-8.4-2.1c-2.5-0.2-4.7,0.6-6.5,1.8c-5.5-2-10.8-4.2-16-6.9
		c-7.9-4.1-14.8,8.2-7.9,13.5c8.6,6.5,17.8,11.9,28.1,15.3c5.3,1.8,13.3-0.9,13.4-7.7c0-0.3,0-0.6,0-0.8
		C1372.5,1779.8,1371.7,1771.9,1366.3,1770.4z"/>
	<path class="st4" d="M1187.1,850.5c-13.4-27.7-36-50.4-49.4-78.7c-11-23.2-18.5-47.6-24.6-72.4c4.2-4,2.2-10.9-2.9-13.6
		c0.1-0.6,0.1-1.2-0.1-1.9c0.1-1.3,0.1-2.6,0.2-3.8c1.3-4.9-4.4-10.1-9.1-9.2c-15.2,3.2-28.3,10.7-40.1,20.1
		c-2.6-1.6-6.1-1.6-8.2,1.6c-39.6,59.4-78.2,118.5-124.7,172.8c-4.4,5.1-3,11,0.9,14.8c-3.8-0.5-7.9,1.1-9.3,5.2
		c-6.1,17,3.4,33.2,10.4,49c8.9,19.9,20.1,38.5,31.3,57.1c3.3,5.5,12.3,0.3,9.7-5.4c-16.7-37.8-24.5-79.6,0.9-114.6
		c4.8-6.6,1.6-14-4.4-16.7c31.3-38.3,59.9-79.5,82-123.6c1.8-1.9,3.7-3.7,5.6-5.4c11.9-10.6,25.4-14.7,39.5-19.1
		c2.6,25.6,9.9,50.5,21.1,74c13.6,28.4,33.5,63.9,62.6,78.5C1183.4,861.5,1189.5,855.5,1187.1,850.5z M937,891.9
		c-0.1-1.3-0.3-2.7-0.4-4c-0.1-1.6-0.6-3-1.5-4.1c1.5,0.4,3.1,0.4,4.7,0.2C938.8,886.5,937.8,889.2,937,891.9z"/>
	<path class="st4" d="M1556.5,804.7c-2.9-4.1-7.9-4.3-11.7-2.3c3.6-5.6,2.9-13.9-5-17c-8.2-3.3-16.2-6.8-23.9-10.7
		c2.3-0.8,4.5-1.6,6.8-2.5c11.8-4.8,8.5-20.7-2.8-23.2c-62.7-13.6-128.6-23.8-188.3-48c-24.8-10.1-49.3-28.4-74.8-41
		c-0.6-2.7-2.4-5-5.7-6c-9.7-2.8-19.7-5.6-29.7-6.2c-5.3-0.9-10.7-1.3-16.2-1.1c-2.1-1.9-5.1-2.8-7.9-1.4c-5,2.5-9.2,2.6-12.7,5.1
		c-0.1,0-0.2,0.1-0.4,0.1c-0.1-0.8-0.2-1.5-0.3-2.3c-1.1-11-16.8-8.5-16.6,2c0.5,35.8,3.2,70.6,10.7,105.7
		c6.4,29.9,13.8,65.5,31.7,90.7c5.8,8.2,19.4,2.6,18.1-7.2c-4.3-30.9-18.5-61.6-26.1-92c-2.2-9-4.3-18.1-6.3-27.3
		c-1.6-23.3,13.2-43.3,34.8-47.4c14.9,7.5,28.9,18.1,42.8,27c22.7,14.6,47.3,25.6,72.9,34.1c20.4,6.8,41.3,12.5,62.3,17.5
		c0.4,0.5,1,0.9,1.8,1.2c32.9,14.2,63.1,37.8,87.1,64.3c18.4,20.4,31.4,42.7,43.2,66.5c1.8,7.1,3.4,14.3,5,21.9
		c0.9,4.6,6,5.6,8.7,2.9c2.3,0.4,4.9-1,4.4-4c-0.4-2.7-0.8-5.3-1.4-8c1.4-10.7,1.2-21.3-0.4-31.6c6.1,4.5,16.9,1.9,17.4-7
		C1575.2,837.7,1567.9,820.8,1556.5,804.7z"/>
	<path class="st4" d="M1260,956.7c-1.9-2.3-4.5-2.9-7.2-2.1c-3.3,1-6,3.3-8.8,5.1c-2.9,1.9-3.5,6.5-1.4,9.2c2.4,2.9,6.1,3.3,9.2,1.4
		c1.3-0.8,2.6-1.6,3.9-2.4c0.6-0.4,1.3-0.8,1.9-1.2c0.9-0.7,1.6-1.6,2.3-2.5C1261.6,962.2,1261.7,958.8,1260,956.7z"/>
	<path class="st2" d="M1440.4,1395.7c-3.1-12-9.6-10.3-15.2-21.5c15.6-23.8,20.3-64.3,7.5-88.1c28.5-3.5,65.8-12.5,91.2-28
		c-36.9-6-73.7-12.6-110.3-19.8c-2.8-0.5-4.5-3.5-4.7-6.1c-0.6-11.4,5.9-21.8,14.4-30c-33.1-6.1-66-6.1-99.5-1.1
		c-3.3,0.5-5.5,2.9-6.2,6.1c-0.5,2.3-1,4.8-1.7,7.3c-1,0.9-2,1.8-2.9,2.9c-2.4,2.5-2.4,5.6-1.1,8.1c-0.3,0.6-0.6,1.2-0.9,1.8
		c-7.9,4-17.4,6.5-24.6,5.5c-0.7-0.1-1.4-0.3-2.1-0.4c-3.7-3.1-6.5-7.4-9.5-11.2c-4-5-5.9-6.9-11.7-8.8c-22.9-7.4-56.5-1.9-80.2-1.1
		c-2.3,0.1-4,1.3-4.9,3c-43.3,12-76.5,52.6-85.9,95.8c-9.3,42.5,10.9,76.8,45.2,94.2c-17,20.5-24.2,46.3-30.9,71.9
		c-8.1,31-10.5,61.1-2.7,92.3c4.3,17.4,8.8,47.9,25.7,57.9c7.7,4.6,17,8.2,26.8,10.8c4.4,14.7,8.8,29.4,13.5,44.1
		c5.9,18.3,14.6,37.8,12.2,57.5c-0.4,3.7,2.2,7.5,6,7.9c20.1,2,39.9,3.9,60.1,3.9c12,0,40.4,4.4,49.8-5c8.9-9,4.4-34.7,4.8-46.1
		c0-0.9,0-1.9,0.1-2.8c3.8,16.9,7.9,33.8,11.9,50.6c3.3,13.5,7.2,16.3,21.5,20c16,4.2,33.5,3.9,50,2.7c23.9-1.7,54.5-0.2,59.7-27.7
		c7.6-39.8,16-80.3,21.1-120.6c14.9-0.3,26.9-8.1,27.8-24.8c1.6-28.6-1.1-60.2-5.4-88.5C1482.9,1467.1,1466.9,1427.5,1440.4,1395.7z
		 M1232.4,1421.5c-15.1-12.7-11.4-43-8.4-62.7c0.3,0,0.7,0.1,1,0.1c8.5-0.2,12-8.1,15.2-16c1.5,0.7,3,1.7,4.8,3
		c10.3-1,14.1,2.2,11.3,9.7c-0.6,5.1,4.3,8.6,9,7c16.2-8.5,22-3.2,17.3,15.8c-3.6,3-3.5,9.5,1.4,11.3c6.7,1.1,9.6,5.8,8.7,14.2
		c-3.1,1.4-4.8,6.6-1.3,8.7c1.2,0.5,2.2,1.1,3.3,1.8C1277.5,1423.7,1247.3,1434,1232.4,1421.5z"/>
	<path class="st5" d="M1480.5,1478.3c-2.2-11-3.2-30.6-15.8-35.7c-6.7-2.8-15.4,0.9-22,2.4c-10.9,2.3-21.9,4-33.1,4.9
		c-22.7,1.8-45.6,0.4-68-4c-21.8-4.3-41-13.6-62-20c-19.3-5.9-41.6-2.2-61.6-4.4c-22.7-2.4-45.3-6.3-68-9.1
		c-1.7-1.9-4.5-2.8-6.8-0.6c-0.3,0.3-0.5,0.5-0.8,0.8c-1.4,0.7-2.5,1.8-3.1,3.2c-38.7,39.5-40,93.6-31.3,145.7
		c-6.5,21.1,0.7,43.7,14.2,60.9c2.3,2.9,5.1,4,7.8,3.8c12.1,5,23.6,6.3,37,7.3c18.1,1.3,33.9,5.1,51.3,9.9c29.3,8,58.3-0.2,87.9,3.4
		c59.9,7.3,116.8-0.7,170.8-28.5c2.3-1.2,3.6-3,4.3-5c1-1.1,1.8-2.4,2.2-4C1494.6,1567.8,1488.8,1519.7,1480.5,1478.3z"/>
	<path class="st6" d="M1037.9,710.8c2.3-3.4-1.7-8.1-5.2-5.4c-6,4.5-11.5,9.5-16.8,14.7c-2.4-1.6-5.6-1.8-8.4,0.5
		c-42.5,35.5-70.4,87.9-98.5,134.7c-2.5,4.2-0.8,9.6,2.6,12.1c-10.4,23.2-15.7,47.8-16.6,73.9c-0.2,7.3,6.8,11.5,13.1,7.7
		c7.4-4.5,14.9-8.6,22.4-12.7c3.2-1.7,6.2-5.8,4.2-9.7c-9.8-18.4,9.5-42.9,17.8-58.8c3.1-6-2.4-10.8-7.9-10.7
		C950.7,845,957,833,963.3,821C990.7,786.1,1013.4,746.2,1037.9,710.8z"/>
	<path class="st6" d="M967.6,1005.1c-0.3-2.3-4-3.1-4.8-0.7c-3.3,10.3-3.4,19.4-4.1,30.2c-1,15.6-5.6,27-10.9,41.3
		c-9.5,25.7-14.5,52.3-22,78.6c-0.6,2.1,2.1,3.3,3.1,1.3c13.6-26.6,29.9-51.6,40.2-79.7C978.8,1049.9,971.1,1031.6,967.6,1005.1z"/>
	<path class="st6" d="M1206.8,844.1c-15.7-43.6-31.5-88.1-40.1-133.8c-2.6-14-0.4-35.4-7.8-47.7c-6.8-11.3-22.1-8.4-33-6.3
		c-2.2,0.4-4.4,1.5-6.2,3c-3.5-0.7-7.7,1.7-7.6,6.6c1.3,70.3,36.5,133.3,80.4,186.1C1198.4,859.2,1210,853.1,1206.8,844.1z"/>
	<path class="st6" d="M1548.2,784.8c-5-6.8-14.3,0.2-11.1,7.1c-1.9-0.9-3.7-1.8-5.6-2.8c7-2.9,6.4-13.5-1.8-15.1
		c-27.7-5.5-54.1-13.7-78.6-27.7c14.6,4.4,29.3,8.5,44.1,12.2c13.8,3.5,19.2-18.6,6.4-23.8c-34.7-14.1-68-31.1-101.9-47.1
		c-31.2-14.7-65.8-33-100.7-35.4c-4.2-0.3-7.3,1.7-9.1,4.4c-6.3-2.8-12.7-5.7-19-8.6c-7-3.2-13.3,7.3-6.9,11.8
		c55.3,38.3,116.7,64.7,180.5,84.4c-3.8,1-6.2,5.9-2.1,8.4c17.6,10.7,35.4,20,54.2,27.3c-2.1,3.8-1.7,9.3,2,11.9
		c7.8,5.6,15.8,10.8,24,15.8c-2.1,5-0.3,11.1,5.8,14.5c15.9,8.8,23.6,23.8,29.6,40.1c0,0-0.1,0.1-0.1,0.1
		c-5.2,14.8-9.3,29.7-9.2,45.4c0,5.5,8.1,4.9,9.1,0.1c2.5-12.3,4.4-24.6,7.6-36.7c4.4,1.1,9.6-0.8,11.5-5.4
		C1587.7,839,1563.4,805.3,1548.2,784.8z"/>
	<path class="st6" d="M1602.5,1108.4c-0.2-14.3-3.7-28-9-41.2c-1.5-5-3.2-9.8-5.1-14.3c-6.3-15.2-17.1-28.1-22.7-43.6
		c-6.7-18.8-7.2-39.6-6.9-59.3c0.1-8.1-11.9-10.3-12.8-1.7c-3.3,30.1-5,56.5,9.1,84.3c6.8,13.5,16.3,26.4,24.3,39.8
		c4.5,12.6,8.4,25.5,11.9,38.9c0.5,2.1,1.8,3.2,3.3,3.6c0.2,3.8,0.1,7.6-0.5,11.6c-0.1,0.4,0.2,0.7,0.5,0.8c0.1,0.5,0.1,1.1,0.2,1.6
		c1,4.6,6.6,5.4,8.8,1.2C1606.8,1124.1,1605.1,1115.5,1602.5,1108.4z"/>
	<path class="st2" d="M1165.7,939.3c6.9,43.7-21.7,85.7-69.5,86.7c-44.9,0.9-77-42.5-77-85.4c0-34.7,23.9-69,59.7-73.9
		c36.4-5,71.8,25,83.2,58C1163.8,929.5,1165,934.4,1165.7,939.3z"/>
	<path class="st2" d="M1443.3,890.3c8,52.8-32.6,78.9-70.2,78.9c-37.6,0-68-35.6-68-79.5c0-43.9,30.4-79.5,68-79.5
		C1410.7,810.2,1436.8,846.9,1443.3,890.3z"/>
	<path class="st7" d="M1290.5,1783.4c-9.9,4-19.6,5.7-29.8,6.4c-0.6-0.8-1.5-1.6-2.5-2c-7-3.2-13.6-6.5-20.6-8.5
		c-7-5.1-12.6-9.4-22.2-10.2c-18.4-1.6-30.3,8.5-36.7,24.9c-1.6,4.2,1.8,8.4,5.6,9.1c2,4.6,7.2,7.9,13.6,10
		c12.6,4.2,27.3,4.2,39.8-0.1c1.1-0.4,1.9-1,2.5-1.8c8.7-0.3,17.3-0.6,25.6-1.8c12-0.5,23.7-3.9,32.2-12.6l0,0c0,0,0,0,0,0
		c0.5-0.5,1-0.9,1.5-1.5C1304.7,1789.5,1297.4,1780.7,1290.5,1783.4z"/>
	<path class="st7" d="M1465,1800.7c-0.2-2.9-1.1-5.5-2.5-8c0.6-2.3,0.2-4.8-1.3-6.8c-10.5-13.5-26.7-16.4-42.7-13.7
		c-1.8-0.1-3.4-0.2-4.9-0.2c-12.3,0.3-22.6,5.4-32.7,12.2c-2.1,1.4-3.8,2.7-5.5,4c-13.5-0.4-26.5-3.2-40.7-3.9
		c-2.1-1.2-4.1-2.3-6-3.3c-4.9-2.6-10.6,4.6-6.9,8.8c0.1,0.1,0.1,0.1,0.2,0.2c-1.9,3.6-1.5,8.2,2.6,11.6
		c22.1,18.3,49.7,23.9,78,23.6C1418.7,1825.2,1466.7,1827.9,1465,1800.7z"/>
	<path class="st8" d="M970.3,774.7c-0.5,0.1-0.7,0.5-0.7,0.9v2.4c0,0.4,0.5,0.7,0.9,0.7c0.5-0.1,0.7-0.5,0.7-0.9v-2.4
		C971.2,774.9,970.7,774.6,970.3,774.7z"/>
	<path class="st8" d="M980.4,771.7c-23.8,37.7-53.2,76.4-70.6,117.5c-1.8,4.2,2,7.5,5.6,7.1c-4.6,6.6-10,14.2-9.3,22.3
		c0.4,4.9,5.8,6.2,9.5,4.1c7-4,10.3-13.9,13.8-20.8c4.5-8.8,9.5-17.5,14.7-26c2.6-4.3-0.9-8.9-4.7-8.7
		c18.7-28.8,33.4-62.3,46.6-92.1C987.5,771.7,982.5,768.5,980.4,771.7z"/>
	<path class="st8" d="M927.8,916.2c-6.8,0-5.4,10.5,1.3,10.5C935.9,926.7,934.6,916.2,927.8,916.2z"/>
	<path class="st8" d="M1208.1,835.7c-14-36.3-29.1-71-39.3-108.8c-1.3-4.7-8.2-2.4-7.8,2c0,0-0.1,0-0.1,0c1.7,14.7,4,29.7,7.2,44.7
		c0,2.8,0,5.6-0.1,8.3c-15.7-21.9-28.9-46.8-41-70.3c-2.2-4.3-8.7-1.9-7,2.8c8.7,24.5,17.9,57.5,35.8,79.4c-1.7,2.1-2.3,5.2-0.4,8.3
		c6.7,10.6,12.5,21.7,19.3,32.3c5.5,8.5,10.4,18.6,21.5,18.6c2,0,4.2-1.9,4.9-3.7c0.3-0.7,0.5-1.4,0.6-2.1
		C1206.5,846.2,1210.4,841.8,1208.1,835.7z"/>
	<path class="st8" d="M1506.9,745.5c-13-10.9-30.7-14.2-46.6-19.5c-18-6-35.8-12.3-53.8-18.3c-36-11.9-72.2-23.5-107.8-36.4
		c-4.5-1.6-7.1,4.7-2.8,6.8c35.4,17.1,70.6,34,107,48.9c17.5,7.2,35.3,13.5,53.2,19.8c15.5,5.5,30.7,12.6,47.3,11.6
		C1509.8,758,1511.4,749.3,1506.9,745.5z"/>
	<path class="st8" d="M948.9,1088.1c-7.8,7.7-14.3,17.4-15.8,28.4c-0.7,5.4,6.7,7.2,9,2.4c4.2-8.9,8.1-17.3,15-24.5
		C961.7,1089.6,953.5,1083.6,948.9,1088.1z"/>
	<path class="st8" d="M1599.4,1089.5c-6-25.7-27-49.4-41.9-70.6c-2.4-3.4-7.1,0.3-5.1,3.8c7.3,12.9,14,26,21,39
		c5.7,10.5,10.6,21.9,18.9,30.7C1594.6,1094.8,1600.4,1093.8,1599.4,1089.5z"/>
	<path class="st9" d="M1171.5,816.6c-10.6-33.8-21-67.1-30.4-101c1.7,4.6,3.8,9.1,6.7,13.1c2.5,3.5,7.7,0.3,6.4-3.6
		c-2.2-6.4-4.9-12.7-6.6-19.3c-1.3-5-8.2-2.9-8.7,1.5c-3.1-11.4-6-22.8-8.8-34.3c-1.5-6.3-11.1-5.5-10.3,1.3
		c5.7,49.9,21.4,101.6,46.9,145C1168.4,822.2,1172.4,819.4,1171.5,816.6z"/>
	<path class="st9" d="M1418.6,712.8c-38.8-9-75.1-21-108.8-42.6c-3.8-2.4-8.2,2.9-4.4,5.7c33.4,23.7,71,41.1,112.1,45.2
		C1422.9,721.6,1423.7,714,1418.6,712.8z"/>
	<path class="st9" d="M1156.9,709.5c-2.4,0-1.9,3.8,0.5,3.8C1159.8,713.3,1159.3,709.5,1156.9,709.5z"/>
	<path class="st9" d="M978.3,753.6c-7.2,6.9-14.1,13.9-20.8,21.3c-4.4,5,3.7,11.3,8.2,6.4c6.4-7.1,12.3-14.4,18.1-22
		C986.4,755.8,981.7,750.4,978.3,753.6z"/>
	<path class="st9" d="M1385.9,686.9c-6.3-2.6-12.7-5-18.6-8.3c-2.6-1.4-6.1,0.5-7.2,3c-1.3,3,0.4,5.7,3,7.2c6.4,3.6,13,6.4,20.3,7.5
		C1388.8,697.1,1391,689,1385.9,686.9z"/>
	<path class="st2" d="M1708.2,577.5c-6-12.1-16.8-21-23.8-32c3.2-4.7,6.7-9.1,10.1-13.4c24.2-21.7,29.2-55.4,25.6-88
		c-4.6-41.6-19.4-81.5-46.3-114.6c-26.4-32.3-61-49.5-100.4-57.9c-26.2-5.6-52.4-3.4-76.9,3.1c-10.2-39-28.8-73.2-51-107
		c-25.6-39.1-61.4-65.2-105.8-79.9c-44.2-14.6-83.6-19.5-129.5-9c-28.1,6.4-53.2,14.5-74.9,29.7c-2.6-0.5-5.4,0.1-7.9,2.2
		c-12.5,10.7-26.3,19.9-37.4,32.2c-14.1,15.7-23.4,31.9-47.4,31.1c-18.6-0.6-36-9.1-54.2-12.3c-17.2-3.1-34.9-2.6-52,0.3
		c-53.2,9-111.8,36.4-148.4,78.8c-30.9,25.3-54.2,65.2-73.6,99.1c-22.3,39.1-40.8,81.7-47.9,126.4c-5.8,36.7-3.5,74.9,8.8,110.1
		c6.2,17.5,20,50,39,65.1c-35.8,47-51.2,108.9-9,159c28.1,33.4,80,52.4,120.2,36.1c4.8,49.5,23.1,96.9,52,138
		c2.6,3.7,8.8,4,11.5,0.1c6.7-9.7,16.8-19.1,17-31.1c-1.9-5.5-3.5-11-4.8-16.7c0-6.6,0.4-13.1,1.3-19.5c1.4-11.7,3.9-23.4,7.1-34.7
		c10.4-36.5,28.7-83.4,58.1-108.8c2.3-1.9,1.4-4.6-0.5-5.7c27-30,59.5-56.1,93.2-76.8c25.3-15.6,52.7-27.5,82.2-32
		c25.2-3.8,51.3-0.6,76.2-6.2c0.8,0.4,1.7,0.7,2.8,0.6c6.5-0.3,12.8-0.7,19.1-0.8c1.9,3,3.8,4.2,8.1,5.3c4.7,1.2,9.2,0.9,13.6,0.3
		c49.8,8.5,100.2,17.1,146.4,37.9c24.7,11.1,49.9,22.7,72.4,37.9c20.3,13.7,35.5,31.5,53.2,48c1.6,1.5,3.6,2.3,5.6,2.4
		c19.1,21.9,36.3,45.3,45.9,72.4c1.9,5.3,9.2,6,12.5,1.8c19.3-24,22.5-62.6,22.5-93.7c16.3,1,32.9-5.9,43.9-18.6
		c7.2-8.2,11.8-18.7,13.5-29.4c1-6.1,0.1-11.6,0.4-17.6c0.4-8.4,1.5-8.8,8.4-15.3c18.7-17.3,31.8-34.5,30.7-61.5
		C1717,600.4,1713.6,588.5,1708.2,577.5z"/>
	<defs>
		<filter id="Adobe_OpacityMaskFilter" filterUnits="userSpaceOnUse" x="961.2" y="988.7" width="205.3" height="205.3">
			<feFlood  style="flood-color:white;flood-opacity:1" result="back"/>
			<feBlend  in="SourceGraphic" in2="back" mode="normal"/>
		</filter>
	</defs>
	<mask maskUnits="userSpaceOnUse" x="961.2" y="988.7" width="205.3" height="205.3" id="SVGID_1_">
		<g class="st10">
			<defs>
				<filter id="Adobe_OpacityMaskFilter_1_" filterUnits="userSpaceOnUse" x="961.2" y="988.7" width="205.3" height="205.3">
					<feFlood  style="flood-color:white;flood-opacity:1" result="back"/>
					<feBlend  in="SourceGraphic" in2="back" mode="normal"/>
				</filter>
			</defs>
			<mask maskUnits="userSpaceOnUse" x="961.2" y="988.7" width="205.3" height="205.3" id="SVGID_1_">
				<g class="st11">
				</g>
			</mask>
			<radialGradient id="SVGID_2_" cx="1063.8353" cy="1091.3401" r="102.6278" gradientUnits="userSpaceOnUse">
				<stop  offset="0" style="stop-color:#FFFFFF"/>
				<stop  offset="0.1273" style="stop-color:#FBFBFB"/>
				<stop  offset="0.2531" style="stop-color:#EFEFEF"/>
				<stop  offset="0.3783" style="stop-color:#DBDBDB"/>
				<stop  offset="0.5032" style="stop-color:#BFBFBF"/>
				<stop  offset="0.6281" style="stop-color:#9B9B9B"/>
				<stop  offset="0.7528" style="stop-color:#6F6F6F"/>
				<stop  offset="0.8764" style="stop-color:#3C3C3C"/>
				<stop  offset="0.9982" style="stop-color:#010101"/>
				<stop  offset="1" style="stop-color:#000000"/>
			</radialGradient>
			<circle class="st12" cx="1063.8" cy="1091.3" r="102.6"/>
		</g>
	</mask>
	<radialGradient id="SVGID_3_" cx="1063.8353" cy="1091.3401" r="102.6278" gradientUnits="userSpaceOnUse">
		<stop  offset="0" style="stop-color:#F9697C"/>
		<stop  offset="0.1705" style="stop-color:#F96D7F"/>
		<stop  offset="0.339" style="stop-color:#FA7989"/>
		<stop  offset="0.5067" style="stop-color:#FB8D99"/>
		<stop  offset="0.674" style="stop-color:#FCA8B0"/>
		<stop  offset="0.8393" style="stop-color:#FDCCCD"/>
		<stop  offset="1" style="stop-color:#FFF6F0"/>
	</radialGradient>
	<circle class="st13" cx="1063.8" cy="1091.3" r="102.6"/>
	<defs>
		<filter id="Adobe_OpacityMaskFilter_2_" filterUnits="userSpaceOnUse" x="1355.4" y="918.7" width="205.3" height="205.3">
			<feFlood  style="flood-color:white;flood-opacity:1" result="back"/>
			<feBlend  in="SourceGraphic" in2="back" mode="normal"/>
		</filter>
	</defs>
	<mask maskUnits="userSpaceOnUse" x="1355.4" y="918.7" width="205.3" height="205.3" id="SVGID_4_">
		<g class="st14">
			<defs>
				<filter id="Adobe_OpacityMaskFilter_3_" filterUnits="userSpaceOnUse" x="1355.4" y="918.7" width="205.3" height="205.3">
					<feFlood  style="flood-color:white;flood-opacity:1" result="back"/>
					<feBlend  in="SourceGraphic" in2="back" mode="normal"/>
				</filter>
			</defs>
			<mask maskUnits="userSpaceOnUse" x="1355.4" y="918.7" width="205.3" height="205.3" id="SVGID_4_">
				<g class="st15">
				</g>
			</mask>
			<radialGradient id="SVGID_5_" cx="1458.0566" cy="1021.2925" r="102.6279" gradientUnits="userSpaceOnUse">
				<stop  offset="0" style="stop-color:#FFFFFF"/>
				<stop  offset="0.1273" style="stop-color:#FBFBFB"/>
				<stop  offset="0.2531" style="stop-color:#EFEFEF"/>
				<stop  offset="0.3783" style="stop-color:#DBDBDB"/>
				<stop  offset="0.5032" style="stop-color:#BFBFBF"/>
				<stop  offset="0.6281" style="stop-color:#9B9B9B"/>
				<stop  offset="0.7528" style="stop-color:#6F6F6F"/>
				<stop  offset="0.8764" style="stop-color:#3C3C3C"/>
				<stop  offset="0.9982" style="stop-color:#010101"/>
				<stop  offset="1" style="stop-color:#000000"/>
			</radialGradient>
			<circle class="st16" cx="1458.1" cy="1021.3" r="102.6"/>
		</g>
	</mask>
	<radialGradient id="SVGID_6_" cx="1458.0566" cy="1021.2925" r="102.6279" gradientUnits="userSpaceOnUse">
		<stop  offset="0" style="stop-color:#F9697C"/>
		<stop  offset="0.1705" style="stop-color:#F96D7F"/>
		<stop  offset="0.339" style="stop-color:#FA7989"/>
		<stop  offset="0.5067" style="stop-color:#FB8D99"/>
		<stop  offset="0.674" style="stop-color:#FCA8B0"/>
		<stop  offset="0.8393" style="stop-color:#FDCCCD"/>
		<stop  offset="1" style="stop-color:#FFF6F0"/>
	</radialGradient>
	<circle class="st17" cx="1458.1" cy="1021.3" r="102.6"/>
	<path class="st18" d="M962,490.6c-27.5-38-48.6-80.3-58.6-126.4c-1.8-8.3-15.3-9.9-16-0.1c-1.4,21.2-2.1,42.5-2.8,63.8
		c-0.3,8.7,3.2,76.7-19.7,68.2c-6.4-2.4-14.3,4-11.1,10.9c5.6,11.9,5.6,25.8-2.2,36.8c-7.1,9.9-17.5,10.7-26.7,17.1
		c-6.8,4.7-7,9-10.7,15.9c-11.8,22-29.4,10.9-44,2.5c-4.8-2.8-9.9,2.6-9.5,7.2c1.7,21,33.1,99.4-13.1,90.4
		c-7.7-1.5-11.1,8.9-5.7,13.4c39.5,32.9,14.7,92.1-33.6,96c-7.7,0.6-8.1,13.6-0.1,13.8c0,0,0,0,0,0c0.3,0.4,0.7,0.7,1.1,1
		c28.2,21.8,60.9,31.2,96.3,27.2c5.2-0.6,7.7-5.1,7.7-9.9c0.3-59.3,13.8-118.3,38.6-172.2c11.9-25.9,26.3-50.5,43.2-73.4
		c17.6-23.9,39.1-43.2,58.4-65.3c0.7-0.8,1.2-1.7,1.5-2.6C961.3,504.2,966.7,497.1,962,490.6z"/>
	<path class="st18" d="M1410.4,330.4c-3.3-7.4-16.7-7.3-17,2.1c-1,32.4-5,64.1-9.2,96.2c-0.2,1.8,0.3,3.4,1.3,4.6
		c0.5,1.5,1.5,2.9,3,3.8c7.3,4.5,17.1,13.6,26.5,10.9c10.2-3,12.3-15.6,13.8-24.4C1434.5,391.2,1423.2,359.4,1410.4,330.4z
		 M1407,425.8c1.4-3,2.7-6,3.8-9.1c-0.3,3.9-1,7.3-2.1,9.9C1408.1,426.4,1407.5,426.1,1407,425.8z"/>
	<path class="st18" d="M1676.4,627.4c-17.2-7.4-20.8-32.5-6.8-44.8c7-6.1,4.4-17-4.9-18.8c-33.3-6.6-49-39.7-41.5-70.8
		c1.7-7.2-6.9-12.8-13.1-10.3c-29.8,12.4-73.9,3.9-84-30.9c-8.6-29.7,3.1-58.6-13.9-86.8c-3.9-6.4-14.6-3.1-15.3,3.9
		c-3.1,34.7-20.4,69.7-48.6,91c-1.4,1-2,2.3-2,3.5c-3.1,1.4-4.6,6.5-1.3,9.2c40.9,33.8,86.7,62.5,122,102.5
		c35.4,40.2,56.3,89.1,57.5,142.9c0.1,6.5,9.7,5.8,10.8,0.1c5.6-27.6,26.6-55,45-75.4C1684.9,637.8,1682,629.9,1676.4,627.4z"/>
	<path class="st18" d="M1298.3,1657.5c-0.1-3.2-3.7-7-7-7.1c-7.5-0.1-14.7,0.1-22,1c-5.7-1.6-12-1.4-18-1.2c-0.5,0-0.9,0.2-1.3,0.3
		c-22-9.9-49-12-71.3-13.2c-5.8-0.3-7.1,8.1-1.2,9.1c25.2,4.2,57.8,8.1,78.8,23.7c20.7,15.3,24.6,45.6,25.5,69.5
		c0.2,6,8.8,5.3,10,0.1C1297.7,1712.3,1298.8,1685.3,1298.3,1657.5z"/>
	<path class="st18" d="M1346.2,1652.4c-3.7-0.9-7.4-1.7-11.1-2.4c-2.5-2.2-6.2-2.8-9.1-1.6c-3.9-0.6-7.7-1.2-11.6-1.7
		c-4.5-0.6-9.4,2.8-9.8,7.5c-1.9,20.7,7.6,44.5,12.3,64.5c0.1,0.4,0.2,0.8,0.4,1.2c0,11.1,1,22.1,2.3,32.2c1,8.6,13.1,6.6,13-1.6
		c-0.1-26.8,0.7-65.2,18.2-86.9C1354.4,1659.2,1351.1,1653.7,1346.2,1652.4z"/>
	<path class="st18" d="M1203.3,1319.4c-3.1-3.9-9.1-5.3-11.7-9.5c-3.7-5.7-1.2-14.3-2.2-20.8c-0.6-3.7-4-5.8-7.3-5.4
		c-0.1-6-8.5-10.3-12.6-4.4c-5.4,7.7-10.6,16.7-12.9,26.1c-4.9,1.9-9.5,5.1-13.2,8.2c-8.7,7.3-13.9,17-14.2,28.5
		c-0.3,10.5,15.1,13.2,16.6,2.2c0-0.1,0.1-0.2,0.1-0.4c6.9-3.1,15.6-5.4,20.8-4.7c11.5,1.6,24,10.2,34.3,15.4c3.2,1.6,8.1-1,8.2-4.7
		C1209.5,1340.2,1209.8,1327.5,1203.3,1319.4z M1172.8,1318.3c0.4-0.5,0.6-1,0.9-1.5c0.4,0.8,0.7,1.7,1.1,2.5
		c0.9,1.6,1.9,2.9,2.9,4.1c-2.2-0.9-4.4-1.7-6.7-2.2c0.7-0.8,1.3-1.6,1.7-2.7C1172.8,1318.5,1172.8,1318.4,1172.8,1318.3z"/>
	<path class="st18" d="M1243.2,1230.1c-3.4-2.7-7.8-3.7-11.6-5.5c-4-1.9-7.4-4.8-10.2-8.3c-4.3-5.4-12.8,0.8-8.6,6.4
		c5.8,7.9,19,18.8,29.5,13.9C1244.8,1235.4,1245.5,1232,1243.2,1230.1z"/>
	<path class="st18" d="M1354.7,1199c-3.4,2.8-5.9,6.5-9.3,9.5c-3.5,3.1-7.4,5.2-11.9,6.4c-5.2,1.4-3,10.3,2.4,9.2
		c10.9-2.3,24.3-10.2,24.4-22.8C1360.2,1198.7,1356.5,1197.4,1354.7,1199z"/>
	<path class="st18" d="M1525.7,1190.9c-1.9-5.6-5-9.7-8.1-14.6c-5.3-8.1-0.1-8.3,3.1-15.7c3.1-7.1-7.7-13.9-12.1-7.1
		c-3.5,5.4-9.3,7.1-11.1,13.9c-1.5,5.9,0.2,11.7,3.5,16.7c4.6,7.1,8.3,11.9,10.6,20.2c2.4,8.6,3.3,16.3,11.4,21.1
		c1.3,0.8,3.5,1.1,4.5-0.5C1533.8,1214.8,1529.3,1201.7,1525.7,1190.9z"/>
	<path class="st19" d="M1351.3,1548.7c-9.4,8-21,14.4-31.2,21.4c-12,8.2-23.9,16.5-35.7,25c-7.8,5.5-0.6,19,8.3,14.8
		c15.6-7.4,30.3-15.6,44.9-24.8c11.9-7.5,23.6-14.1,27-28.5C1366.3,1549.6,1356.6,1544.2,1351.3,1548.7z"/>
	<path class="st19" d="M1323.2,1543.9c-2.5-2.5-6-2.7-9-0.8c-3.8,2.5-6.2,4.2-10.3,5.6c-3.7,1.3-5.4,5.8-4,9.3
		c1.5,3.8,5.6,5.2,9.3,4c5.5-1.8,10.7-4.8,14.5-9.2C1326,1550.3,1325.6,1546.2,1323.2,1543.9z"/>
	<path class="st19" d="M1483.4,1499.9c0-0.1,0-0.1,0-0.2c0-12-3.5-22.7-9.9-31.3c2.3-2.6,3.1-6.3,0-9.9c-1-2.2-2-4.4-2.9-6.6
		c-0.4-4-4.4-7.2-8.4-6.6c-6.7,1.1-13.3,2.6-20,3.9c-2.6,0.5-4.2,2.1-5,3.9c-6.2-1.6-12.6-2.6-19.2-3c-22.1-1.4-44.3,1.8-66.4,0.7
		c-23.7-1.1-44.5-9.8-64.4-22c-14.2-8.8-19.8-6.9-34.9-2.8c-9.4,2.6-14.8-1.3-24.2-2.9c-7.2-1.2-14.1,0-21.3,0.4
		c-15.2,0.8-28.1-3.4-42.2-8.3c-6.7-2.3-13.3-5.4-20.5-2.9c-12.2,4.2-16.7,21.9-22.8,31.7c-1.5,2.5-0.9,5.1,0.6,6.8
		c-10,14.2-17.2,30.8-21.8,45.1c-1.8,5.6,5.7,8.8,8.5,3.5c7.3-14.2,17.7-28.3,28.1-40.4c7.7-8.9,17.2-16.3,25.3-24.9
		c2.2,1.1,4.3,2.2,6.3,3.1c14.1,5.8,26.1,7.8,41.2,7.3c13.7-0.5,27.1,6.5,40.4,5c4.6-0.5,8.7-4.1,12.9-4.8
		c10.7-1.6,15.9,4.2,24.2,8.9c24.8,13.9,52.7,20.2,81,18.4c36.1-2.4,91.3-17.7,104.6,30.8c1.5,5.4,10.8,4.3,11-1.3
		C1483.4,1500.9,1483.4,1500.4,1483.4,1499.9C1483.4,1499.9,1483.4,1499.9,1483.4,1499.9z"/>
	<g>
		<g>
			<g>
				<path class="st20" d="M1422.6,866.3c-0.2,0.5-0.4,1-0.7,1.5c-1.2,2.2-3.2,3.7-5.5,4.5c-0.9,0.3-1.8,0.4-2.7,0.4
					c-1.1,0.6-2.2,1-3.4,1.4c-3.2,0.9-6.8,0.2-9.2-2.1c-1.4-1.4-2.6-3.1-3.5-4.8c-1-2.1-2.1-4.3-2.6-6.7c-0.1-0.3-0.1-0.6-0.2-0.8
					c-1-1.3-1.8-2.8-2.3-4.4c-0.8-2.7-0.6-5.7,0.7-8.2c1.3-2.3,3.4-3.8,5.8-4.6c-19.1-11.6-44.4-13.8-63.2,6.4
					c-21.4,23-20.7,51.5-9.4,78.5c16.3,39.3,66.3,47.4,92.5,17.1C1437.9,922.6,1436.8,890.3,1422.6,866.3z"/>
				<path class="st21" d="M1314.5,859.5c3-9.2,9.2-18.2,16.4-24.7c6.5-5.9,14.7-9.8,23.1-11.8c18.9-4.6,36.4,1.3,53.1,11.4
					c10.6,6.4,21.5,12.8,27.1,24.5c0.8,1.7,3.7,0.6,3.1-1.2c-4.2-12.1-8-23.5-16.2-33.6c-7.7-9.5-20.3-15.1-31.8-18.2
					c-23-6.2-49.1-2.6-67.2,13.7c-5,4.5-9.3,9.9-12.6,15.7c-3.5,6.2-4.9,14-6.1,21.1C1302.2,863.5,1312.2,866.8,1314.5,859.5
					L1314.5,859.5z"/>
			</g>
			<g>
				<path class="st20" d="M1144.4,914.1c-0.5,1.1-1.3,2.1-2.3,2.9c0,2.2-0.4,4.4-1.5,6.3c-1.7,3.2-4.1,5.5-7.5,6.9
					c-3,1.2-6.2,1.3-9.4,0.9c-2.6-0.3-5.2-0.7-7.4-2c-1.3-0.7-2.6-1.5-3.7-2.6c-1.9-1.9-2.8-3.1-4-5.5c-1-2-1.5-4.3-1.6-6.5
					c-0.1-2.3,0-4.7,0.7-7c0.7-2.3,1.3-4.5,2.6-6.6c0.8-1.3,1.6-2.7,2.6-3.8c1-1.1,2.1-2.2,3.2-3.2c1.2-1,2.6-1.8,4.1-2.4
					c-14.4-7-31.3-8.4-46.6-1.9c-3.2,1.4-6.1,3-8.8,4.8c-1.7,1-3.4,2-4.9,3.3c-2.9,2.8-5.8,5.5-8.7,8.3
					c-33.4,31.7-6.2,104.3,36.6,111.2c29.7,4.8,57.2-13.7,64.2-42.8C1156,957.5,1153.5,931.3,1144.4,914.1z"/>
				<path class="st21" d="M1023.7,937.3c2.7-22.5,17.3-43,37.1-53.7c22.3-12.1,47.2-10.4,69.7,0.1c4.6,2.1,10.6-3.5,6.1-7.6
					c-45-40.8-131.4-0.7-125.3,61.1C1012.2,945.1,1022.8,945.2,1023.7,937.3L1023.7,937.3z"/>
			</g>
			<path class="st21" d="M1302.1,790.6c16.9-15.4,39.5-26.4,61.6-31.8c19.1-4.7,38-6.1,54.3,5c5.3,3.6,12.3-3.2,9-8.7
				c-13.1-21.6-44-22.2-65.8-17c-26.7,6.4-51.5,20.8-69.5,41.6C1285.6,787,1294.9,797.2,1302.1,790.6L1302.1,790.6z"/>
			<path class="st21" d="M1014.7,830.8c10.1-19.8,34.1-27.1,54.9-28.4c12.2-0.8,24.5-0.2,36.5,2.4c11.7,2.5,22.7,6.9,34.2,10.2
				c6.2,1.8,10.8-6,6.5-10.7c-14.9-15.8-40.8-20.3-61.5-21.5c-21.2-1.2-45.5,2.4-62.9,15.5c-9.2,6.9-16.2,16.2-20.3,27
				C999.3,832.6,1011.2,837.8,1014.7,830.8L1014.7,830.8z"/>
			<path class="st21" d="M1297.9,1426.3c46.5-2.4,91.1-16.1,129.3-43c6.6-4.6,0.3-15.5-6.3-10.8c-36.5,25.6-78.7,38.9-123,41.3
				C1289.8,1414.2,1289.8,1426.7,1297.9,1426.3L1297.9,1426.3z"/>
			<path class="st21" d="M924.4,938.1c7.9,18.8,16.8,37.1,25.1,55.7c1.4,3.1,5.9,3.8,8.6,2.3c3.2-1.9,3.6-5.5,2.3-8.6
				c-7.8-17.6-16.4-34.9-23.8-52.7c-1.3-3.1-4.2-5.4-7.7-4.4C925.8,931.2,923.1,934.9,924.4,938.1L924.4,938.1z"/>
			<path class="st21" d="M961.4,1039.2c5.9,25.1,11.8,50.6,22.4,74.2c9.5,21.1,23.7,39.1,42.4,52.7c11.3,8.2,23.7,14.2,36.4,19.8
				c13.4,5.9,27,11.4,40.9,16c23.9,7.9,48.5,12.8,73.5,15.3c33.1,3.3,66.4,3.2,99.6,4c8.1,0.2,8.1-12.4,0-12.6
				c-52.7-1.1-106.3-0.2-157.4-15c-26.1-7.6-53-17.5-76.3-31.6c-19.1-11.5-34.2-27.4-44.4-47.2c-12.7-24.5-18.6-52.2-24.9-78.9
				C971.7,1028,959.6,1031.3,961.4,1039.2L961.4,1039.2z"/>
			<path class="st21" d="M922.6,935.7c-35.7,7.7-49.7,51.9-47.7,84.1c1.1,17.9,6.5,36,16.6,50.9c9.1,13.6,22.5,24,37.1,31.1
				c18.6,9.1,39.3,13.6,60,13c8.1-0.2,8.1-12.8,0-12.6c-29.7,0.8-62.1-9.4-82-32.4c-20.5-23.5-24.1-60.3-13.6-88.8
				c5.6-15.1,16.5-29.7,33-33.3C933.9,946.1,930.5,934,922.6,935.7L922.6,935.7z"/>
			<path class="st21" d="M1240.3,654.3c-2.8,0.1-0.3,0.4,0.4,1.1c0.9,0.7,2.6,1.4,3.5,1.9c2.1,1.1,4.1,2.2,6.2,3.4
				c4.7,2.5,9.3,5.1,14,7.6c8.9,4.9,17.9,9.7,26.8,14.5c17.6,9.4,35.2,18.5,53.1,27.2c34.8,17,70.5,32.5,107.3,44.6
				c21,6.9,42.3,12.7,64,17.3c7.9,1.7,11.3-10.4,3.3-12.1c-77.5-16.4-149.3-49.6-218.8-86.5c-10.1-5.4-20.2-10.8-30.3-16.3
				c-5.3-2.9-10.5-5.7-15.8-8.6c-3.8-2.1-9.4-6.8-13.8-6.7C1232.2,642.1,1232.2,654.6,1240.3,654.3L1240.3,654.3z"/>
			<path class="st21" d="M1037.4,692.6c-33.1,55.1-72.1,106-112.6,155.7c-4.8,5.9-9.7,11.8-14.5,17.7c-2.2,2.7-4.5,5.5-6.7,8.2
				c-2,2.5-5.7,5.6-5.6,9.1c0.3,8.1,12.8,8.1,12.6,0c0,0,0,0,0-0.1c-0.6,1.5-1.2,3-1.8,4.4c37.3-45.6,74.8-91.1,108.1-139.7
				c11-16,21.5-32.4,31.5-49C1052.4,692,1041.6,685.7,1037.4,692.6L1037.4,692.6z"/>
			<path class="st21" d="M1203.6,852.3c-41-37.1-64.9-92-78.6-144.6c-4-15.3-7.1-30.7-9.2-46.3c-1.1-8-13.2-4.6-12.1,3.3
				c7.7,56.8,27.5,114.8,60.8,161.8c8.9,12.5,18.9,24.3,30.3,34.7C1200.7,866.6,1209.6,857.8,1203.6,852.3L1203.6,852.3z"/>
			<path class="st21" d="M1155.4,656.3c9.1,67.8,24.1,134.6,48.9,198.5c2.9,7.5,15,4.2,12.1-3.3c-24.8-63.9-39.8-130.7-48.9-198.5
				c-0.5-3.4-4.8-5.2-7.7-4.4C1156.1,649.5,1154.9,653,1155.4,656.3L1155.4,656.3z"/>
			<path class="st21" d="M1549.1,859.6c-1.5,19.6-3.6,39.1-5.5,58.7c-0.3,3.4,3.1,6.3,6.3,6.3c3.7,0,6-2.9,6.3-6.3
				c1.9-19.5,4-39.1,5.5-58.7c0.3-3.4-3.1-6.3-6.3-6.3C1551.8,853.3,1549.4,856.2,1549.1,859.6L1549.1,859.6z"/>
			<path class="st21" d="M1576.9,876.8c10-17.4,33.3-19.6,49.3-9.7c19.3,11.9,26.7,35,26.9,56.5c0.4,38.4-21.8,73.3-52.6,95.2
				c-17.7,12.6-38.5,20.9-60.4,21.3c-8.1,0.1-8.1,12.7,0,12.6c45.4-0.8,86.9-30.9,109.4-69.2c11.5-19.5,17-41,16-63.7
				c-1.1-25.1-11.3-50.6-33.7-63.9c-21.8-13-52.6-8.3-65.8,14.6C1562,877.4,1572.9,883.8,1576.9,876.8L1576.9,876.8z"/>
			<path class="st21" d="M1607.7,913.6c-18.2,9-31.7,27.1-35.2,47.1c-0.6,3.3,0.9,6.8,4.4,7.7c3,0.8,7.1-1,7.7-4.4
				c0.4-2.2,0.9-4.4,1.5-6.6c0.3-1.1,0.7-2.3,1.1-3.4c0.2-0.5,0.4-1,0.6-1.5c0.1-0.3,0.6-1.3,0.2-0.6c1.8-4.2,4.1-8,6.8-11.7
				c0.6-0.8,0-0.1,0.4-0.5c0.3-0.4,0.7-0.8,1-1.2c0.7-0.8,1.4-1.6,2.1-2.4c1.5-1.6,3.2-3.2,4.9-4.7c0.4-0.3,0.8-0.7,1.2-1
				c1.6-1.3-0.9,0.6,0.8-0.6c0.9-0.6,1.7-1.3,2.6-1.8c2-1.3,4-2.5,6.2-3.5c3-1.5,3.9-5.8,2.3-8.6
				C1614.5,912.8,1610.7,912.1,1607.7,913.6L1607.7,913.6z"/>
			<path class="st21" d="M1538.5,972.2c0.7,47.9-16.2,93.2-47.8,129.2c-29.5,33.6-68.4,58.3-109.4,75.7c-21.3,9-43.6,16.1-66.2,21.2
				c-7.9,1.8-4.5,13.9,3.3,12.1c43.1-9.7,85.2-26.6,122.4-50.5c39.5-25.4,74.5-60,93.5-103.5c11.6-26.6,17.1-55.1,16.6-84.1
				C1551,964.1,1538.4,964.1,1538.5,972.2L1538.5,972.2z"/>
			<path class="st21" d="M1295.4,1650.1c4,34.7,6.6,69.7,11.5,104.3c1.1,7.6,5.3,11.8,12.6,13.9c8.6,2.5,17.5,4,26.4,5.1
				c17.9,2.3,36.1,2.2,54-0.5c8.6-1.3,16.9-3.7,25.5-5.1c7.7-1.3,14.8-3.7,21.6-7.7c7-4.1,0.6-15-6.3-10.8c-7,4.1-14.1,5.7-22,7
				c-9.2,1.6-18,4.2-27.3,5.2c-20.2,2.2-40.7,1.1-60.6-3.3c-4.1-0.9-10.2-0.9-11.4-5.4c-1.2-4.5-1.1-9.7-1.6-14.3
				c-1.1-9.5-2.1-19.1-3.1-28.6c-2.1-19.9-4.2-39.8-6.5-59.6C1307,1642.2,1294.4,1642.1,1295.4,1650.1L1295.4,1650.1z"/>
			<path class="st21" d="M1456.2,1628.2c-5.6,41.3-13.4,82.3-17.9,123.7c-0.9,8,11.7,8,12.6,0c4.4-40.3,12-80.2,17.4-120.4
				c0.5-3.4-0.8-6.7-4.4-7.7C1461,1623,1456.7,1624.8,1456.2,1628.2L1456.2,1628.2z"/>
			<path class="st21" d="M1153.5,1639.2c5.6,25.6,8.1,51.9,16.9,76.7c2.1,5.8,5.8,11.3,4.7,17.5c-0.9,5-1.5,10.3,2.3,14.3
				c7.5,7.8,22.3,7.2,32,6.7c8-0.4,8.1-13,0-12.6c-5.8,0.3-11.7,0.4-17.4-0.8c-1.7-0.4-3.8-0.7-5.2-1.7c-0.6-0.5-0.5-0.8-0.3-0.1
				c0.4,1.2,0.4-1.4,0.5-1.8c0.8-5.7,1.5-9.4-0.8-14.9c-2.5-6-4.7-12.2-6.6-18.4c-6.9-22.3-9.1-45.6-14.1-68.3
				C1163.9,1627.9,1151.8,1631.3,1153.5,1639.2L1153.5,1639.2z"/>
			<path class="st21" d="M1204.8,1753.4c29.8,1.7,59.8,2.7,89.7,1.8c8.1-0.3,8.1-12.8,0-12.6c-29.9,1-59.9-0.1-89.7-1.8
				C1196.7,1740.4,1196.7,1752.9,1204.8,1753.4L1204.8,1753.4z"/>
			<path class="st21" d="M1296.9,1660.3c-0.7,28.9-2.7,58.3-7.7,86.8c-1.4,7.9,10.7,11.3,12.1,3.3c5.1-29.6,7.4-60.1,8.1-90.1
				C1309.7,1652.2,1297.1,1652.2,1296.9,1660.3L1296.9,1660.3z"/>
			<path class="st21" d="M920.7,1032.8c0.9,0.3,1.7,0.6,2.6,1c1.2,0.5-1.1-0.5,0.2,0.1c0.3,0.2,0.7,0.3,1,0.5
				c1.6,0.8,3.2,1.6,4.7,2.5c1.4,0.8,3,1.7,4.2,2.9c-1.1-1.1-0.1,0,0.2,0.2c0.4,0.3,0.7,0.6,1.1,0.9c0.6,0.6,1.3,1.1,1.9,1.7
				c1.2,1.2,2.4,2.4,3.5,3.7c0.5,0.6,1.2,1.3,1.6,2c-0.8-1.3-0.1-0.1,0.1,0.2c0.3,0.4,0.5,0.7,0.8,1.1c2,2.9,3.7,6,5.1,9.3
				c1.3,3,6,3.9,8.6,2.3c3.2-2,3.6-5.3,2.3-8.6c-6.3-14.9-19.3-26.4-34.5-31.7c-3.1-1.1-7,1.2-7.7,4.4
				C915.5,1028.6,917.3,1031.7,920.7,1032.8L920.7,1032.8z"/>
			<path class="st21" d="M1402.6,1271.1c17.9,8.2,28.1,27.5,28.4,46.8c0.3,20.7-8,42.1-17.3,60.3c-3.7,7.2,7.2,13.5,10.8,6.3
				c10.6-20.8,20.4-45.8,18.9-69.6c-1.4-22.4-13.5-45.1-34.5-54.7C1401.7,1257,1395.3,1267.8,1402.6,1271.1L1402.6,1271.1z"/>
			<path class="st21" d="M1206.6,1215.2c-5.4,27.1,36.4,31.6,54.1,32.5c16.1,0.9,32.3-0.2,48.1-3.1c13.9-2.5,28.4-6.4,40.3-14.1
				c11.2-7.3,19.1-18.7,15.6-32.5c-2-7.8-14.1-4.5-12.1,3.3c0.9,3.4,0.5,6.7-0.8,9.2c-1.9,3.4-4.8,6.4-8.2,8.6
				c-10,6.6-21.5,10-33.2,12.4c-24.8,5.2-53.9,6.8-78.3-1.2c-3.8-1.3-8.9-3.6-11.1-5.8c-0.7-0.7-1.9-2.2-1.3-1.4
				c-0.2-0.3-0.4-0.6-0.6-0.9c-0.9-1.6,0.2,0.5-0.3-0.5c-0.1-0.3-0.2-0.7-0.3-1c-0.3-1.6,0,1.1-0.1-0.2c0-0.4-0.1-0.9,0-1.3
				c0.1-1.8-0.2,0.5,0.1-0.6C1220.3,1210.6,1208.2,1207.3,1206.6,1215.2L1206.6,1215.2z"/>
			<path class="st21" d="M1364,1801.8c9.5-10.1,23.7-17.4,36.6-22c17.7-6.3,38.1-7.9,53.1,5.3c6,5.3,15-3.5,8.9-8.9
				c-17.7-15.6-41.4-16.5-63-9.3c-15.7,5.2-33,13.8-44.5,26C1349.6,1798.8,1358.5,1807.7,1364,1801.8L1364,1801.8z"/>
			<path class="st21" d="M1314.5,1768.9c-0.1,13.3,0.9,26.4,10.3,36.6c11.7,12.6,30.1,20.4,46.4,24.5c18.1,4.6,36.9,4.9,55.3,2.4
				c16.4-2.2,37-5.6,42.7-23.8c6-19.2-6.8-41.3-19.1-55.2c-5.4-6.1-14.2,2.8-8.9,8.9c9,10.2,18.6,25.7,16.6,39.9
				c-2.2,15.1-22.8,16.6-34.8,18.1c-29.1,3.6-63.1-0.7-86.1-20.6c-9.5-8.2-9.9-18.9-9.8-30.8
				C1327.1,1760.9,1314.6,1760.8,1314.5,1768.9L1314.5,1768.9z"/>
			<path class="st21" d="M1319.3,1768c-0.8,6.9,2.3,13.7,7.4,18.3c5.1,4.6,11.2,7.5,17.5,10.1c3,1.2,6,2.4,8.9,3.6
				c3,1.2,7-1.3,7.7-4.4c0.8-3.6-1.1-6.4-4.4-7.7c-1.5-0.6-3.1-1.2-4.7-1.9c-0.7-0.3-1.5-0.6-2.2-0.9c-0.4-0.2-0.8-0.3-1.3-0.5
				c-0.4-0.2-2-0.9-0.1,0c-3.3-1.5-6.5-2.9-9.5-4.8c-0.7-0.5-1.4-0.9-2.1-1.4c-0.9-0.6,1.3,1,0,0c-0.3-0.3-0.7-0.6-1-0.9
				c-0.6-0.5-1.1-1-1.6-1.6c-0.3-0.3-0.5-0.6-0.8-1c1.3,1.5,0.4,0.5,0.1,0c-0.5-0.7-0.8-1.4-1.2-2.1c0.9,1.6,0.4,0.9,0.2,0.4
				c-0.1-0.4-0.3-0.8-0.4-1.2c-0.1-0.4-0.1-0.8-0.3-1.2c0.5,1.9,0.1,0.7,0.1,0c0-0.9,0-1.8,0.1-2.8c0.4-3.3-3.2-6.4-6.3-6.3
				C1321.9,1761.9,1319.7,1764.5,1319.3,1768L1319.3,1768z"/>
			<path class="st21" d="M1135.1,1406.8c-38.4,44.6-47.3,105.4-38.4,162.1c2.8,17.7,7.4,35.1,13.3,52c2.7,7.6,14.8,4.3,12.1-3.3
				c-23.1-65.4-26-146.4,21.8-201.9C1149.2,1409.6,1140.4,1400.7,1135.1,1406.8L1135.1,1406.8z"/>
			<path class="st21" d="M1114.4,1627.5c7.3,7.9,20.5,9.5,30.6,11c11.9,1.7,24.1,2.2,36,4.4c7.9,1.5,15.5,4.1,23.4,5.6
				c9.6,1.8,19.3,3,29.1,3.7c20.5,1.5,41,1,61.5,0.4c8.1-0.2,8.1-12.8,0-12.6c-19.2,0.5-38.4,1-57.6-0.1c-10-0.6-19.9-1.7-29.7-3.5
				c-7.6-1.4-15-3.9-22.5-5.4c-11.2-2.3-22.7-2.8-34-4.2c-8.3-1.1-22-1.8-27.9-8.1C1117.8,1612.7,1108.9,1621.5,1114.4,1627.5
				L1114.4,1627.5z"/>
			<path class="st21" d="M1419.5,1381.1c38.9,43.8,60.9,98.8,64.2,157.3c1.3,22.8,0.1,45.6-3,68.2c-1.1,7.9,11,11.3,12.1,3.3
				c9.5-69.9,1.1-141.9-37.5-202.3c-8-12.5-17.1-24.3-27-35.4C1423,1366.2,1414.2,1375.1,1419.5,1381.1L1419.5,1381.1z"/>
			<path class="st21" d="M1192,1783.4c6.6-7.3,16.7-8.9,26.1-7.6c5.6,0.8,11.3,2.5,16.6,4.3c3.7,1.3,7.2,2.8,8.8,6.6
				c1.4,3.1,5.9,3.8,8.6,2.3c3.2-1.9,3.6-5.5,2.3-8.6c-2.5-5.8-8.2-9.2-13.9-11.4c-6.5-2.6-13.4-4.4-20.2-5.4
				c-13.3-1.9-27.8,0.7-37.2,11C1177.7,1780.5,1186.6,1789.4,1192,1783.4L1192,1783.4z"/>
			<path class="st21" d="M1189.9,1748.1c0.1,0.3,0.1,0.6,0.2,1c-0.1-0.9-0.1-0.9,0-0.2c0.1,0.6,0.1,1.3,0.2,1.9
				c0.1,1.1,0.1,2.2,0.2,3.3c0,2.3,0,4.6-0.3,6.8c0,0.5-0.1,0.9-0.2,1.4c-0.1,0.7-0.1,0.5,0.1-0.5c0,0.3-0.1,0.5-0.1,0.8
				c-0.1,0.9-0.3,1.7-0.5,2.6c-0.3,1.4-0.7,2.8-1.2,4.1c-0.6,1.4-0.1,3.6,0.6,4.8c0.8,1.3,2.3,2.5,3.8,2.9c3.6,0.8,6.4-1.1,7.7-4.4
				c1.4-3.7,2-7.8,2.3-11.7c0.5-5.4,0.2-10.8-0.6-16.1c-0.2-1.5-1.7-3-2.9-3.8c-1.3-0.8-3.3-1.1-4.8-0.6c-1.5,0.5-3,1.4-3.8,2.9
				C1189.7,1744.9,1189.6,1746.4,1189.9,1748.1L1189.9,1748.1z"/>
			<path class="st21" d="M1180.5,1777.5c-5.1,4.6-7.9,11.6-8,18.4c0,7.6,4.1,13.8,10,18.3c13.4,10.2,32.7,11,48.8,9.7
				c17.4-1.3,35.4-4.4,52.5-8.1c10.6-2.3,20.7-7.4,24.6-18.2c2.2-6,2-12.6,1.3-18.9c-1.2-11.1-2.8-22.2-4.2-33.3
				c-1-7.9-13.6-8-12.6,0c1.3,10.2,2.6,20.4,3.8,30.6c0.7,5.6,1.7,11.9-0.2,17.4c-3.8,10.6-19.3,10.8-28.5,12.4
				c-18,3-36.2,7.2-54.6,5.7c-8.3-0.7-18.2-2.5-24.6-8.2c-5.4-4.8-4.8-12.1,0.4-16.9C1195.4,1781,1186.5,1772.1,1180.5,1777.5
				L1180.5,1777.5z"/>
			<path class="st21" d="M1252.6,1791.4c16.2,0.2,32.4-1.5,48.2-5c3.3-0.7,5.3-4.6,4.4-7.7c-0.9-3.4-4.4-5.1-7.7-4.4
				c-14.7,3.3-29.7,4.8-44.8,4.6c-3.4-0.1-6.3,2.9-6.3,6.3C1246.3,1788.5,1249.2,1791.3,1252.6,1791.4L1252.6,1791.4z"/>
			<path class="st21" d="M820.6,726.9c-7.6,66.6,0.8,137.1,27,199c7.3,17.2,16.1,33.8,26.8,49.1c4.6,6.6,15.5,0.3,10.8-6.3
				c-37.6-53.9-53-122-54.5-186.9c-0.4-18.3,0.4-36.7,2.4-54.9C834.1,718.8,821.5,718.9,820.6,726.9L820.6,726.9z"/>
			<path class="st21" d="M855.5,646.9c23.5-52.4,59.9-97.8,104.6-133.7c44.9-36.2,97.8-62.4,153.2-78.1c56.3-16,115.7-21.3,173.9-15
				c58.7,6.4,116.1,25.3,166.5,56.2c54.8,33.6,99.9,81.1,132.5,136.3c4.4,7.4,8.6,15,12.5,22.7c3.7,7.2,14.6,0.8,10.8-6.3
				c-30.8-59.6-74.7-112-129.8-150.6c-50.1-35.1-108.5-58-168.8-67.7c-59.8-9.6-121.2-7.1-180.1,6.8c-57.8,13.6-113.4,38.2-161.6,73
				c-47.4,34.3-87.7,78.5-115,130.4c-3.4,6.4-6.6,13-9.5,19.6C841.4,647.9,852.2,654.3,855.5,646.9L855.5,646.9z"/>
			<path class="st21" d="M1611.4,660.8c4.8,62.9,5.9,126.2-12.4,187.3c-2.3,7.8,9.8,11.1,12.1,3.3c18.6-62.1,17.7-126.6,12.8-190.6
				C1623.4,652.8,1610.8,652.7,1611.4,660.8L1611.4,660.8z"/>
			<path class="st21" d="M902.5,931.5c5.3-69.6,38.9-134.6,87.4-184.1c40.6-41.4,91.3-73.2,148.2-85.8
				c50.3-11.1,103.3-10.5,153.9-2.1c55.5,9.2,109.7,27.8,158.1,56.6c48.5,28.9,90.8,68.6,118.9,117.9c3.5,6.1,6.7,12.3,9.8,18.7
				c3.5,7.3,14.3,0.9,10.8-6.3c-25.6-53.3-66.8-97.3-115.7-130.1c-48.4-32.4-104.1-54.1-161.1-65.7c-53.3-10.8-108.8-13.3-162.5-4.1
				c-23.5,4-46.5,10.5-68.2,20.3c-30.8,13.8-59.3,33.5-84.4,55.9c-53,47.3-92.6,111.6-104.5,182.2c-1.5,8.9-2.6,17.8-3.3,26.7
				C889.4,939.6,901.9,939.5,902.5,931.5L902.5,931.5z"/>
			<path class="st21" d="M823,830c-36,10.2-76.3-0.4-103.8-25.6c-28.3-26-38.5-65.8-29.5-102.8c5-20.9,15.8-39.8,31.6-54.4
				c2.4-2.2,2.5-6.7,0-8.9c-63.1-54.9-51.5-152.1-30-223.7c25.6-85.1,74.1-168.6,153.4-213.5c37.9-21.5,81.5-33.7,125.3-32.2
				c10.7,0.4,21.4,1.6,31.9,3.7c11,2.2,21.3,6.3,32,9.1c11.6,3,21.9,0.5,30.8-7.6c7.6-7,13.6-15.6,20.9-22.9
				c58-58.4,147.8-83.9,227.6-63.1c77.9,20.3,142.4,83.7,166.1,160.4c2.9,9.3,5.1,18.7,6.8,28.3c0.6,3.3,4.7,5.3,7.7,4.4
				c56-17.7,119-1.2,161.6,38.6c40.1,37.4,65.3,95.2,61.9,150.4c-1.7,27.7-11.9,56.7-36.3,72.1c-4.3,2.7-3.8,8.1,0,10.8
				c24.7,18.1,34.3,52.6,26.3,81.6c-2,7.2-5.1,14-9.3,20.2c-4.9,7.2-11.4,13.1-16.6,20.1c-6,8.1-8.1,16.6-8.3,26.5
				c-0.2,9.1-1.7,17.8-5.9,26c-7.9,15.6-24.9,30-43.1,21.7c-7.3-3.4-13.7,7.5-6.3,10.8c17.8,8.2,36.6,2.9,49.8-11.2
				c6.7-7.2,11.6-15.8,14.7-25.1c1.5-4.5,2.4-9.2,2.9-13.9c0.7-6.2-0.2-12.6,1.6-18.6c3-9.8,12-16.9,18.2-24.7
				c5.5-7,9.7-14.8,12.7-23.2c5.9-16.6,6.2-35.2,2-52.2c-4.9-19.6-16.1-36.9-32.4-48.8c0,3.6,0,7.2,0,10.8
				c50.6-31.9,48.9-103.8,32.3-154.1c-19.5-59.4-64.2-109.3-124.4-128.8c-33.8-11-70.8-11.9-104.8-1.1c2.6,1.5,5.1,2.9,7.7,4.4
				c-14.4-82.4-73.5-154.5-150.4-186.8c-78.8-33.1-173.1-19.4-241.8,30.7c-8.9,6.5-17.4,13.5-25.4,21.2
				c-7.7,7.4-14.2,15.5-21.4,23.3c-3.4,3.7-7.5,7.7-12.7,8.6c-6.1,1.1-12.4-1.8-18.1-3.7c-11-3.7-22.3-6.5-33.8-8.2
				c-44.7-6.6-90.2,1.2-131.5,19.2C776.8,215.6,720,296.4,688.7,382.6c-14.9,41-25.7,84.3-26.7,128.1c-1,39.8,6.4,82,30.5,114.7
				c5.9,8,12.5,15.3,20,21.8c0-3,0-5.9,0-8.9c-31.3,28.6-44.3,73.8-35.9,115.1c8.5,41.8,40.9,74.3,81.1,87.2
				c22.2,7.1,46.3,7.9,68.8,1.6C834.1,839.9,830.8,827.8,823,830L823,830z"/>
			<path class="st21" d="M905.7,381.8c4.7,44.1,26.1,85.4,60,114.1c6.1,5.2,15.1-3.7,8.9-8.9c-31.3-26.4-52-64.4-56.4-105.2
				C917.4,373.9,904.8,373.8,905.7,381.8L905.7,381.8z"/>
			<path class="st21" d="M902.8,484.9c11.5,11.9,26.6,20.3,42.8,23.6c3.2,0.7,6.9-0.9,7.7-4.4c0.7-3.1-0.9-7-4.4-7.7
				c-3.6-0.8-7.2-1.7-10.7-3c-0.9-0.3-1.8-0.7-2.7-1.1c-1-0.4,0.7,0.3-0.3-0.1c-0.4-0.2-0.8-0.4-1.2-0.5c-1.8-0.8-3.5-1.7-5.3-2.6
				c-6.9-3.8-11.7-7.5-17.1-13c-2.3-2.4-6.6-2.5-8.9,0C900.5,478.6,900.4,482.4,902.8,484.9L902.8,484.9z"/>
			<path class="st21" d="M1391.2,378.6c-0.2,18.6-4.9,36.9-13.8,53.3c-3.8,7.1,7,13.5,10.8,6.3c9.9-18.3,15.3-38.8,15.5-59.6
				C1403.9,370.5,1391.3,370.5,1391.2,378.6L1391.2,378.6z"/>
			<path class="st21" d="M1449.4,467.9c33.7-15.2,60.1-43.9,73.4-78.2c1.2-3.2-1.3-6.9-4.4-7.7c-3.5-1-6.5,1.2-7.7,4.4
				c-12.1,31.4-37,56.9-67.6,70.7c-3.1,1.4-3.8,5.9-2.3,8.6C1442.6,468.8,1446.3,469.3,1449.4,467.9L1449.4,467.9z"/>
			<path class="st21" d="M1547.2,543.3c18.3-8.5,32.4-24.8,38.8-43.8c1-3.1-1.2-7-4.4-7.7c-3.5-0.8-6.6,1-7.7,4.4
				c-0.4,1.1-0.7,2.1-1.1,3.1c-0.1,0.2-0.7,1.7-0.5,1.2c0.3-0.6-0.4,0.8-0.4,0.9c-0.9,2-2,4-3.1,5.9c-1.1,1.9-2.4,3.8-3.7,5.6
				c-0.1,0.1-1,1.3-0.6,0.8c0.3-0.4-0.7,0.9-0.8,1c-0.7,0.9-1.4,1.7-2.2,2.5c-1.5,1.7-3.1,3.2-4.7,4.7c-0.7,0.7-1.5,1.3-2.3,2
				c-0.5,0.4-0.9,0.8-1.4,1.1c0.8-0.6-0.5,0.4-0.7,0.5c-3.6,2.6-7.5,4.9-11.5,6.8c-3,1.4-4,5.9-2.3,8.6
				C1540.6,544.1,1544,544.8,1547.2,543.3L1547.2,543.3z"/>
			<path class="st21" d="M784.4,602.6c11.2,19.5,29.3,34.3,50.4,41.9c3.2,1.2,6.9-1.3,7.7-4.4c1-3.5-1.2-6.6-4.4-7.7
				c-17.8-6.4-33.3-19.5-42.9-36.1C791.2,589.3,780.3,595.6,784.4,602.6L784.4,602.6z"/>
			<path class="st21" d="M764,685.7c20.2,5.8,42,3.6,60.8-5.7c3-1.5,3.9-5.8,2.3-8.6c-1.8-3.1-5.5-3.8-8.6-2.3
				c-15.8,7.8-34.2,9.3-51.1,4.5C759.6,671.4,756.2,683.5,764,685.7L764,685.7z"/>
			<path class="st21" d="M1641.1,620.6c9.4-13.5,18.8-27,28.3-40.4c1.9-2.7,0.6-7.1-2.3-8.6c-3.2-1.7-6.6-0.6-8.6,2.3
				c-9.4,13.5-18.8,27-28.3,40.4c-1.9,2.7-0.6,7.1,2.3,8.6C1635.7,624.5,1639.1,623.5,1641.1,620.6L1641.1,620.6z"/>
			<path class="st21" d="M1637.9,639.6c11.4,3.7,24.3,2,34.4-4.4c2.8-1.8,4.1-5.7,2.3-8.6c-1.8-2.8-5.6-4.1-8.6-2.3
				c-1.1,0.7-2.2,1.3-3.3,1.9c-0.3,0.1-2.2,1.1-0.7,0.4c-0.4,0.2-0.9,0.4-1.3,0.5c-1.2,0.4-2.4,0.8-3.7,1.1
				c-0.6,0.2-1.3,0.3-1.9,0.4c-0.2,0-2.1,0.3-1.1,0.2c1-0.1-0.9,0.1-1.1,0.1c-0.6,0-1.3,0.1-1.9,0.1c-1.2,0-2.4,0-3.6-0.1
				c-0.4,0-2.2-0.1-0.5,0c-0.6,0-1.3-0.2-1.9-0.3c-1.3-0.3-2.5-0.6-3.7-1c-3.1-1-7,1.2-7.7,4.4
				C1632.8,635.3,1634.6,638.5,1637.9,639.6L1637.9,639.6z"/>
			<path class="st22" d="M1057,1096.6c7.4-10.2,14.9-20.4,22.3-30.5c1.9-2.7,0.5-7.1-2.3-8.6c-3.3-1.7-6.5-0.6-8.6,2.3
				c-7.4,10.2-14.9,20.4-22.3,30.5c-1.9,2.7-0.5,7.1,2.3,8.6C1051.7,1100.6,1055,1099.5,1057,1096.6L1057,1096.6z"/>
			<path class="st22" d="M1088,1090.6c7.9-7.1,14.5-15.8,19.4-25.2c1.5-2.9,0.9-6.9-2.3-8.6c-2.9-1.5-7-0.9-8.6,2.3
				c-1.1,2.2-2.3,4.3-3.6,6.4c-0.7,1-1.3,2.1-2,3.1c-0.4,0.6-0.8,1.1-1.2,1.7c-0.2,0.2-0.3,0.4-0.5,0.7c-0.1,0.2-0.9,1.1-0.3,0.3
				c0.6-0.7,0,0-0.1,0.2c-0.2,0.3-0.4,0.5-0.6,0.8c-0.4,0.5-0.8,1-1.2,1.4c-0.8,0.9-1.6,1.9-2.4,2.8c-1.7,1.9-3.5,3.6-5.4,5.3
				c-2.4,2.2-2.4,6.7,0,8.9C1081.7,1093,1085.4,1093,1088,1090.6L1088,1090.6z"/>
			<path class="st22" d="M1438.2,1037.4c8.1-11,16.2-21.9,24.2-32.9c2-2.7,0.5-7.1-2.3-8.6c-3.3-1.7-6.5-0.6-8.6,2.3
				c-8.1,11-16.2,21.9-24.2,32.9c-2,2.7-0.5,7.1,2.3,8.6C1432.9,1041.4,1436.1,1040.2,1438.2,1037.4L1438.2,1037.4z"/>
			<path class="st22" d="M1464.7,1037.6c8.6-9.9,16.4-20.6,23.2-31.9c1.7-2.8,0.7-7-2.3-8.6c-3-1.6-6.8-0.8-8.6,2.3
				c-3.2,5.3-6.6,10.5-10.2,15.6c-0.9,1.2-1.8,2.4-2.7,3.6c-0.2,0.3-0.5,0.6-0.7,0.9c-0.3,0.4-0.4,0.6-0.1,0.1
				c-0.5,0.6-0.9,1.2-1.4,1.8c-2,2.5-4,5-6.2,7.4c-2.2,2.5-2.6,6.5,0,8.9C1458.2,1039.8,1462.4,1040.3,1464.7,1037.6L1464.7,1037.6z
				"/>
			<path class="st21" d="M1261.5,1218.9c2.3,2.3,3.4,5.5,5.2,8.2c1.9,3,4.3,5.7,6.8,8.2c4.6,4.5,9.2,8.3,12.2,13.9
				c1.3,2.5,4.5,3.5,7.1,2.9c7.6-1.9,12.8-8.3,16.7-14.7c5.1-8.3,8.8-17.5,13.2-26.2c1.5-3,0.8-6.8-2.3-8.6
				c-2.8-1.6-7.1-0.8-8.6,2.3c-4,8.1-7.6,16.4-12.1,24.3c-0.9,1.6-1.8,3.1-2.8,4.6c-1.1,1.6-1,1.6-2.4,3c-0.5,0.5-1,0.9-1.5,1.4
				c-0.6,0.5-0.6,0.5,0,0.1c-0.3,0.2-0.6,0.4-0.9,0.6c-0.6,0.4-1.2,0.7-1.8,1c1.4-0.6-0.6,0.1-0.9,0.2c2.4,1,4.7,1.9,7.1,2.9
				c-3.4-6.4-8.5-11-13.6-16c-2.3-2.2-4.1-4.2-5.7-6.8c-2.2-3.5-3.7-7.2-6.7-10.1C1264.6,1204.4,1255.7,1213.2,1261.5,1218.9
				L1261.5,1218.9z"/>
			<path class="st21" d="M1313.9,1263c7.4,1.1,14.8,2.1,22.1,3.2c2.8,0.4,6.9,0.3,9.5,1.4c1.5,0.7,1,0.1,1.6,1.5c0.5,1.1,0,3,0,4.2
				c-0.1,15.1-0.6,30.2-1.2,45.2c-1.3,29.8-3.7,59.5-7,89.1c-0.9,8,11.7,8,12.6,0c3.7-33.1,6.2-66.4,7.4-99.7
				c0.3-8.1,0.5-16.1,0.7-24.2c0.1-6.7,1.6-15.3-1.4-21.6c-3.3-6.6-10.3-7-16.8-7.9c-8-1.2-16.1-2.3-24.1-3.5
				C1309.3,1249.7,1305.9,1261.8,1313.9,1263L1313.9,1263z"/>
			<path class="st21" d="M952.8,1005.8c-1,36-12.6,69.9-26.5,102.7c-6.6,15.7-13.1,31.8-13.8,49.1c-0.6,14.1,3,28.3,9.4,40.8
				c7.4,14.4,19,26.5,33.1,34.4c7.1,3.9,13.4-6.9,6.3-10.8c-23.5-13.2-38.2-39.7-36.1-66.7c1.2-16.3,8.3-31.7,14.6-46.6
				c6.4-15.2,12.3-30.6,16.7-46.5c5.1-18.4,8.3-37.3,8.8-56.4C965.5,997.7,953,997.7,952.8,1005.8L952.8,1005.8z"/>
			<path class="st21" d="M972.3,1070.5c-20.5,23.2-42.5,48.5-48.1,80c-5.3,29.5,4.6,60.4,25.8,81.4c5.7,5.7,14.6-3.2,8.9-8.9
				c-18.8-18.6-27.7-46.6-21.9-72.6c6.2-27.9,25.8-50.2,44.2-71.1C986.5,1073.4,977.7,1064.5,972.3,1070.5L972.3,1070.5z"/>
			<path class="st21" d="M1547.4,951c6.2,35.2,22,67.5,35.3,100.4c6.5,16.1,12.9,32.8,16.2,49.9c1.7,8.8,2.1,18.4-1.8,26.7
				c-3.3,7.2-8.9,12.9-14.7,18c-14.8,13-32.9,21.5-52.1,25.5c-7.9,1.7-4.6,13.8,3.3,12.1c18.1-3.8,35.3-11.5,50.1-22.7
				c14-10.5,26.5-23.7,28.5-41.8c2.2-18.9-5.3-38.8-11.7-56.3c-6.6-17.9-14.4-35.4-21.6-53c-8.2-20.2-15.6-40.7-19.4-62.3
				C1558.1,939.7,1546,943,1547.4,951L1547.4,951z"/>
			<path class="st21" d="M1540,1021.8c9.5,14.4,18.3,29.2,26.3,44.4c7.4,14.2,15.1,28.9,19.6,44.4c3.8,13.4,4.5,28.8-6.9,38.7
				c-9.8,8.5-24.1,10.6-36.4,12.6c-8,1.3-4.6,13.4,3.3,12.1c14.3-2.3,29.4-5.4,40.9-14.9c13-10.8,15.9-27.4,13.2-43.4
				c-3-17.4-11.7-34-19.6-49.7c-8.8-17.4-18.7-34.3-29.5-50.6C1546.4,1008.7,1535.5,1015,1540,1021.8L1540,1021.8z"/>
			<path class="st21" d="M1512.5,790.2c11.7,2.4,22.2,8.1,33.8,10.5c3.2,0.7,6.9-0.9,7.7-4.4c0.7-3.1-0.9-7-4.4-7.7
				c-11.7-2.4-22.2-8.1-33.8-10.5c-3.2-0.7-6.9,0.9-7.7,4.4C1507.4,785.6,1509.1,789.5,1512.5,790.2L1512.5,790.2z"/>
			<path class="st21" d="M939.6,872.7c-10.5,11.1-20.9,22.2-31.4,33.2c-2.3,2.4-2.5,6.5,0,8.9c2.4,2.2,6.5,2.6,8.9,0
				c10.5-11.1,20.9-22.2,31.4-33.2c2.3-2.4,2.5-6.5,0-8.9C946,870.4,942,870.1,939.6,872.7L939.6,872.7z"/>
			<path class="st21" d="M1095.8,666c-0.5,62,21.8,126.8,65.2,171.9c0.6,0.6,1.7-0.1,1.1-0.8c-19.6-23.9-36.1-50-47.2-78.9
				c-11.2-29.3-16.9-60.5-16.6-91.8C1098.2,664.7,1095.8,664.4,1095.8,666L1095.8,666z"/>
			<path class="st21" d="M1065.7,696.4c-24.4,58.3-63,111.1-111.3,151.9c-13.5,11.4-27.8,21.9-42.6,31.4c-0.9,0.6,0.1,1.8,1,1.2
				c54.5-32.8,100.9-80.1,132.6-135.3c8.9-15.5,16.6-31.6,23.2-48.2C1069.3,695.7,1066.5,694.6,1065.7,696.4L1065.7,696.4z"/>
			<path class="st21" d="M1239.6,657.6c69.1,52.6,148.1,91.2,232.3,112.5c11.4,2.9,22.8,5.5,34.3,7.9c12.2,2.5,24.6,5.3,37,6.3
				c1.2,0.1,1.4-1.6,0.2-1.9c-10.4-2.4-21.1-3.7-31.6-5.8c-11-2.2-21.9-4.7-32.7-7.5c-20.7-5.4-41.1-11.9-61.1-19.2
				c-40.3-14.8-79.4-32.7-116.5-54.4c-20.8-12.2-41-25.5-60.5-39.8C1239.8,654.9,1238.4,656.7,1239.6,657.6L1239.6,657.6z"/>
			<path class="st21" d="M1518.5,808.7c18.1,8.1,37.7,14.5,57.7,15.8c1.5,0.1,1.8-2.1,0.3-2.3c-19.5-3.8-38.7-8-57.1-15.6
				C1517.9,805.9,1517.1,808.1,1518.5,808.7L1518.5,808.7z"/>
			<path class="st21" d="M1555.9,962.3c17.8,29.4,34.2,59.7,49,90.8c7.3,15.3,16.4,31.4,18.9,48.4c2.2,15-3.8,27.5-13.9,38
				c-9.9,10.2-21.9,18.2-30.4,29.7c-1.3,1.7,1.3,3.6,2.7,2c16.5-19,46.3-32.8,47-61.2c0.4-17.2-8.3-33.4-15.5-48.6
				c-7.8-16.4-16-32.6-24.7-48.5c-9.7-17.8-20-35.3-30.7-52.5C1557.3,958.7,1554.9,960.6,1555.9,962.3L1555.9,962.3z"/>
			<path class="st21" d="M959.9,1011c-4.8,36.7-38.2,60.4-54.9,91.4c-16.4,30.5-20.5,69.7,2.4,98.2c10.8,13.4,26.3,22.8,43.7,23.5
				c2.1,0.1,2.6-3.1,0.4-3.3c-34.8-2.7-57.3-36.5-56.4-69.5c0.5-18.8,7.1-37.3,16.8-53.2c8.7-14.2,19.9-26.6,29.8-40
				c10.4-14,19.3-29.2,21.4-46.7C963.3,1009.3,960.1,1008.9,959.9,1011L959.9,1011z"/>
			<g>
				<g>
					<path class="st21" d="M1322.2,1282.7c-16.1-0.8-17.4,24.2-1.3,25.1C1337,1308.6,1338.3,1283.5,1322.2,1282.7z"/>
					<path class="st21" d="M1273.7,1281.4c-16.1-0.8-17.4,24.2-1.3,25.1C1288.5,1307.3,1289.8,1282.2,1273.7,1281.4z"/>
				</g>
				<g>
					<path class="st21" d="M1320.1,1323.8c-16.1-0.8-17.4,24.2-1.3,25.1C1334.9,1349.7,1336.2,1324.7,1320.1,1323.8z"/>
					<path class="st21" d="M1271.6,1322.6c-16.1-0.8-17.4,24.2-1.3,25.1C1286.4,1348.5,1287.8,1323.4,1271.6,1322.6z"/>
				</g>
				<g>
					<path class="st21" d="M1318,1363.8c-16.1-0.8-17.4,24.2-1.3,25.1C1332.9,1389.6,1334.2,1364.6,1318,1363.8z"/>
				</g>
			</g>
			<path class="st21" d="M1287.9,1599.7c11.3-7.1,22.4-14.5,33.4-22.2c10.9-7.7,22.7-15.2,31.4-25.5c3.6-4.3-0.6-10.9-6-8.2
				c-11.8,6-22,15-32.5,22.9c-10.5,7.8-21.2,15.2-32,22.4c-2.7,1.8-4,5.1-2.3,8.1C1281.3,1600,1285.2,1601.4,1287.9,1599.7
				L1287.9,1599.7z"/>
			<path class="st21" d="M1304.9,1559.4c1.9-1.6,3.8-3.2,5.7-4.7c0.5-0.4,1.1-0.8,1.6-1.2c-0.4,0.3,0,0,0.2-0.1
				c0.2-0.2,0.5-0.3,0.7-0.5c1-0.7,2.1-1.5,3.2-2.2c2.1-1.4,4.3-2.5,6.3-3.9c2.1-1.4,4.2-2.9,6.4-4.3c1.5-1,2.3-2.8,1.6-4.5
				c-0.6-1.5-2.5-2.8-4.2-2.2c-2.6,0.9-5.3,1.9-7.9,3c-2.4,1-4.6,2.6-6.8,4.1c-4.6,3-9,6.4-13.1,10c-1.8,1.6-1.9,4.7-0.1,6.4
				C1300.4,1561,1303,1561.1,1304.9,1559.4L1304.9,1559.4z"/>
			<path class="st21" d="M1179.5,654.1c0.6,33.4,5,66.6,13.6,98.8c8.2,30.7,19.1,62.6,36.1,89.7c0.6,1,2.1,0,1.7-1
				c-6.4-14.7-13.5-29-19.3-44c-6.2-15.7-11.4-31.7-15.7-48c-8.2-31.4-13-63.5-14.1-95.9C1181.8,652.3,1179.5,652.6,1179.5,654.1
				L1179.5,654.1z"/>
			<path class="st21" d="M1154.5,741.1c9.8,38.6,25.4,78.2,49.5,110.2c0.9,1.1,2.4-0.2,1.7-1.3c-10.2-17.3-20.4-34.4-28.7-52.7
				c-8.3-18.2-15-37.2-20.2-56.5C1156.4,739.4,1154.1,739.7,1154.5,741.1L1154.5,741.1z"/>
		</g>
		<path class="st21" d="M1209.7,1009.1c13.9,18,38,26.7,60.1,20.4c10.2-2.9,20.3-8.4,27.4-16.4c7.8-8.8,11.9-18.9,12.8-30.7
			c0.4-5.3-7.5-6.1-9-1.3c-5.1,16.1-18.8,29.9-35.2,34.3c-17.9,4.7-35.3-0.5-47.4-14.6C1213.3,994.9,1205.1,1003.1,1209.7,1009.1
			L1209.7,1009.1z"/>
		<path class="st21" d="M1169.1,1325.1c8.1,4.4,15.6,10,23.2,15.1c7.6,5.1,15.2,10.7,23.2,15.1c3,1.6,6.8,0.7,8.6-2.3
			c1.7-2.9,0.7-7-2.3-8.6c-8.1-4.4-15.6-10-23.2-15.1c-7.6-5.1-15.2-10.7-23.2-15.1c-3-1.6-6.8-0.7-8.6,2.3
			C1165.1,1319.4,1166.1,1323.5,1169.1,1325.1L1169.1,1325.1z"/>
		<path class="st21" d="M1166.5,1208.9c-21.4,4.5-38,21.8-50.6,38.6c-14.3,19.2-25.4,41.7-31.3,64.9c-5.5,21.9-4.4,45.1,7.5,64.9
			c12.7,21.1,35.1,33.6,57.3,42.3c12.7,5,26.8,6.6,40.3,7.7c12.3,1,25,1.7,37.3,0.1c7.9-1,8-13.6,0-12.6c-20.7,2.6-43.8,0.7-64-4.2
			c-20.1-4.9-41.8-16.5-55.1-32.6c-28.2-34.3-8.6-82.7,12.5-115.1c11.5-17.6,27.8-37.4,49.4-42
			C1177.7,1219.3,1174.4,1207.2,1166.5,1208.9L1166.5,1208.9z"/>
		<path class="st21" d="M1150,1343.7c0.7-1.1,1.4-2.3,2.2-3.3c0.4-0.6,0.8-1.1,1.2-1.7c-0.3,0.4-0.8,1-0.2,0.2
			c0.2-0.2,0.4-0.5,0.6-0.7c1.7-2,3.6-3.9,5.6-5.7c0.5-0.4,1-0.8,1.4-1.2c0.2-0.2,0.5-0.4,0.7-0.6c0.6-0.5-1.1,0.8-0.2,0.2
			c1.1-0.8,2.2-1.5,3.3-2.2c2.3-1.4,4.7-2.7,7.2-3.8c1.3-0.6,2.5-2.4,2.9-3.8c0.4-1.5,0.2-3.5-0.6-4.8c-0.9-1.3-2.2-2.5-3.8-2.9
			c-1.8-0.4-3.2-0.1-4.8,0.6c-10.9,4.7-20.2,13.1-26.3,23.3c-1.7,2.8-0.7,7,2.3,8.6C1144.5,1347.6,1148.2,1346.7,1150,1343.7
			L1150,1343.7z"/>
		<path class="st21" d="M1369.1,1201.1c19.7,2.5,39.3,5.8,58.6,10.7c7.8,2,11.2-10.1,3.3-12.1c-20.3-5.2-41.1-8.4-61.9-11.1
			c-3.4-0.4-6.3,3.2-6.3,6.3C1362.8,1198.6,1365.7,1200.7,1369.1,1201.1L1369.1,1201.1z"/>
		<path class="st21" d="M1173.6,1283.2c-1.8,10.5-4.7,20.7-8.7,30.6c-1.2,3,1.3,7,4.4,7.7c3.6,0.8,6.4-1.1,7.7-4.4
			c4-9.9,7-20.1,8.7-30.6c0.6-3.2-0.9-6.9-4.4-7.7C1178.3,1278.1,1174.2,1279.7,1173.6,1283.2L1173.6,1283.2z"/>
		<path class="st21" d="M1298.9,1650.7c18.3,4.4,37.2,5.6,56,5.9c16.2,0.2,32.3,0.1,48.4-2.3c30.7-4.5,60.8-16.1,85-35.7
			c6.3-5.1-2.7-13.9-8.9-8.9c-22.5,18.2-51.1,28.4-79.5,32.5c-14.9,2.2-30,2-45,1.8c-17.7-0.3-35.3-1.4-52.6-5.5
			C1294.4,1636.7,1291.1,1648.8,1298.9,1650.7L1298.9,1650.7z"/>
	</g>
	<g>
		<path class="st3" d="M1516,1081.7c-6.7-2.1-13.4-4.1-20.4-4.6c-8.1-0.5-17.6,0.7-23.7,6.5c-2.9,2.7-4.6,6.1-5.3,9.9
			c-1,5.8,1.9,11.3,1,17.2c-0.7,4.3-4,7.6-4.7,12c-0.7,4.9-0.4,9.4-1.5,14.1c3.5,8.3,10,15.2,19.4,18.2c17.5,5.6,36.9-6.8,45.6-21.6
			c5.4-9.2,7-20.7,4.2-30.8C1529.3,1093.7,1523.6,1086.2,1516,1081.7z"/>
		<path class="st3" d="M1279.2,1386.6c-22.3-2.7,1.1-9.3,3-19.9c0.9-4.7-1.5-9.1-6-10.9c-13.1-5.2-17.1,18-30-10.3
			c-2.9-6.3-1-9.6-8.4-12.9c-1.2-0.5-3.2-0.2-3.9,1c-4.5,7.5-6.1,15.1-11.2,21.5c-2.1-0.2-4.3,0.9-4.8,3.6c-0.1,0.4-0.1,0.8-0.2,1.2
			c-0.2,0.1-0.3,0.3-0.5,0.4c-2.1,1.5-1.6,3.8-0.2,5c-2.2,23.3,1.4,59.9,28,62.8c18.6,2,45.9-6.5,30.9-25.4c2.1-3,4-6.1,6-9.2
			C1283.8,1391,1282.7,1387,1279.2,1386.6z"/>
		<path class="st4" d="M1512.7,1145.4c-0.3-0.4-0.6-0.7-0.9-1c-3.7-3.6-9-5.3-13.9-7.2c-5.4-2-11-5-13.1-10.3
			c-1.5-3.8-0.9-8.2-0.3-12.3c1.4-9.3,2.9-18.5,4.3-27.8c0.3-2.1,0.6-4.4-0.7-6.1c-2.3-3.2-7.5-1.4-10.2,1.4
			c-4,4.1-6.3,9.7-6.2,15.4c0,2.6,0.5,5.3-0.4,7.8c-0.6,1.7-1.7,3-3.1,4c-1.8,4.8-3.5,9.7-4.7,14.7c4.8,18.8,21.7,34,40.9,36.7
			c2.3,0.3,4.8,0.5,6.9-0.6C1516.4,1157.8,1516.4,1149.8,1512.7,1145.4z"/>
		<path class="st4" d="M1274.8,1388.1c-10.1,6.7-17.8,10.5-30.1,9.5c-9.4-0.8-18.5-2.2-27.9-0.7c-8.8,1.5-2,25.4,6.8,25
			c14.3-0.5,26.9,3.8,41.5,1c10.8-2.1,15.4-16.8,20-26.9C1287.8,1389.7,1280,1384.6,1274.8,1388.1z"/>
		<path class="st2" d="M1435.8,1198.6c-9.2,5.2-21.3,14.7-23.9,26c38.6,7.5,77.3,14.3,116.1,20.5c1.1-0.9,2.1-1.9,3.1-2.9
			c0,0,0.1,0,0.1,0c19.7-5.6,33.5-38.1,27.9-56.4c-1.1-3.4-3.1-6.3-4.6-9.5c-0.9-1.9-1.6-3.7-2.2-5.3c-0.7-4.9-1.4-9.8-2-14.6
			c0.6-4.9,2.2-9.7,2.4-17.9c0.2-12.7-4.9-22.1-12.3-32c-2.8-3.7-10.4-2.6-10.5,2.7c-0.1,13.9-4,26.5-13.5,36.9
			c-11.7,12.9-22.8,10.5-37.3,15.6c0,0-0.1,0-0.1,0c-8.5,1.2-16.5,8.2-18.1,16.7c-0.1,0.3-0.1,0.7-0.1,1c-8,2-15.6,6.2-22.6,11.4
			C1439.4,1193.4,1439,1196.7,1435.8,1198.6z"/>
		<path class="st23" d="M1593.3,1278.4c-4.3-17.9-19.4-24.5-35.2-30.6c-22.5-8.7-46.1-14.8-69.9-18.9c-48.5-8.3-98-7-146.8-2.1
			c-40.1,4.1-93.6,5.5-121.4,39.2c0,0.1-0.1,0.1-0.1,0.2c-3.5-2.2-9.2-1.1-9.8,4.3c-3.3,26.9-0.7,49.8,4.6,76.2
			c0.9,4.2,7.6,6.2,9.1,1.3c2.8-8.9,0.8-10.4,12.3-8c11.8,2.4,8.7,3.2,9,13.7c0,1.8,2,3.7,3.8,3.8c5.6,0.4,10.8,0.7,16.5,0.3
			c16.2-1.1,17.5,9.6,7,21.4c-1.3,1.5,0.2,3.6,2,3.5c11.8-1,2.4,28.8,5.8,35.9c5,10.4,23,17.5,32.9,21.7c30.4,12.6,63.7,9,96.2,10
			c36.1,1,62.9-8.7,98.1-22.4c20.1-7.9,42.3-16.7,54-34.9C1585.8,1365,1601.9,1314,1593.3,1278.4z"/>
		<path class="st24" d="M1276.9,1316.5c61.2,14.4,123.5,19.3,186,12.8c23.2-2.4,46.8-5.6,69.5-11.4c15.6-4,34.8-9.8,45.2-23.3
			c-0.3-0.2,7.8-8.8,7.6-9c-27.9-27.2-76.8-31.1-113.6-35.6c-44.3-5.3-89.4-5.5-133.6,1.1c-33,4.9-65.6,13.6-95.7,28.1
			c-9.7,4.7-19.3,10.3-20.1,21.6c6.1,5.4,16.6,7.5,23.7,9.2C1256.2,1312.6,1266.7,1314.1,1276.9,1316.5z"/>
		<path class="st25" d="M1554.1,1380.7c-41.3,30.8-85.9,41.3-137,36c-12.1-1.2-24.7-3.2-37.4-5.8c-7.1-2.1-14.4-3.7-21.7-5.2
			c-27.9-7.6-55.1-19-77.2-35c-3-2.1-7.4,1.7-4.8,4.7c0.6,0.7,1.2,1.3,1.9,1.9c-1.8,0.3-3.7,0.7-5.5,1c-3.4,0.6-5.1,6.3-1,7.5
			c9.5,2.6,12,6.3,12.2,10.6c-0.4,1.2-0.5,2.5-0.3,3.8c-0.7,4.6-2.3,9.7-0.5,15c2.3,6.6,8.1,8.7,14.3,11.6
			c26.7,12.4,56.2,15.5,85.1,18.5c55.9,5.9,109.1-6.5,156-38.1c1.6-1.1,1.4-3.1,0.4-4.4c0.9-0.8,0.9-2,0.3-2.9
			c6.8-4.6,13.2-9.7,19-15.4C1560.2,1382.4,1556.5,1378.9,1554.1,1380.7z"/>
		<path class="st25" d="M1532.4,1384.6c-33.6,10.2-68.4,6.8-102.8,3c-14.4-1.6-28.7-3.4-43-5.5c-16.9-2.4-36.1-2.6-51.2-11.5
			c-5.1-3-11.1,4-5.9,7.5c26.3,18,67.5,20.4,98.4,22.5c36.2,2.4,70.6-4,104.9-15.2C1533.4,1385.4,1533,1384.5,1532.4,1384.6z"/>
		<path class="st25" d="M1559.5,1369.8c-2.9,1-5.6,2.4-8.6,3.2c-2.8,0.7-1.1,5.2,1.7,4.3c3.3-1.1,6.4-2.5,8.8-5
			C1562.5,1371.1,1560.9,1369.3,1559.5,1369.8z"/>
		<path class="st2" d="M1587.6,1268.5c-8.1-20.2-47.4-23.5-65.6-28.1c-3.6-0.9-4.7,1.7-1.2,2.9c10.7,3.8,20.4,10.5,30.9,14.8
			c14.4,5.9,27.1,8.8,30.2,25.7c4.7,25.6-6,56.5-20,78.1c-24.8,38.3-66.1,61.6-107.5,77.7c-2.8,1.1-1.1,5.1,1.7,4.3
			c54.2-17.1,102.4-46.4,124.6-101C1589.1,1322.7,1596.1,1289.7,1587.6,1268.5z"/>
		<path class="st26" d="M1531.2,1054.9c-0.8-9.2-8.5-10.6-16.2-12.2c-5.7-1.2-14.3-5.1-18.4,1.2c-4.8,7.5-4.6,20-5.8,28.7
			c-0.6,4.7,4.9,7.6,8.4,5.9c1.1,1,2.6,1.7,4.3,1.9c4.2,0.4,7.7,1.7,10.5,5.1c4.5,5.4,12.4,3.1,13.9-3.6
			C1530,1073.3,1532,1063.7,1531.2,1054.9z"/>
		<path class="st26" d="M1493.9,1161.8c-2.9-4.4-8.2-5.8-12.9-4.3c-0.4-4.8-7.2-5.8-8.2-0.6c-1.2,6.7-3.4,12.7-6.2,18.9
			c-1.2,2.8-1.6,5.3-0.7,7.5c0,0.2,0.1,0.4,0.1,0.6c0.8,2.3,3.1,3.5,5.4,4.3c1.4,0.6,2.9,1.1,4.4,1.5c3.4,1.2,7,2.4,10.6,1.6
			c1.5-0.4,2.8-2,2.7-3.5c3.2-2.1,5.5-5.5,6.4-10.4C1496.4,1172.6,1496.6,1165.9,1493.9,1161.8z"/>
		<path class="st27" d="M1515.1,1051.1c-2.1,11.4-7.1,24.4-5.7,36.1c0.6,4.9,7.5,7.1,10.5,2.9c7.3-10.4,7.4-25.1,7.6-37.3
			C1527.7,1044.9,1516.6,1043,1515.1,1051.1z"/>
		<path class="st27" d="M1484.1,1162.6c-1.2,4.3-2.5,8.6-3.7,12.9c-1.2,4.3-2.4,7.9-1.2,12.3c1.1,4.1,6.3,3.6,8.6,1.2
			c2.9-3,3.4-7.3,4.3-11.2c1-4.1,1.9-8.2,2.9-12.3C1496.5,1159.3,1485.9,1156.4,1484.1,1162.6z"/>
		<g>
			<path class="st21" d="M1585.5,1279.3c0,2.3-0.6,4-2.1,6.4c-1.4,2.4-3.9,4.8-6.6,7c-7.4,5.9-16.5,10-25.3,13.3
				c-28.2,10.6-58.8,15.6-88.7,18.5c-38.1,3.8-76.6,4.1-114.8,1.1c-31.4-2.4-63.3-6.9-93.3-16.8c-10-3.3-19.9-7.2-28.8-12.9
				c-3.2-2.1-6.3-4.4-8.9-7.2c-1.9-2.1-3.3-4.3-4-6.6c-0.7-2.1-0.7-3.7,0.1-6.1c0.6-1.9,2.2-4.4,3.9-6.3c5.9-6.4,14-10.6,21.9-14.1
				c25.8-11.6,55-16.7,82.9-20.2c37.7-4.7,76-5.6,113.9-3.6c32.9,1.8,66.1,5.8,97.9,14.8c11.2,3.2,22.4,6.9,32.6,12.4
				c6.5,3.5,13.8,8.2,17.3,14C1584.9,1275.4,1585.5,1277.2,1585.5,1279.3c0.1,8.1,12.7,8.1,12.6,0c-0.4-19.4-22.3-30.2-37.7-36.6
				c-29.3-12.2-61.6-17.3-93-20.7c-40.8-4.4-82.1-4.7-123-1.3c-33.1,2.8-66.9,7.5-98.3,18.8c-16.2,5.8-40.5,15.3-45.3,34.2
				c-4.7,18.5,14.1,31.5,28.4,38.5c27.1,13.2,57.8,18.9,87.5,22.8c40.4,5.4,81.4,6.5,122,4.1c34.8-2.1,70.2-6.4,103.6-16.6
				c18.1-5.5,43.5-13.8,53-32c1.8-3.5,2.8-7.2,2.9-11.1C1598.2,1271.2,1585.7,1271.2,1585.5,1279.3z"/>
			<path class="st21" d="M1273.2,1427.7c49.2,27.8,111.3,31.7,166.2,24c53-7.4,114.3-28.8,141.4-78.8c15.4-28.5,18.1-61.6,17.8-93.4
				c-0.1-8.1-12.6-8.1-12.6,0c0.2,26.5-1.3,54.1-12,78.7c-10.6,24.4-29.9,42.2-52.9,54.9c-47,25.8-104.7,33-157.5,27.9
				c-28.7-2.8-58.7-9.9-84.1-24.2C1272.5,1412.8,1266.1,1423.7,1273.2,1427.7L1273.2,1427.7z"/>
			<path class="st21" d="M1202.5,1279.9c-3.6,24.6-2.9,49.8,5.5,73.4c2.7,7.6,14.8,4.3,12.1-3.3c-7.6-21.4-8.8-44.3-5.5-66.7
				c0.5-3.4-0.8-6.7-4.4-7.7C1207.3,1274.7,1203,1276.5,1202.5,1279.9L1202.5,1279.9z"/>
			<path class="st21" d="M1461.8,1176.7c-26.3,7-47.7,28.4-61.2,51.3c-13.1,22.2-21.6,51.4-11.4,76.4c6,14.8,17.7,25.6,32,32.3
				c7.3,3.4,13.7-7.4,6.3-10.8c-10.9-5.1-20.3-12.5-25.6-23.5c-4.6-9.6-5.4-20.8-4-31.2c3.3-24.1,17.2-46.9,34.8-63.3
				c9.3-8.6,20.2-15.7,32.5-19C1472.9,1186.7,1469.6,1174.6,1461.8,1176.7L1461.8,1176.7z"/>
			<path class="st21" d="M1492.9,1195.9c18.5,13.6,28.2,39.5,31.5,61.4c3.4,21.8,0.3,48.5-20.7,60.5c-7,4-0.7,14.9,6.3,10.8
				c40.7-23.3,30.8-83.8,11.3-117.8c-5.7-9.9-12.9-18.9-22.2-25.7C1492.7,1180.2,1486.4,1191.1,1492.9,1195.9L1492.9,1195.9z"/>
			<path class="st21" d="M1494,1079.7c2.1-8.6,3.7-17.3,6.1-25.7c0.6-1.9,1.2-3.9,1.8-5.8c0.3-0.9,0.6-1,0.7-1.6
				c0.4-1.8,0.4-0.3,0.2-0.3c-0.2,0.2-0.5,0.3-0.7,0.3c-0.7,0.1-0.6,0.2,0.4,0.1c4.6,1.1,9.3,1.7,13.9,2.6c2.3,0.4,4.6,0.9,6.8,1.6
				c1.3,0.4,2.5,0.8,3.7,1.2c1.1,0.4-0.2-0.3,0.1,0c0.5,0.7-0.3-0.2-0.5-0.4c1.1,0.9-0.7-1.1-0.1,0c0.7,1-0.3-1.3,0,0
				c0.1,0.5,0.2,1.1,0.4,1.6c0.1,0.4,0,1.1-0.1-0.5c0,0.3,0.1,0.7,0.1,1.1c0.2,2.9-0.1,5.8-0.4,8.7c0,0.3-0.2,1.2,0,0
				c-0.1,0.4-0.1,0.7-0.2,1.1c-0.1,0.7-0.2,1.5-0.4,2.2c-0.3,1.7-0.6,3.4-1,5.1c-1.2,5.9-2.8,11.7-4.3,17.5
				c-2,7.8,10.1,11.2,12.1,3.3c1.5-5.8,3.1-11.6,4.3-17.5c1.5-7,3-14.5,2.2-21.6c-0.4-3.4-1.2-7-3.7-9.5c-3.4-3.4-9.2-4.4-13.7-5.4
				c-5.6-1.2-11.2-2.2-16.9-3.2c-3.6-0.6-7.1-0.3-10,2.1c-2.6,2-3.8,4.8-5,7.8c-3.9,10.3-5.6,21.4-8.2,32.1c-0.8,3.3,1,6.8,4.4,7.7
				C1489.5,1085,1493.2,1083,1494,1079.7L1494,1079.7z"/>
			<path class="st21" d="M1466.1,1156.4c-2.8,8.7-5.5,17.4-8.3,26.1c-1,3.1,1.2,7,4.4,7.7c3.4,0.8,6.7-1,7.7-4.4
				c2.8-8.7,5.5-17.4,8.3-26.1c1-3.1-1.2-7-4.4-7.7C1470.4,1151.2,1467.2,1153,1466.1,1156.4L1466.1,1156.4z"/>
			<path class="st21" d="M1491.4,1164.9c-1.6,7-3.2,13.9-4.8,20.9c-0.7,3.2,1,7,4.4,7.7c3.2,0.7,6.9-1,7.7-4.4
				c1.6-7,3.2-13.9,4.8-20.9c0.7-3.2-1-7-4.4-7.7C1495.9,1159.7,1492.2,1161.4,1491.4,1164.9L1491.4,1164.9z"/>
			<path class="st21" d="M1541.7,1157.9c2.1,8.8,4.3,17.5,6.4,26.2c1.6,6.8,4,13.7,4.2,20.7c0.2,11.6-6.4,20.1-17,24.3
				c-3.2,1.2-5.4,4.2-4.4,7.7c0.8,3,4.5,5.6,7.7,4.4c14.6-5.7,24.9-16.6,26.2-32.7c0.6-7.7-1.4-15.2-3.2-22.6
				c-2.6-10.5-5.1-21-7.7-31.5C1551.9,1146.7,1539.8,1150,1541.7,1157.9L1541.7,1157.9z"/>
			<path class="st21" d="M1466,1184.3c-18.7,16.2-27.8,41.7-33.4,65.2c-6.1,25.6-6.9,52.9,4.7,77.1c1.3,2.8,5.7,1,4.4-1.9
				c-10.3-22.9-9.3-48.7-3.8-72.8c5.2-22.8,12.8-48.2,30.6-64.5C1470.4,1185.8,1468,1182.6,1466,1184.3L1466,1184.3z"/>
			<path class="st21" d="M1490.3,1188.4c10.5,21.3,15.8,45.1,15.6,68.9c-0.1,11.5-1.7,22.8-4.1,34c-1.3,6-2.9,11.9-4.9,17.7
				c-1.7,5.2-4,10.1-4.9,15.5c-0.3,1.6,1.8,2.1,2.7,1.1c7.8-8.3,11.3-21.7,14.1-32.5c3.1-11.9,4.2-24.4,4.1-36.7
				c-0.2-24.5-6.3-48.3-18-69.9C1493.4,1183.7,1488.9,1185.4,1490.3,1188.4L1490.3,1188.4z"/>
			<path class="st21" d="M1465.3,1190.1c4.2,1.3,8.4,2.3,12.7,2.9c2.1,0.3,4.1,0.5,6.2,0.6c2.3,0.1,4.4-0.2,6.7-0.7
				c2.6-0.5,2.5-4.1-0.1-4.6c-2-0.4-3.9-0.8-5.9-1c-2-0.2-4-0.4-6-0.7c-3.9-0.4-7.7-1.1-11.5-2.1c-1.6-0.4-3.2,0-3.9,1.7
				C1463.1,1187.6,1463.7,1189.6,1465.3,1190.1L1465.3,1190.1z"/>
			<path class="st21" d="M1478.3,1190.7c2.4,23.3,2.3,46.5-0.5,69.8c-2.8,23.4-9.6,45.5-15.6,68.1c-0.3,1.1,1.1,1.6,1.6,0.6
				c11.3-20.5,16.7-45,19.7-68.1c3-23.5,2.4-47.6-1.4-71C1481.7,1187.6,1478,1188.2,1478.3,1190.7L1478.3,1190.7z"/>
			<path class="st21" d="M1471.1,1189.7c-7.6,23.3-13.5,47.1-16.9,71.4c-3.4,23.8-6.1,49.2-2.4,73.1c0.2,1.1,1.9,1.2,2,0
				c2.8-23.7,2.9-47.6,6.2-71.3c3.4-24.2,8.3-48,15.3-71.4C1476.1,1188.6,1472,1186.9,1471.1,1189.7L1471.1,1189.7z"/>
			<path class="st21" d="M1466.3,1180.7c-23.4,13.7-41.2,35.5-49.6,61.4c-8.7,27-6.8,59.3,7.8,84c1.1,1.8,3.7,0,3-1.8
				c-9.9-26.7-12.8-54.5-3.4-81.9c8.1-23.5,24.5-44.1,45.4-57.5C1472.5,1183.1,1469.2,1179,1466.3,1180.7L1466.3,1180.7z"/>
			<path class="st21" d="M1208.5,1356.5c-3.3,11.4-3.2,23.3-1.6,35c0.8,5.6,1.9,11.2,3.2,16.7c1.3,5.5,2.6,10.7,6.5,14.9
				c5.4,6,14.3-2.9,8.9-8.9c-2.5-2.7-2.8-7.6-3.6-11.1c-1.1-4.9-2.1-9.8-2.8-14.8c-1.2-9.6-1.1-19.2,1.5-28.6
				C1222.9,1352.1,1210.8,1348.7,1208.5,1356.5L1208.5,1356.5z"/>
			<path class="st21" d="M1224.8,1357.9c4.8-2.4,6.9-7.3,7.9-12.3c0.5-2.6,0.5-10,4-5.7c4.3,5.2,0.8,13.5,2.9,19.5
				c2.4,7.1,9.7,10,16.7,9.2c2.2-0.3,14.9-5.5,15.9-2.9c0.4,1.2-5,6-5.8,7.1c-2,2.6-3.5,5.5-3.8,8.8c-0.8,7.6,5,12.2,12,12.9
				c1.4,0.1,2.8,0,4.1,0.2c0.7,0.1,0.5-0.7,0.3,0.1c-0.7,3-4.7,4.3-7.2,5.5c-4.8,2.3-3.6,10.4,1.5,11.5c-1.3-0.3,0.2-1-0.5-0.1
				c-1.4,1.7-4,2.3-5.9,2.9c-4,1.2-8,2.2-12.1,2.8c-9.4,1.4-19.3,0.8-27.8-3.6c-7.2-3.7-13.5,7.1-6.3,10.8c14.3,7.4,30.5,7,45.8,3.1
				c6.8-1.7,14.8-4.1,17.9-11.1c2.9-6.6-0.1-15.4-7.6-17c0.5,3.8,1,7.7,1.5,11.5c5.7-2.7,11.4-6.5,12.9-13c1.5-6.2-1.3-12.8-7.5-15
				c-2.3-0.8-6.1-1.6-8.5-1.1c-0.8,0.2-0.3,0.9-0.1,0.7c0.8-0.6,1.7-2.7,2.4-3.6c4.4-4.9,8.7-10.1,6.7-17.1
				c-1.8-6.1-8.5-9.5-14.6-9.3c-3.5,0.1-6.7,1.2-10,2.3c-1.8,0.6-5.6,2.4-7.4,1.2c-1.8-1.2-1-4.8-0.9-6.6c0.1-3.6-0.1-7.3-1.3-10.8
				c-2.2-6.3-7.3-12.1-14.2-12.8c-6.6-0.7-11.5,3.7-13.6,9.6c-1,2.9-0.7,10.2-3.7,11.6C1211.2,1350.6,1217.5,1361.5,1224.8,1357.9
				L1224.8,1357.9z"/>
			<path class="st21" d="M1529.9,1087.7c-15.5-9.3-33.5-18.2-51.4-9.6c-7.7,3.7-14.7,11.9-14,20.9c0.2,2.5,0.9,4.7,1.7,7
				c0.3,1,1,2.7,0.8,3.3c-0.4,1.2-3,2.4-4,3.2c-1.8,1.7-3.1,3.8-4.1,6c-7.5,17,3.6,37.5,19.9,44.2c17,7,34.5-0.6,45-14.7
				c12.1-16.3,16.3-40.2,7.6-58.8c-1.4-3.1-5.9-3.8-8.6-2.3c-3.2,1.8-3.7,5.5-2.3,8.6c9.6,20.7-5.6,63.8-33.9,56.6
				c-11.3-2.9-21.4-16.4-16.6-28.3c1.1-2.6,3.7-3.7,5.6-5.6c2.8-2.8,4-6.5,3.6-10.4c-0.3-3.2-2.2-6.2-2.5-9.3
				c-0.3-2.9,2-5.6,4.1-7.3c13-10.3,30.8,0.5,42.4,7.5C1530.5,1102.7,1536.8,1091.8,1529.9,1087.7L1529.9,1087.7z"/>
			<path class="st21" d="M1529.4,1106.6c13.4,9.4,19.3,27.7,14.3,43.2c-5.2,16.1-22,26.6-38.6,25.8c-8.1-0.4-8.1,12.2,0,12.6
				c22.3,1,43.8-13.8,50.7-35c6.8-21.1-2.2-44.9-20.1-57.4C1529.1,1091.1,1522.8,1102,1529.4,1106.6L1529.4,1106.6z"/>
		</g>
	</g>
	<circle class="st28" cx="1388.4" cy="897.8" r="46.6"/>
	
		<ellipse transform="matrix(0.2298 -0.9732 0.9732 0.2298 -69.1932 1816.1992)" class="st28" cx="1112.8" cy="951.8" rx="46.6" ry="46.6"/>
</g>
</svg>
