<?xml version="1.0" encoding="utf-8"?>
<!-- Generator: Adobe Illustrator 22.0.0, SVG Export Plug-In . SVG Version: 6.00 Build 0)  -->
<svg version="1.1" id="Capa_1" xmlns="http://www.w3.org/2000/svg" xmlns:xlink="http://www.w3.org/1999/xlink" x="0px" y="0px"
	 viewBox="0 0 2500 2000" style="enable-background:new 0 0 2500 2000;" xml:space="preserve">
<style type="text/css">
	.st0{fill:#F9E1EF;}
	.st1{fill:#FFE4CA;}
	.st2{fill:#F8B6AB;}
	.st3{fill:#FFA294;}
	.st4{fill:#684B47;}
	.st5{fill:#60413D;}
	.st6{fill:#FF7BB1;}
	.st7{fill:#FF5FAF;}
	.st8{fill:#FFFFFF;}
	.st9{fill:#9B6F6B;}
	.st10{fill:#6D1D17;}
	.st11{fill:#FFCFE9;}
	.st12{fill:#CFD8E8;}
	.st13{fill:#FDE41B;}
	.st14{fill:#FFAD12;}
	.st15{fill:#F0F1F1;}
	.st16{fill:#D0D2D3;}
	.st17{fill:#E5E6E7;}
	.st18{fill:#FCDAAE;}
	.st19{fill:#EAB18B;}
	.st20{fill:#AD7E4E;}
	.st21{fill:#9E6E45;}
	.st22{fill:#BC87BF;}
	.st23{fill:#FB7F1C;}
	.st24{fill:#400705;}
	.st25{fill:#BC7353;}
	.st26{fill:#A8583B;}
	.st27{fill:#EA9E83;}
</style>
<g id="BG">
	<rect x="0" y="0" class="st0" width="2500" height="2000"/>
</g>
<g id="Layer_1">
	<path class="st1" d="M1595.8,1134.9c-3.7-66-60.5-127.1-108.3-165.4c-58.1-46.6-124.1-83.6-176.6-137c-20.3-20.7-37.3-49.9-66-59.8
		c-20.8-7.2-49.2-3.5-58.2,19.2c-2.1,5.2-2,11.2,2.1,15.4c-34.5,49.7-74.9,96.4-118.9,137.6c-23.4,21.9-48.1,42.7-73.9,61.7
		c-22.1,16.2-50.2,29.1-69.6,48.3c-7.4,7.3-9.1,16.7-15,24.9c-7.1,9.8-15.7,15.1-21.2,26.8c-10.1,21.3-10.8,47.6-8.3,70.7
		c4.9,45.2,29.7,66.4,67,74.4c7.8,5,16,5.8,26.3,3.5c11.8,22.2,29.4,39.3,49.7,53.2c3.1,3.3,6.1,6.7,9.2,10
		c3.7,4.2,8.2,4.6,12.2,3.1c14.5,8,29.6,14.9,44.4,21.3c53,22.9,105.3,29.3,163.1,34.3c53.8,4.7,114.5-17.1,159.8-43.7
		c39.1-23,58.1-43.3,79.9-82.4C1545.8,1246,1599.3,1197.7,1595.8,1134.9z"/>
	<path class="st2" d="M1184.3,803.4c-59.6,103.1-137.4,189.3-243.7,245.7c-11.9,6.3-4.8,21.5,6,22.5c-2.1,1-3.6,2.8-3.8,5.3
		c-0.3,3.2,1.8,6.9,5.2,7.4c9.1,1.3,17.6-4.1,22.5-11.4c2.5-3.7-0.3-7.9-3.9-9.3c103.9-54,192.2-143.4,233-254.4
		C1203,800,1188.8,795.6,1184.3,803.4z"/>
	<path class="st2" d="M915.3,1174.5c-2-1-3.9-1.3-5.6-1.2c0.4-0.9,0.9-1.3-0.1-0.7c2-1.1,2.4-4.4,0.6-5.9c-1.6-1.3-3.2-2.1-4.9-2.5
		c-1.4-0.9-3.1-1.4-4.9-1c-33.7,7.4,2.4,72.4,31.5,54.5c2.2-1.3,3.2-3.8,3.2-6.3C942.5,1197.6,927.3,1180.8,915.3,1174.5z"/>
	<path class="st2" d="M1574,1170c-1.1-6.1-5.5-12.3-12.2-12.8c-2.8-0.2-5.4,0.6-7.7,2.1c-1.5,1-3.6,4.2-5.3,4.8
		c-2.6,1-4.2,2.9-4.8,5c-7.5,3.2-13.8,9.1-17.9,16.4c-3.7,6.7-4.8,15,1.6,20.4c6.7,5.6,16.1,2.4,22.9-1.3
		C1561.9,1198.4,1576.6,1184.1,1574,1170z"/>
	<path class="st3" d="M1241.3,1105c-3-1.9-6.7-2.6-10.2-2.2c-5.1-1.5-11.2,2.5-12.4,7.7c-1.5,6.3,3,12.3,9.2,13.6
		c6.1,1.3,11.5-1.6,15.6-6C1247.4,1113.9,1245.9,1107.9,1241.3,1105z"/>
	<path class="st4" d="M1494.3,708.5c-108.1-111-280.8-108.5-412.4-52c-45.3,7.8-88.5,34.7-124.6,61.8
		c-41.4,31.2-67.7,71.2-88.5,118.1c-21,47.1-36.7,96.8-39.4,148.6c-2.9,55.4,14.3,98.8,45.5,143.4c2.2,3.1,7.8,3.9,9.6-0.3
		c8.5-20,31.9-45.4,56.6-38.7c11.1,3,15.4-8.8,12.1-16.4c2.4-1.2,4.8-2.4,6.9-3.7c4.4-2.5,5.2-6.9,3.7-10.5
		c7.4-5.2,14.5-10.8,21.3-16.7c5.8-5,2.4-13.1-3.3-16.1c38-30.1,73.2-64.1,107.5-98.5c3.2-3.1,6.3-6.3,9.4-9.4
		c8.5-8.5,16.9-17.1,25.3-25.5c1.3-1.3,1.9-2.7,2.1-4.1c20.7-23.6,39.7-48.3,57-73.7c-5.8,82.5-1.8,168,33.8,243.4
		c3.4,7.3,14.7,3,14.4-4.3c-3.1-79.4,1.8-175,13-252.4c30.2,45.1,77.4,102.9,117.4,140c49.6,45.9,98.2,88.1,154.4,125.9
		c-0.2,1-0.5,2.1-0.7,3.1c-1.8,8.8,5.9,15,14.2,13.4c15.1-3.1,27.3,0.8,39.9,7.7c-3.7,12.5,13.8,21.4,20.8,9
		C1665.9,966.3,1592.7,809.6,1494.3,708.5z"/>
	<path class="st5" d="M1180.2,803.3c-16.4,15.8-32.6,32-50,46.7c-15.5,13.2-32.2,24.8-49.4,35.8c-52.7,33.7-133.5,77.4-193.8,36.9
		c-16.9-11.4-28.3-27-34.8-44.6c-12.2,34.4-20.8,70.1-22.7,106.8c-2.9,55.4,14.3,98.8,45.5,143.4c2.2,3.1,7.8,3.9,9.6-0.3
		c8.5-20,31.9-45.4,56.6-38.7c11.1,3,15.4-8.8,12.1-16.4c2.4-1.2,4.8-2.4,6.9-3.7c4.4-2.5,5.2-6.9,3.7-10.5
		c7.4-5.2,14.5-10.8,21.3-16.7c5.8-5,10.1-11.1,4.4-14c38-30.1,64.9-54.3,99.1-88.7c3.2-3.1,7-18.1,10.1-21.3
		c8.5-8.5,16.9-17.1,25.3-25.5c1.3-1.3,1.9-2.7,2.1-4.1c19.9-22.7,38.3-46.5,55.1-70.9C1181,812.8,1180.8,807.9,1180.2,803.3z"/>
	<path class="st5" d="M1239,844.6c-5.1,13.1-13,26.4-27.5,30.3c-10.4,2.9-18.6-3.2-22.8-12.4c-4.4-9.7-5.7-20.6-6.6-31.2
		c-4.1,77.3,1.6,156.5,34.9,226.9c3.4,7.3,14.7,3,14.4-4.3C1228.9,988.7,1231.7,912.6,1239,844.6z"/>
	<path class="st5" d="M1591.3,849.2c-3.6,8.7-8.8,16.5-16.2,22.8c-24.6,20.8-70.5,19.9-95.7-1.5c-3.1,13.7-11.2,25.1-26.2,29.4
		c-17.5,5-37.3,0.4-54.1-4.9c-22.8-7.3-44.5-18-65.1-30c-20.1-11.7-39.4-24.8-57.3-39.5c-8.7-7.2-18.5-15.2-25.8-24.6
		c-0.7,2.4-1.3,4.8-2,7.1c30.2,44,74.8,98.1,112.9,133.4c49.6,45.9,98.2,88.1,154.4,125.9c-0.2,1-0.5,2.1-0.7,3.1
		c-1.8,8.8,5.9,15,14.2,13.4c15.1-3.1,27.3,0.8,39.9,7.7c-3.7,12.5,13.8,21.4,20.8,9C1636.1,1019.2,1627.2,929.6,1591.3,849.2z"/>
	<path class="st6" d="M1195.4,1225.9c15.7,7.8,33.8,14.7,50.4,10.5c0.4-0.5,0.8-1,1.2-1.5c5-2.8,9.3-7.1,12.2-13.2
		c5.7-11.9,7-28.9,5.9-44.8c2.4-7.1,2.9-14.8,0.2-21.9c-2.1-5.5-3.4-15.8-8.2-18.8c-13.3-1-40-0.8-54.1-1.6
		c-4.4-0.2-7.2,3.1-7.9,6.9c-0.4,0.7-0.6,1.4-0.8,2.3c-1.6,11.9-4.3,25.5-5.4,39.1c-1.9,11.1-2,22.4,2.1,32.1
		C1192.1,1218.8,1193.5,1222.4,1195.4,1225.9z"/>
	<path class="st7" d="M1267.7,1182.9c-7.9-17.2,2.2-39.4-19.9-47.8c-14.2-5.4-35.5-9.7-45.5,4.4c-7.4,10.4-16.1,31.3-3.6,40.9
		c-4,3.8-6.9,8.9-7.7,15.8c-0.6,5,6.6,8.7,9,3.3c8.3-18.8,48.9-16.9,57.3-5.5C1262.1,1200.7,1270.9,1190,1267.7,1182.9z"/>
	<path class="st8" d="M1250.6,1137.5c-5.8-2.5-10,0.8-16.2,0.6c-7.4-0.3-14.7-0.6-22-2c-6.3-1.2-9.2,10.5-3.2,12.4
		c11.9,3.8,31.4,6.1,42.4-2.1C1253.6,1144.9,1253.3,1138.7,1250.6,1137.5z"/>
	<path class="st8" d="M930.7,1113.9c-2.7-10.4-17.1-8.5-21.6-0.6c-3.5,1.5-5.8,5.6-5.6,9.7c0.3,5.5,4.7,10.1,10,11
		c6,1.1,11.5-1.7,14.7-6.7C930.6,1123.6,931.8,1118.1,930.7,1113.9z"/>
	<path class="st8" d="M901.8,1132c-0.9-0.7-1.9-1.2-3.1-1.2c-1.1,0-2.2,0.5-3,1.3c-0.5,0.6-0.9,1.2-1.1,2c-0.2,0.7-0.1,1.4,0.1,2.2
		c0.1,0.7,0.3,1.3,0.4,2c0.1,0.3,0.3,0.6,0.4,0.9c0.3,0.5,0.6,0.8,1.1,1.1c0.7,0.5,1.5,0.8,2.3,0.7c1.7-0.1,3.3-1.3,3.6-3
		c0.1-0.7,0.3-1.3,0.4-2C903.3,1134.6,902.9,1133,901.8,1132z"/>
	<path class="st9" d="M953.6,821.7c-0.1,0-0.1,0.1-0.2,0.1c-1.6,0.3-3.1,1.1-4.2,2.6c3.2-7.4,5.3-15,5.8-23
		c1.2-20.6-11.5-45.8-35.7-36.1c-12.2,4.9-20.7,16.6-26.6,29.5c-8.6,10.6-14.9,23.8-18.8,35.5c-5.2,15.2-13.3,42,3.8,52.7
		c17.3,10.9,36.7-10.8,47.1-22.4c6.3-7.1,12.6-15.1,17.8-23.6c-0.8,2.6-1.4,5.3-1.7,7.7c-0.4,3.9,0.7,7.4,4.1,9.7
		c2.9,1.9,7.6,2.5,10.6,0.1c5.1-4.1,9.8-9.3,10.7-16c2.2-2,3.5-5,3.3-8.2C968.9,822.5,960.3,818.1,953.6,821.7z"/>
	<path class="st9" d="M970.4,849.1c-7.6,0-7.3,11.8,0.4,11.8C978.3,860.9,978,849.1,970.4,849.1z"/>
	<path class="st9" d="M1582.7,822.6c-6.1-17.8-17.8-34.7-33.8-44.9c-6.8-4.3-15.4-5.9-22.4-3.9c-13.1-2.7-24.3,8.2-24.2,22.5
		c0,6.6,1.9,13.6,4.9,20.6c-2.9-0.7-6.1,0.2-8.5,2.1c-0.8,0.2-1.6,0.6-2.3,1c-5.5,3.3-6.2,9.6-3.7,15c3.3,7.1,6.5,18.8,14.1,22.2
		c4.1,1.8,8.3,1,11.1-1.8c0.7,0.2,1.4,0.5,2.1,0.7c5.9,1.8,10.4-1.8,12.2-6.5c11.5,9.5,24.8,15.7,37.4,15.3
		C1592.1,864.1,1587.7,837.1,1582.7,822.6z"/>
	<path class="st9" d="M1495.5,853.7c-2-6-5.2-11.4-8-17c-1.7-3.3-6.5-4.1-9.5-2.3c-3.3,2-4.1,6.2-2.3,9.5c2.7,5,5.1,10.3,8.5,14.8
		c1.8,2.5,4.8,3.8,7.8,2.4C1494.7,859.8,1496.4,856.6,1495.5,853.7z"/>
	<path class="st9" d="M1468.5,859.2c-0.5-2.2-1-4.5-1.5-6.7c-0.5-2.1-3-3.3-5-2.7c-2.1,0.6-3.3,2.9-2.7,5c0.6,2.2,1.2,4.4,1.8,6.6
		c0.5,2,2.8,3.2,4.8,2.6C1467.9,863.4,1468.9,861.2,1468.5,859.2z"/>
	<path class="st9" d="M1435.6,866.8c-2.8-4.2-5.6-8.4-8.5-12.7s-7.6-4.6-11.1-2.7c-3.3-1.1-6.9-0.6-9.7,2.5c-1.2,1.4-2.8,4-3.7,6.8
		c0,0,0,0-0.1,0c-3.4-1-6.7-2-10.1-3.1c-3.9-1.3-8.4,2.7-8.1,6.6c0.6,7,1.2,16.8,7.2,21.3c2.9,2.1,7.7,1.6,8.5-2.6
		c0.3-1.6,0.3-3.1,0.2-4.6c3.9,2.3,8.1,3.9,12.4,3.2c2.8-0.4,5.2-1.8,7.1-3.8c2.1,1,4.2,1.8,6.4,2.3
		C1433.2,881.4,1440,873.4,1435.6,866.8z"/>
	<path class="st9" d="M1369.7,869.6c-7.3,0-6.9,11.3,0.3,11.3C1377.3,880.9,1377,869.6,1369.7,869.6z"/>
	<path class="st9" d="M1022.2,865.3c-2.6-1.9-5.2-2.6-7.9-2.5c-1.3-6.5-8.8-10.1-15.2-4.7c-3.7,3.2-6.8,7.2-9,11.6
		c-1.4,2.7-1.3,5.3-0.3,7.3c-0.1,7.4,7.3,12.4,15.1,9c6.5-2.9,17.9-5.7,19.4-13.7C1024.8,870,1024.3,866.8,1022.2,865.3z"/>
	<path class="st9" d="M1057.9,878c-1.3-3.9-5.6-6.7-9.7-5.3c-1.7,0.6-3.3,1.1-5,1.7c-2,0.7-3.7,2-4.7,3.9c-0.9,1.7-1.2,4.1-0.6,5.9
		c1.3,3.9,5.6,6.7,9.7,5.3c1.7-0.6,3.3-1.1,5-1.7c2-0.7,3.7-2,4.7-3.9C1058.2,882.3,1058.5,879.9,1057.9,878z"/>
	<path class="st9" d="M1083.3,889.2c-0.6,0.3-1.1,0.5-1.7,0.8c-1.9-4.2-7-5.6-10.9-2.1c-3.8,3.4-7.6,6.7-11.3,10.1
		c-5.2,4.6,2.2,13.8,7.7,9.5c0.5-0.4,1.1-0.8,1.6-1.3c2.2,2,5.7,2.9,8.6,1.3c4.2-2.4,8.5-4.8,12.7-7.3
		C1097.4,896,1090.7,885.6,1083.3,889.2z"/>
	<path class="st9" d="M1209.4,890.1c-1.1-1.3-2.8-2.2-4.5-2.2s-3.1,0.9-4.1,2.1c-1,0.5-1.9,1.1-2.8,2c-1.6,1.7-2.8,4.5-2.6,6.9
		c0.3,4.8,3.8,8.7,8.7,9.2c4.6,0.4,9.5-2.6,10.3-7.3C1215.4,896,1213.3,892.3,1209.4,890.1z"/>
	<path class="st9" d="M1219.5,893.3c-0.3-1-1.9-0.8-1.9,0.3c0.1,3.5-0.1,7.2,0.8,10.5c0.6,2.2,4.3,1.7,4-0.6
		C1222.1,900,1220.6,896.6,1219.5,893.3z"/>
	<path class="st9" d="M1366.6,888.9c-3.7-7.1-9.9-12.8-15.3-18.7c-2.6-2.9-7.6-2.4-10.1,0.3c-1.8,2-2.1,4.4-1.5,6.7
		c-0.3-0.3-0.6-0.7-0.8-1c-2.3-2.8-7.4,1.2-5.1,4.1c2.2,2.8,4.4,5.6,6.5,8.4c1.3,1.6,3.3,2.3,5.1,0.9c1.2-0.9,1.4-2.2,1.1-3.4
		c1,1.1,2,2.2,3,3.3c2.8,3.1,5.6,5.6,9.1,8C1363.9,901,1369.1,893.7,1366.6,888.9z"/>
	<path class="st8" d="M1346.3,1469.4c-8.6-32.6-14.1-65.4-17-99c-0.4-4.2-4.8-8.7-9.4-6.8c-19.1,8.1-38.3,12.2-57.9,11.8
		c-2.8-0.7-5.7-1.3-8.7-1.7c-2.1-0.3-4-0.1-5.8,0.5c-6.9-0.9-13.9-2.4-21-4.5c-6.3-1.9-10.3,8.4-4.1,11c5.5,2.4,11.1,4.3,16.7,5.8
		c0.3,2.4,1.4,4.9,3.5,7.1c20.9,21.3,27.6,50.5,12.6,77.1c-4.6,8.2,3.8,16.4,12,14.6c23.8-5.1,46.2-5.5,70.3-3.9
		C1343.9,1481.8,1347.7,1474.7,1346.3,1469.4z"/>
	<path class="st8" d="M1601.4,1307.4c-1.3-7.5-10.5-9-16.1-6.2c-31.8,16.1-73.3,16.5-107.8,24.5c-35.2,8.1-69.9,18.4-104.1,30.1
		c-4.7-4.7-14-3.1-13.7,5.4c0.9,35,3.9,71.8,15.1,105.2c1.4,4.2,5.6,7.8,10.3,7.4c60.7-4.8,113.5-31.4,168.2-56.1
		c17.7-8,49-14.5,57-33.7C1617.9,1365.3,1604.8,1327.1,1601.4,1307.4z"/>
	<path class="st10" d="M1320.2,1375.4c-11.6,5-20.3,9.2-33.1,10.6c-12.3,1.4-26.2,5.7-38.2,1.6c-6.6-2.2-9.6,7.7-4.1,11
		c14.1,8.5,29.3,7.9,45,4c12.4-3.2,29.2-8.9,35.6-20.9C1327,1378.7,1323.9,1373.9,1320.2,1375.4z"/>
	<path class="st11" d="M1334.5,1465.2c-5.5-11.8-20.9-20.6-31.2-28c-11.5-8.3-24-13.7-36.2-20.8c-5.7-3.3-12.1,5.3-6.8,9.5
		c10.9,8.8,20.6,18.4,32.2,26.5c10.8,7.5,22.4,19,35.1,22.5C1333.4,1476.5,1336.7,1469.9,1334.5,1465.2z"/>
	<path class="st12" d="M1591.4,1360.1c-30.8,20.8-78.5,30.3-114.5,38c-40.1,8.6-86.7,5-105.7-37.1c-2.9-6.4-14.3-3-13.3,3.9
		c0.8,5.3,2.1,10.2,3.9,14.8c-0.4,1.3-0.5,2.6-0.2,4.1c2.6,12.5,5.5,24.5,9,36.4c-0.3,1.2-0.3,2.5,0,3.9c1.6,7.9,3.1,15.8,4.7,23.7
		c1.3,7,1.6,14.5,7.4,19.4c4.6,3.8,9.6,3.2,12.9,0.3c2.2,0.4,4.5,0.3,6.5-0.2c66.2-19.2,148.4-34,202.7-79.3
		c1.8-1.5,2.5-3.3,2.6-5.2C1619.3,1373.5,1606.3,1350,1591.4,1360.1z"/>
	<path class="st1" d="M1708.9,1314.1c-4.7-12.2-10.3-23.5-23.7-22.3c-8.6,0.8-14.8,5.9-18.9,12.6c-1.2,0.6-2.3,1.3-3.4,2.2
		c0.4-2.2,0.6-4.5,0.2-7.1c-1.7-13.7-15.5-22.1-28.5-20.1c-17.7,2.7-22.9,19.1-27.4,34c-0.4,1.2-0.3,2.3,0,3.3
		c-1,5.2-1.6,10.6-1.9,15.7c-0.9,16.3-2.5,35.6,10.6,47.5c4.8,4.3,12.7,4,17.1-0.3c-0.3-0.4-0.6-0.9-0.7-1.4
		c-1.8-9.3-3.9-18.6-4.1-28.1c-0.2-10,1.9-21.4,11.4-26.8c1.2-0.7,2.3-0.8,3.4-0.7c0.3-0.4,0.6-0.8,0.9-1.1c2-2.2,4.6-2.1,6.7-0.9
		c0.8-0.3,1.7-0.7,2.5-1.1c-0.3,0.8-0.6,1.6-0.9,2.4c0.6,0.6,1.1,1.4,1.5,2.2c3.2,8.2,1.6,16.8,3.2,25.1c1.5,7.3,4.9,14.5,8.7,21.1
		c3.7,2.1,8,3.4,12.9,3.4C1706.5,1373.8,1718.1,1337.9,1708.9,1314.1z"/>
	<path class="st13" d="M1008.5,1568.6c-1.7-6.9-4.6-13.3-7.9-19.6c-1.1-0.2-2.2-0.6-3.1-1.7c-13.9-16.1-29.2-37.2-30.7-59.4
		c-2.4-1.2-5.3-0.9-7.6,1.9c-26.3,31.6-17.3,84.2,22.5,100.7C998,1597.2,1013.1,1587.1,1008.5,1568.6z"/>
	<path class="st14" d="M1008.5,1568.6c-1.7-6.9-4.6-13.3-7.9-19.6c-1.1-0.2-2.2-0.6-3.1-1.7c-13.9-16.1-29.2-37.2-30.7-59.4
		c-2.4-1.2-5.3-0.9-7.6,1.9c-3.6,4.3-6.4,9-8.7,13.9c13,12.1,21,29.8,24.3,46.9c2.3,11.8,2.9,24.6,0.3,36.6c2.1,1.2,4.3,2.3,6.6,3.3
		C998,1597.2,1013.1,1587.1,1008.5,1568.6z"/>
	<path class="st2" d="M1649.7,1294.5c-3.1,14.2-16.8,13.3-27,19.4c-4.9,2.9-6.8,7.2-9,12.4c-6.3,14.6-11.2,33.1-4.7,48.4
		c2.8,6.6,12.7,7.5,14.6-0.4c2-8.1,1.6-16.4,2.3-24.7c1-12.9,1-20.8,13.2-26.2c12.1-5.3,21.4-11.9,23.7-25.8
		C1664.2,1289,1651.6,1285.9,1649.7,1294.5z"/>
	<path class="st2" d="M1692.6,1356c-4.5-7.7-10.8-12.1-12.7-21.4c-2.2-10.7-2.3-22.4-2.2-33.3c0-7.1-11.2-10.3-14-3.3
		c-6.3,15.7-9.7,33.7-3.1,50c4.7,11.7,16.9,23.9,30,16.3C1693.4,1362.6,1694.2,1358.7,1692.6,1356z"/>
	<path class="st13" d="M1407.7,1607.1c-18.5-79.9-27.3-162.2-47.8-241.5c-2.8-10.7-16.6-9.3-20.4-0.9c-5.7-2.4-14.2,0.9-13.1,8.3
		c2.3,16.5,4.5,32.9,6.7,49.4c2.1,16,1.1,34.3,5,49.8c0.1,2,0.3,4.1,0.4,6.1c-0.4,0.1-0.8,0.1-1.3,0.3c-7.4,1.3-15.5,0.7-23,1
		c-18.4,0.8-36.9,1.6-55.3,1.9c-9,0.2-11.8,9.1-8.9,15.4c-9.9,21.6-23.3,39.7-38,57.5c-12.3,7.4-25.8,13.1-39.1,17.9
		c-32.7,11.6-66.8,15-101.2,11.9c0,0,0,0,0-0.1c-2.4-7.8-15.5-6.3-14.6,2.3c1.9,17.4-9.7,34.8-8.7,52.5c0.3,5.5,5.7,9.3,10.6,9.2
		c21,15.7,52.8,19.3,77.5,23.5c34.6,5.9,70.4,9.5,105.5,9.9c54.5,0.6,125.7-18.9,169.9-57.2
		C1418.3,1618.8,1413.9,1609.5,1407.7,1607.1z"/>
	<path class="st14" d="M1340.8,1363.9c-0.7-8.3-12.9-6.1-11.4,3.5c4.3,27.6,5.5,58.3,9.1,86c2.7,21,1.8,26.7-22,29.1
		c-16.9,1.7-33.4,0.4-50.1-2.5c-5.3-0.9-12.6,1.1-14.8,6.8c-28.7,73.7-100,104-175.2,86.5c-19.6-4.6-25.5,23.9-6.9,30.1
		c83.3,27.8,165.1-26.6,199.5-102.7c32.5-4.6,82.4-1.8,85.9-7C1356.6,1491,1343.5,1393.7,1340.8,1363.9z"/>
	<path class="st15" d="M1265.4,1431.2c-4.9-22.6-26.1-36.2-44.9-47.1c-40.9-23.7-100.5-21.2-145.4-13
		c-40.6,7.4-95.1,26.1-113.8,66.4c-0.2,0.3-0.3,0.7-0.5,1.1c-0.9,2-1.8,4-2.5,6.1c-1,3.1,0,5.7,1.9,7.5
		c0.8,50.1,24.7,95.3,71.2,119.2c39,20,108.6,27.2,148.4,1.4c33.4-9.1,58.8-47.5,71.6-76.6C1260.2,1476.6,1270.1,1453,1265.4,1431.2
		z"/>
	<path class="st16" d="M1257.8,1447.9c-30.3-51.9-89.6-59.2-146.3-55.9c-56.5,3.3-113,21.3-141.7,73.4c-4.2,7.6,3.2,13.4,9.7,12
		c0.7,2.5,2.3,4.9,4.9,6.7c9.9,6.7,19.8,13.4,29.7,20c5.6,3.7,13.4,0.1,16.4-5c16.9-29.5,63.9-33.4,94.3-34.1
		c31.9-0.8,65.9-0.3,94.7,14.7c3,1.5,5.8,0.6,8.2-1.4c6.8-4.1,13.5-8.3,20.3-12.4C1252.8,1464.2,1260.4,1452.3,1257.8,1447.9z"/>
	<path class="st17" d="M1208.4,1535.2c-37.3,31-89.1,29.6-134.9,22.4c-42.2-6.6-70.8-34.4-94.9-68c-5.2-7.3-15.6-0.8-11.8,7.2
		c20.8,43.6,60.6,80.4,109.7,88.1c48.9,7.7,105.6-3.6,136.6-45.3C1215.4,1536.3,1211.5,1532.6,1208.4,1535.2z"/>
	<path class="st18" d="M1224.4,1452.2c-6.6-11.2-17-22-29.8-25.3c-14.7-3.8-24.6,4.1-37.6-3.4c-25.2-14.5-51.3-15.6-72.7,7.5
		c-4.8,5.2-8.8,15-15,18.3c-1.6-2.2-3.9-4-7.2-4.9c-18.7-5.3-43.7-1.7-53.6,15.3c-6.7,3.7-11.7,10.4-10.8,18.3
		c0.8,6.5,4.9,12.5,10.6,15.5c0.9,0.5,2,0.9,3,1.2c12.7,12.7,39.3,13.3,55.9,14.6C1095.9,1511.5,1260.5,1513.6,1224.4,1452.2z"/>
	<path class="st19" d="M1035.3,1467.5c-7.6,0-7.3,11.8,0.4,11.8C1043.3,1479.3,1042.9,1467.5,1035.3,1467.5z"/>
	<path class="st19" d="M1173.9,1438.9c-4.6,0-8.7,1.7-12,4.4c-1.6,0.3-3.1,0.9-4.6,1.6c-8.3,4.5-12.1,14.6-9.8,23.6
		c2.1,8.3,8.9,14.7,17,17.2c8.4,2.5,17-0.3,23.1-6.5C1200.4,1466.4,1194.2,1439.1,1173.9,1438.9z"/>
	<path class="st19" d="M1125.5,1440.3c-12.3,0-17.5,10.4-16.1,19.8c-0.6-1.5-1.5-2.9-2.7-4.1c-1.3-2.3-3.6-4-6.7-3.8
		c-0.4,0-0.8,0.2-1.2,0.3c-1.4-1.2-3.1-2-5.1-1.9c-3.7,0.3-6,2.6-7.3,6c-0.5,1.5-0.7,3.1-0.8,4.6c-1.6-1-3.3-1.7-5.2-2
		c-2.7-0.4-4.9-0.5-7.6,0.4c-0.3,0.1-0.6,0.3-0.9,0.4c-3.3,0.7-6.3,2.5-8.3,5.3c-1.6,2.3-2.8,5.1-2.6,8c0.2,3.3,1.4,7.1,4.1,9.2
		c4.7,3.7,10.3,6.4,16.4,4.5c5.7-1.8,9.9-6.7,10.5-12.5c0.1,0.1,0.2,0.3,0.3,0.4c2.4,2.4,6.5,2.4,9,0.3c0.4-0.3,0.6-0.7,0.9-1.1
		c1.8-0.6,3.5-1.6,4.9-3.1c2.2-2.3,3-5.3,2.8-8.1c2,6.7,7.5,12.3,16.5,12.3C1149.1,1475.2,1148,1440.3,1125.5,1440.3z"/>
	<path class="st19" d="M1117,1427.5c-4.4,0-4.2,6.9,0.2,6.9C1121.6,1434.4,1121.4,1427.5,1117,1427.5z"/>
	<path class="st19" d="M1110.6,1497.3c-0.3-2.2-1-4-2.6-5.5c-1.8-1.7-4.3-2.3-6.6-1.9c-0.1,0-0.2,0-0.3,0c-0.2,0-0.3,0.1-0.5,0.2
		c-0.3,0.1-0.5,0.1-0.8,0.2c-0.2,0.1-0.3,0.2-0.4,0.2c-0.5,0.2-0.9,0.4-1.3,0.7c-1.5,0.9-2.8,1.9-3.7,3.5c-1.3,2.2-1.3,4.4-0.9,6.8
		c0.3,1.6,2,3.5,3.4,4.2c1.7,0.8,3.3,0.9,5.2,0.5c2.1-0.4,4.2-1.4,5.7-2.9c0.6-0.6,1-1.3,1.4-2
		C1110.1,1500.2,1110.8,1498.7,1110.6,1497.3z"/>
	<path class="st19" d="M1164.8,1495c-0.5-0.8-1.2-1.4-2-2c-0.6-0.7-1.3-1.3-2.3-1.6c-0.7-0.3-1.4-0.5-2.2-0.4c-1,0-2,0.3-2.9,0.9
		c-1.8,0.8-3,2.8-3.5,4.5c-0.4,1.4-0.4,2.9,0,4.3c1,3.3,3.9,5.7,7.4,5.6c3.9-0.1,6.7-3.6,6.7-7.4
		C1166,1497.5,1165.5,1496.1,1164.8,1495z"/>
	<path class="st19" d="M1097.4,1431.3c-1.3-1.3-3.3-2-5.1-1.9c-1,0-1.8,0.2-2.7,0.7c-0.9,0.3-1.7,0.8-2.3,1.6
		c-0.7,0.8-1.2,1.7-1.6,2.7c0,0,0,0-0.1,0c-0.7,0.7-1.2,1.5-1.4,2.4c-0.4,0.8-0.6,1.7-0.5,2.7c0.1,1.8,0.8,3.8,2.2,5
		c0.5,0.4,1,0.7,1.6,1.1c1.1,0.6,2.3,0.9,3.6,0.8c1.4,0.1,3.2-0.6,4.5-1.3c0.1-0.1,0.2-0.1,0.3-0.2c0.5-0.4,1.2-0.9,1.6-1.3
		c0.6-0.6,1.1-1.3,1.5-2C1100.9,1438.3,1100.2,1433.9,1097.4,1431.3z"/>
	<path class="st18" d="M1192.5,1468.8c-0.5-0.6-0.8-1.1-1.4-1.6c-0.1-0.1-3.2-2.3-1.7-1.2c1.5,1-1.5-1.1-1.7-1.2
		c-0.6-0.3-1.2-0.6-1.8-0.8c-1.4-0.5-3-0.9-4.5-0.9c-0.7-0.2-1.5-0.4-2.3-0.5c-3.3-0.3-5.8,0.9-8.3,3c-0.2,0.1-0.3,0.3-0.4,0.5
		c-1.8,0.5-3.1,1.6-4.1,2.8c-2.1-2.1-4.7-3.5-7.5-3.9c-0.6-1.5-1.5-2.7-2.5-3.9c2.5,0.8,4.8,0.5,7.2-0.8c1.7-0.9,3.4-3.3,3.7-5.2
		c0.1-0.6,0-1.2,0-1.8c0.7-0.6,1.2-1.3,1.6-2.1c0.1-0.1,0.1-0.2,0.2-0.2c0,0,0,0-0.1,0c0.5-1,0.9-2.1,1-3.3c0.5-5.2-3.7-10-9.1-9.8
		c-3.2,0.1-5.9,1.8-8.2,3.9c-0.5-0.9-1-1.7-1.7-2.4c-0.1-1.8-0.4-3.6-0.9-5.5c-1.8-6.8-10.2-9.9-16.1-6.2c-2.8,1.7-5,4.4-6.5,7.4
		c-1.5-3.1-5.3-5.4-8.6-5.2c-1.6,0.1-3.1,0.6-4.5,1.3c-0.5,0.3-1,0.7-1.5,1.2c-0.6,0.1-1.2,0.3-1.8,0.6c-2.8,1.2-4.5,3.4-5.3,6.3
		c-0.6,1.9-0.6,3.9-0.5,5.9c0.1,1.6,0.5,3.1,1.3,4.4c-3.2-2.2-6.4-3.4-10.4-2.3c-2.1,0.6-3.8,1.8-5.2,3.3c-3.1-4-9-5-13.4-2.3
		c-2.6,1.6-4.4,3.8-6,6.3c-0.9,1.4-1.2,3.5-1,5.4c-2.1-1.5-4.2-3-6.3-4.1c-2.7-1.3-5.9-1.7-8.8-1c-5.8-1.8-12.4,0-15.7,5.2
		c-0.3-0.4-0.6-0.8-1-1.1c-0.6-0.4-1.2-0.9-1.9-1.3c-1.3-0.7-2.7-1-4.2-1c-0.7,0.1-1.4,0.2-2.2,0.3c-1.5,0.4-2.7,1.2-3.8,2.3
		l-1.1,1.1c-0.8,0.8-1.4,1.8-1.7,2.9c-0.5,1-0.7,2.1-0.6,3.2c0,1.1,0.3,2.2,0.8,3.2c0.4,1.1,1,2,1.9,2.8c0.6,0.4,1.2,0.9,1.9,1.3
		c1.3,0.7,2.7,1,4.2,1c0.7-0.1,1.4-0.2,2.2-0.3c1.5-0.4,2.7-1.2,3.8-2.3c0.1-0.1,0.3-0.3,0.4-0.4c1.6,4.7,5.6,8.5,10.6,9.6
		c1.5,0.3,2.9,0.3,4.2,0.2c1.4,0.7,2.8,1.3,4.4,1.8c4.8,1.4,10.2,1.1,14.9-0.7c6.1-2.4,8.4-8,7-13.1c0.3,0.1,0.5,0.2,0.8,0.3
		c3.4,1,6.6,0.2,9.7-1.3c0.1,0.1,0.1,0.2,0.2,0.4c0,0.1,0,0.1-0.1,0.2c-1.5,2.6-2,5.5-0.6,8.6c1.6,3.5,5,5.7,8.9,5.7
		c0.2,0.6,0.8,0.8,1.7,0.5c1.5,0.3,3,0.2,4.4-0.3c1.6-0.5,3.3-1.5,4.8-2.3c2.1-1,4.1-2.1,6.2-3.1c9.8-5,5.5-20.3-4.3-21.6
		c-0.3-1.3-0.9-2.5-1.6-3.7c2,1.3,4.7,2,7.1,1.3c2.7,1.4,6.1,1.6,8.6-0.3l2.5-1.9c0.3-0.3,0.7-0.6,1-0.8c1,1.3,2.1,2.5,3.3,3.4
		c1.7,1.9,4.1,2.9,6.7,3c0.5,0.1,1,0.1,1.6,0.1c-3.9,1.6-7.5,4.7-9.1,8.5c-5.2,11.7,3.5,24.2,15.1,27.2c5.3,1.4,11.7,1.1,16.4-2
		c2.5-1.7,4.4-3.9,5.6-6.4c0.5,0.4,0.9,0.9,1.5,1.2c0.2,0.1,0.4,0.2,0.6,0.3c4.6,4.5,12.3,5.3,17.8,1.8
		C1195.3,1484.1,1197.6,1475.2,1192.5,1468.8z"/>
	<path class="st19" d="M1006.6,1460.3c-6.4,1.8-10.7,7.2-11.6,13.7c-0.8,6.3,1.8,15,7.5,18.3c1,0.6,2.3-0.3,2.2-1.4
		c-0.3-4.5-2.9-8.3-3.2-12.8c-0.4-5.2,1.6-10.3,6.9-11.8C1012.4,1465.2,1010.6,1459.2,1006.6,1460.3z"/>
	<path class="st19" d="M1070.7,1442.1c-0.9,1.1-1.9,2.1-3,3.1c-3.7-2.5-7.9-3.8-12.5-3.5c-3.9,0.3-3.7,6.2,0.2,6.1
		c4-0.1,7.4,1.2,10.2,4c1,1,2.8,1.2,4,0.4c2.2-1.6,4.3-3.3,6.1-5.4C1078.7,1443.6,1073.5,1438.7,1070.7,1442.1z"/>
	<path class="st19" d="M1173.7,1424.4c-1.2-0.3-2.5,0.1-3.7,0.4c-1.1,0.3-2.2,0.5-3.3,0.8l0,0c-3-5.4-11.7-7.4-17.2-7.2
		c-5.7,0.2-5.4,8.8,0.3,8.8c2.6,0,5,0.6,7.3,1.9c2.4,1.3,4.1,3,6.9,3.4c1.4,0.2,2.8-0.4,3.4-1.6c0.3,0,0.6,0,0.9-0.1l3.2-1.1
		c1.2-0.4,2.4-0.7,3.3-1.7C1175.9,1426.8,1175.3,1424.9,1173.7,1424.4z"/>
	<path class="st19" d="M1147.6,1484.2c-1.8-3.6-6.9-3.3-9.9-1.7c-1.8,1-2.5,3.8-1.3,5.5c1.2,1.8,3.6,2.5,5.5,1.3
		c0.1-0.1,0.2-0.1,0.3-0.2c0,0,0,0,0.1,0s0.1,0,0.2,0l0,0c0.2,0,0.4,0.1,0.6,0.2c0.6,0.1,1.2,0.1,1.8,0.1
		C1147.6,1489.4,1148.8,1486.5,1147.6,1484.2z"/>
	<path class="st19" d="M1152.5,1459.1c-0.8-0.5-1.6-1.1-2.4-1.6c-0.5-0.4-1.5-0.4-2.1-0.2c-0.7,0.2-1.4,0.7-1.7,1.4
		c-0.7,1.5-0.1,2.9,1.1,3.7c0.8,0.5,1.6,1.1,2.4,1.6c0.5,0.4,1.5,0.4,2.1,0.2c0.7-0.2,1.4-0.7,1.7-1.4
		C1154.4,1461.4,1153.8,1459.9,1152.5,1459.1z"/>
	<path class="st19" d="M1053.9,1487.6c-1.2-0.3-2.3-0.3-3.6-0.2c-1.8,0.1-3.6,1.1-4.4,2.7c-0.6,1.2-0.8,2.5-0.4,3.8s1.3,2.4,2.5,3.1
		c1.6,0.8,3.5,0.8,5-0.1c1.1-0.6,2.1-1.2,2.9-2.2C1058.2,1492.2,1057,1488.4,1053.9,1487.6z"/>
	<path class="st19" d="M1060.3,1460.7c-2.1-0.4-4.8,0.8-5.1,3.2c-0.1,1.2-0.4,2.5-0.4,3.7c0,1.4,0.6,2.5,1.2,3.7
		c0.8,1.8,3.6,1.8,4.8,0.5c0.9-1,1.8-1.8,2.2-3.2c0.3-0.9,0.4-1.9,0.6-2.8C1064,1463.6,1062.6,1461.1,1060.3,1460.7z"/>
	<path class="st19" d="M1215.4,1469.3c-1.2-2-3.5-2.4-5.5-1.8c-0.8-1.8-2.1-3.4-3.8-4.4c-1.6-1-3.7-0.1-4.6,1.4
		c-1.3,2.1-0.9,4.3,0.4,5.9l0,0c-0.4,0.7-0.8,1.1-1.4,1.7c-0.9,1-0.4,2.5,0.9,2.9c0.4,0.1,0.7,0.2,1.1,0.3c0.6,0.9,1.5,1.7,2.5,1.8
		c3.3,0.5,5.9-0.1,8.9-1.5C1216.1,1474.5,1216.6,1471.3,1215.4,1469.3z"/>
	<path class="st19" d="M1226.4,1463c-0.8-1.9-2.7-3.2-4.8-2.6c-1.9,0.5-3.4,2.8-2.6,4.8c1.1,2.9,0.7,5.9,0.1,8.8
		c-0.7,3,3.1,4.9,5.2,2.8C1227.9,1473,1228.2,1467.7,1226.4,1463z"/>
	<path class="st20" d="M1676.2,1245.7c-11.9-12.1-30.2-9.4-45-5.6c-5,1.3-6.2,5.7-4.8,9.3c-3.1,5.9-3.8,13.4-3.3,20.7
		c0.5,6.4,6.8,12.1,13.5,9.8c9.8-3.5,21.5,3.8,26.6,11.9c4.1,6.4,14.6,5.1,16.2-2.6C1682.2,1276.1,1686.9,1256.5,1676.2,1245.7z"/>
	<path class="st20" d="M1685.1,1384.6c0-0.1,0-0.2,0-0.3c0.7-9.2-7.4-17.7-12.3-25c-5.4-8.1-10.5-16.1-14.9-24.8
		c0.6-3,1.5-6.1,3.1-9.4c3.7-7.7-6.9-16.5-12.9-9.2c-4.7,5.8-9.3,10.1-16.5,12.6c-3.9,1.4-5,4.7-4.1,7.6c-0.1,0.7-0.2,1.5-0.2,2.3
		c0,8.5,0.1,17,0.1,25.4c0,6.9-0.8,14.6,0.9,21.3c4,15.6,16.8,16.1,30.2,16.9c10.6,0.7,26.9,1.7,27-13.7
		C1685.6,1387.1,1685.4,1385.9,1685.1,1384.6z"/>
	<path class="st21" d="M1655.2,1238.9c-2-8.3-13.2-5.2-13.8,2.2c0,0.1,0,0.1,0,0.2c-2.7-5.4-12.4-4.2-12.2,3.1
		c0.2,7.8-0.5,16.2,2.1,23.6c1.3,3.8,5.6,4.7,8.4,2.9c0.5,3,1.5,6,3.1,8.6c2.1,3.4,7.1,4,9.8,1
		C1662.7,1269.5,1658.3,1251.8,1655.2,1238.9z"/>
	<path class="st21" d="M1655.8,1365.8c-0.4-15.4-1-30.7-1.6-46c-0.3-8.8-12.9-8.1-13.5,0.4c-0.2,2.3-0.3,4.7-0.5,7
		c-4.6-2.1-11.1,0.2-11.2,7c-0.2,18-2.9,44.1,9.2,58.7c0.2,0.3,0.5,0.5,0.8,0.7c0.6,1.5,1.4,2.9,2.4,4.3c2,2.7,6.6,4.2,9.2,1
		C1658.2,1389.1,1656.1,1377.7,1655.8,1365.8z"/>
	<path class="st2" d="M1532.9,1064.9c-51.1-37.4-102.3-72.3-149.5-115c-48.1-43.6-93.9-92.6-131.9-145.3c-4-5.6-12.7-0.5-9.2,5.6
		c0.9,1.5,1.8,2.9,2.7,4.4c-0.5,0.7-0.9,1.6-1.1,2.7c-6.9,41.3-13.4,81.9-14.5,123.9c-1,40.1-4,85,6.2,124.1
		c1.4,5.5,10.7,5.6,11.4-0.3c4.8-37,0.5-75.8,1.8-113.1c1.4-40,2.7-80.5,6.2-120.5c64.2,103.5,152.9,200.4,265.1,251.4
		C1530.7,1087.5,1543.5,1072.7,1532.9,1064.9z"/>
	<path class="st10" d="M1009.5,1493.9c-16.8-7-45.2-19.3-48.1-40.1c-1.5-10.9,6.5-20.2,13.5-27.6c7.8-8.3,16.8-15.3,26.4-21.2
		c37.5-22.9,85.4-32,128.9-31.9c24.3,0.1,48.9,2.9,72.1,9.9c21,6.3,43.3,18.3,50.9,40.3c13.8,40.1-36.3,62-66,72.2
		C1129.7,1515.3,1066.4,1516.7,1009.5,1493.9c-7-2.8-10.1,8.5-3.1,11.3c57.3,23,121.8,22.1,180.1,2.9c34.4-11.3,86.4-33.7,80.3-78.3
		c-7.5-54.8-79.4-66.1-123.5-68.2c-49.5-2.4-105,7-147.8,33.2c-19.6,12-49,34.2-45.5,60.4c3.5,26.4,34.9,41,56.5,49.9
		C1013.4,1508.1,1016.4,1496.7,1009.5,1493.9z"/>
	<path class="st10" d="M1255.6,1436.6c0.8,60.1-36,115.5-93.4,135.3c-50.2,17.3-117.2,10.8-157.7-25.8
		c-25.1-22.7-37.4-54.6-41.9-87.5c-1-7.5-12.3-4.3-11.3,3.1c4.3,31.5,15.8,62.1,37.7,85.6c19.3,20.6,45.2,33.8,72.5,40
		c62.5,14.2,132.3-1.1,173.2-53c21.8-27.8,33.1-62.4,32.6-97.7C1267.2,1429,1255.5,1429,1255.6,1436.6L1255.6,1436.6z"/>
	<path class="st8" d="M1008.4,1525.7c4,7.5,10.7,13.3,17.3,18.5c6.6,5.1,13.6,9.6,20.9,13.5c2.7,1.4,6.5,0.8,8-2.1
		c1.4-2.7,0.8-6.5-2.1-8c-6.9-3.7-13.5-7.9-19.7-12.6c-0.5-0.4,0.5,0.4-0.4-0.3c-0.4-0.3-0.9-0.7-1.3-1c-0.8-0.6-1.6-1.3-2.3-1.9
		c-1.5-1.3-3-2.7-4.5-4.2c-1.3-1.3-2.5-2.7-3.6-4.1c0.9,1.1-0.1-0.1-0.2-0.3c-0.3-0.4-0.5-0.7-0.8-1.1c-0.5-0.7-0.9-1.5-1.3-2.2
		c-1.4-2.7-5.4-3.8-8-2.1C1007.8,1519.4,1006.9,1522.8,1008.4,1525.7L1008.4,1525.7z"/>
	<g>
		<path class="st8" d="M1068.8,1564.4c7.6,0,7.6-11.7,0-11.7C1061.2,1552.6,1061.2,1564.4,1068.8,1564.4L1068.8,1564.4z"/>
	</g>
	<path class="st8" d="M930.8,1414.8c-8.1,12.2-14,26-17.1,40.3c-0.8,3.7,4.8,5.3,5.7,1.6c3.1-13.9,8.7-27.1,16.5-38.9
		C937.9,1414.6,932.8,1411.7,930.8,1414.8L930.8,1414.8z"/>
	<path class="st8" d="M908.8,1417.9c-1.4,3.6-2.9,7.3-4.3,10.9c-0.3,0.7-0.1,1.7,0.3,2.3c0.4,0.6,1.1,1.2,1.8,1.3
		c0.8,0.2,1.6,0.1,2.3-0.3s1.1-1,1.3-1.8c1.4-3.6,2.9-7.3,4.3-10.9c0.3-0.7,0.1-1.7-0.3-2.3c-0.4-0.6-1.1-1.2-1.8-1.3
		c-0.8-0.2-1.6-0.1-2.3,0.3C909.5,1416.6,909.1,1417.2,908.8,1417.9L908.8,1417.9z"/>
	<path class="st22" d="M1250,1780.2c-410.2,0-743.8-333.7-743.8-743.8S839.8,292.5,1250,292.5s743.8,333.7,743.8,743.8
		S1660.2,1780.2,1250,1780.2z M1250,340.4c-383.7,0-695.9,312.2-695.9,695.9s312.2,695.9,695.9,695.9s695.9-312.2,695.9-695.9
		S1633.7,340.4,1250,340.4z"/>
	<g>
		<g>
			<path class="st22" d="M1881.6,1180.5l-21-4.7l-4,17.2c-1.4,5.7-3.2,11.3-4.7,17l20.7,5.9c1.6-5.8,3.4-11.7,4.9-17.5
				L1881.6,1180.5z"/>
			<path class="st22" d="M1892.7,1116.2l-21.4-2.6l-2.2,17.5c-0.8,5.8-2,11.6-3,17.3l21.2,3.8c1-6,2.2-11.9,3.1-17.9L1892.7,1116.2z
				"/>
			<polygon class="st22" points="1897.3,1051.3 1875.7,1050.8 1875.3,1068.4 1874,1086 1895.5,1087.6 1896.8,1069.5 			"/>
		</g>
		<g>
			<path class="st22" d="M1810.7,1362.6l-18.7-10.7c-3,5.1-5.8,10.2-8.9,15.2l-9.5,14.8l18.1,11.8l9.8-15.3
				C1804.7,1373.2,1807.6,1367.8,1810.7,1362.6z"/>
			<polygon class="st22" points="1840.4,1304.4 1820.7,1295.6 1813.4,1311.7 1805.4,1327.3 1824.5,1337.2 1832.8,1321 			"/>
			<polygon class="st22" points="1864,1243.8 1843.5,1237 1837.9,1253.7 1831.5,1270.1 1851.5,1278 1858.1,1261.1 			"/>
		</g>
		<g>
			<polygon class="st22" points="1689.2,1515.7 1674.5,1499.9 1668.1,1506 1661.5,1511.7 1648.2,1523.3 1662,1539.8 1675.8,1527.9 
				1682.6,1521.9 			"/>
			<path class="st22" d="M1734.7,1468.8l-16.2-14.2c-7.5,9.1-15.9,17.3-23.9,25.8l15.4,15.1
				C1718.2,1486.7,1726.9,1478.2,1734.7,1468.8z"/>
			<path class="st22" d="M1775.1,1417.9l-17.5-12.6c-6.6,9.7-14,18.8-21.3,28.1l16.8,13.5
				C1760.6,1437.3,1768.3,1427.9,1775.1,1417.9z"/>
		</g>
		<g>
			<path class="st22" d="M1528.2,1626.4l-9.4-19.4c-10.6,5-21.3,9.8-32.1,14.5l8.3,19.9C1506.2,1636.6,1517.2,1631.6,1528.2,1626.4z
				"/>
			<path class="st22" d="M1585.4,1595l-11.3-18.4c-10,6.2-20.3,11.8-30.4,17.7l10.3,19C1564.4,1607.2,1575.1,1601.3,1585.4,1595z"/>
			<path class="st22" d="M1639,1558.1l-13-17.1c-9.2,7.3-19,13.7-28.5,20.6l12.1,17.8C1619.3,1572.3,1629.5,1565.6,1639,1558.1z"/>
		</g>
		<g>
			<path class="st22" d="M1341.6,1684.5l-3.2-21.3c-11.7,1.4-23.3,3.1-35,4.3l2.1,21.5C1317.5,1687.8,1329.5,1686,1341.6,1684.5z"/>
			<path class="st22" d="M1405.6,1671.5l-5.4-20.9c-11.5,2.5-22.8,5.5-34.4,7.7l4.2,21.1C1382,1677.2,1393.7,1674.1,1405.6,1671.5z"
				/>
			<path class="st22" d="M1467.7,1652.2l-7.4-20.2c-11.1,3.7-22.2,7.7-33.4,11.1l6.3,20.6C1444.8,1660.2,1456.2,1656,1467.7,1652.2z
				"/>
		</g>
		<g>
			<path class="st22" d="M1146.1,1685l3.1-21.3c-11.6-1.7-23.1-4-34.7-6l-4.3,21.1C1122.2,1680.9,1134.1,1683.3,1146.1,1685z"/>
			<path class="st22" d="M1211.1,1691.3l1-21.5c-11.7-0.6-23.4-1.7-35.1-2.5l-2.2,21.4C1186.9,1689.5,1199,1690.6,1211.1,1691.3z"/>
			<path class="st22" d="M1276.2,1691.2l-1.1-21.5c-11.7,0.3-23.5,0.7-35.2,0.8l-0.1,21.6
				C1251.9,1691.9,1264.1,1691.5,1276.2,1691.2z"/>
		</g>
		<g>
			<path class="st22" d="M959.2,1628l9.3-19.4c-10.5-5.3-21-10.5-31.3-16.1l-10.4,18.9C937.5,1617.2,948.3,1622.6,959.2,1628z"/>
			<path class="st22" d="M1019.4,1653.2l7.3-20.3c-11-4.1-21.9-8.5-32.8-12.8l-8.4,19.8C996.8,1644.5,1008,1649,1019.4,1653.2z"/>
			<path class="st22" d="M1081.7,1672.2l5.3-20.9c-11.4-2.9-22.6-6.3-33.9-9.5l-6.4,20.6C1058.3,1665.7,1069.9,1669.2,1081.7,1672.2
				z"/>
		</g>
		<g>
			<path class="st22" d="M797.5,1518.2l14.6-15.8l-12.7-12.2c-2.1-2-4.3-4-6.3-6.1l-6.1-6.4l-15.5,15l6.3,6.6
				c2.1,2.2,4.4,4.2,6.6,6.3L797.5,1518.2z"/>
			<path class="st22" d="M847.6,1560.1l13-17.2l-13.8-10.9c-4.6-3.6-9.3-7.2-13.6-11.2l-13.9,16.5c4.5,4.1,9.3,7.8,14.1,11.5
				L847.6,1560.1z"/>
			<path class="st22" d="M901.4,1596.7l11.2-18.4c-9.8-6.4-19.9-12.5-29.5-19.2l-12.2,17.8C880.8,1583.8,891.2,1590.1,901.4,1596.7z
				"/>
		</g>
		<g>
			<path class="st22" d="M675.2,1365.8l18.6-10.9l-8.8-15.3c-2.8-5.2-5.4-10.4-8.1-15.6l-19.2,9.8c2.8,5.4,5.5,10.8,8.4,16.2
				L675.2,1365.8z"/>
			<path class="st22" d="M710.8,1420.5l17.5-12.6l-10.2-14.3c-3.4-4.8-6.4-9.8-9.6-14.7l-18.1,11.7c3.3,5.1,6.4,10.3,10,15.2
				L710.8,1420.5z"/>
			<path class="st22" d="M751.5,1471.3l16.1-14.3c-7.7-8.9-15.5-17.6-22.6-27l-16.9,13.4C735.5,1453.1,743.6,1462.1,751.5,1471.3z"
				/>
		</g>
		<g>
			<path class="st22" d="M603.3,1184.1l21-4.8c-1.3-5.7-2.7-11.4-3.9-17.2l-3.1-17.3l-21.2,3.7l3.2,17.9
				C600.5,1172.3,602,1178.2,603.3,1184.1z"/>
			<path class="st22" d="M621.1,1246.9l20.4-6.9c-1.8-5.6-3.8-11.1-5.6-16.7l-4.8-16.9l-20.8,5.8l5,17.5
				C617.1,1235.4,619.2,1241.2,621.1,1246.9z"/>
			<polygon class="st22" points="645,1307.4 664.7,1298.5 657.5,1282.4 651,1266.1 630.9,1273.9 637.6,1290.8 			"/>
		</g>
		<g>
			<path class="st22" d="M588.3,989.3l21.5,1.5l1.3-17.6c0.6-5.8,1.4-11.6,2.1-17.5l-21.4-2.7c-0.7,6-1.6,12-2.2,18.1L588.3,989.3z"
				/>
			<polygon class="st22" points="586.8,1054.5 608.4,1054 607.9,1036.3 608.4,1018.7 586.8,1018.1 586.4,1036.3 			"/>
			<path class="st22" d="M591.8,1119.4l21.4-2.7c-0.7-5.8-1.6-11.6-2.1-17.5l-1.3-17.6l-21.5,1.5l1.4,18.2
				C590.2,1107.4,591.1,1113.4,591.8,1119.4z"/>
		</g>
		<g>
			<polygon class="st22" points="631,798.6 651.1,806.5 657.6,790.1 664.8,774 645.2,765.1 637.7,781.7 			"/>
			<path class="st22" d="M610.4,860.6l20.8,5.8l4.8-16.9c1.7-5.6,3.7-11.1,5.6-16.7l-20.4-6.9c-1.9,5.8-4,11.5-5.8,17.3L610.4,860.6
				z"/>
			<path class="st22" d="M596.2,924.1l21.2,3.7l3.1-17.3c1.1-5.8,2.6-11.4,3.9-17.2l-21-4.9c-1.3,5.9-2.8,11.8-4,17.8L596.2,924.1z"
				/>
		</g>
		<g>
			<path class="st22" d="M728.4,629.2l16.9,13.4c7.1-9.4,15-18.1,22.6-27l-16.1-14.3C743.9,610.5,735.7,619.5,728.4,629.2z"/>
			<path class="st22" d="M690.4,682.3l18.1,11.7c3.2-4.9,6.2-10,9.6-14.7l10.2-14.3l-17.5-12.7L700.4,667
				C696.8,672,693.7,677.2,690.4,682.3z"/>
			<path class="st22" d="M658,738.7l19.2,9.8c2.7-5.2,5.3-10.5,8.1-15.6l8.8-15.3l-18.6-10.9l-9.1,15.8
				C663.4,727.8,660.8,733.3,658,738.7z"/>
		</g>
		<g>
			<path class="st22" d="M871.2,495.8l12.2,17.8c9.6-6.7,19.7-12.8,29.5-19.2L901.7,476C891.5,482.6,881.1,488.8,871.2,495.8z"/>
			<path class="st22" d="M819.3,535.4l13.9,16.5c4.4-3.9,9-7.5,13.6-11.1l13.8-10.9l-13-17.2l-14.3,11.2
				C828.6,527.6,823.8,531.4,819.3,535.4z"/>
			<polygon class="st22" points="771.8,579.8 787.2,594.8 793.3,588.4 799.6,582.4 812.4,570.2 797.8,554.4 784.6,566.9 778,573.2 
							"/>
		</g>
		<g>
			<path class="st22" d="M1046.9,410.3l6.4,20.6c11.3-3.1,22.5-6.6,33.9-9.4l-5.2-20.9C1070.2,403.5,1058.6,407.1,1046.9,410.3z"/>
			<path class="st22" d="M985.7,432.8l8.4,19.8c10.9-4.3,21.8-8.8,32.8-12.8l-7.3-20.3C1008.2,423.7,996.9,428.3,985.7,432.8z"/>
			<path class="st22" d="M927.1,461.3l10.4,18.9c10.3-5.5,20.8-10.8,31.3-16.1l-9.3-19.5C948.7,450.1,937.8,455.6,927.1,461.3z"/>
		</g>
		<g>
			<path class="st22" d="M1240.2,380.8l0.1,21.6c11.7,0.1,23.5,0.5,35.2,0.8l1.1-21.5C1264.4,381.3,1252.3,381,1240.2,380.8z"/>
			<path class="st22" d="M1175,384.2l2.2,21.5c11.7-0.8,23.4-1.9,35.1-2.5l-1-21.5C1199.2,382.2,1187.1,383.3,1175,384.2z"/>
			<path class="st22" d="M1110.6,394l4.3,21.1c11.6-2,23.1-4.3,34.7-6l-3.1-21.3C1134.5,389.5,1122.6,391.9,1110.6,394z"/>
		</g>
		<g>
			<path class="st22" d="M1433.5,409.3l-6.3,20.6c11.2,3.4,22.3,7.4,33.4,11.1l7.4-20.2C1456.6,416.9,1445.1,412.8,1433.5,409.3z"/>
			<path class="st22" d="M1370.2,393.4l-4.2,21.1c11.5,2.3,22.9,5.2,34.3,7.7l5.4-20.9C1393.9,398.7,1382.1,395.7,1370.2,393.4z"/>
			<path class="st22" d="M1305.8,383.9l-2.1,21.5c11.7,1.2,23.3,2.9,35,4.3l3.3-21.3C1329.9,386.9,1317.9,385.1,1305.8,383.9z"/>
		</g>
		<g>
			<path class="st22" d="M1609.8,493.6l-12.1,17.8l14.3,10.2c4.8,3.4,9.6,6.7,14.2,10.4l13.1-17.1c-4.7-3.8-9.7-7.3-14.7-10.8
				L1609.8,493.6z"/>
			<path class="st22" d="M1554.1,459.7l-10.3,19c10.2,5.9,20.5,11.5,30.4,17.7l11.3-18.4C1575.2,471.6,1564.6,465.8,1554.1,459.7z"
				/>
			<path class="st22" d="M1495.4,431.6l-8.3,19.9c10.7,4.7,21.5,9.5,32.1,14.5l9.4-19.4C1517.6,441.4,1506.5,436.4,1495.4,431.6z"/>
		</g>
		<g>
			<path class="st22" d="M1753.4,626.3l-16.8,13.5c7.3,9.2,14.6,18.4,21.3,28.1l17.5-12.6C1768.5,645.3,1760.9,635.8,1753.4,626.3z"
				/>
			<path class="st22" d="M1710,577.4l-15.4,15.1c8,8.6,16.4,16.8,23.9,25.8l16.2-14.2C1727,594.8,1718.3,586.3,1710,577.4z"/>
			<polygon class="st22" points="1662.3,533.3 1648.4,549.8 1661.8,561.3 1668.4,567.1 1674.8,573.2 1689.5,557.4 1682.9,551.2 
				1676,545.2 			"/>
		</g>
		<g>
			<path class="st22" d="M1851.6,795.2l-20,7.9c2.1,5.5,4.4,10.9,6.4,16.4l5.6,16.7l20.5-6.8l-5.8-17.2
				C1856.1,806.4,1853.8,800.8,1851.6,795.2z"/>
			<polygon class="st22" points="1824.6,735.8 1805.5,745.7 1813.5,761.3 1820.7,777.4 1840.4,768.5 1832.9,752 			"/>
			<path class="st22" d="M1791.9,679.5l-18.1,11.8l9.5,14.8c3.1,5,5.9,10.2,8.9,15.2l18.7-10.7c-3.1-5.2-6-10.6-9.2-15.7
				L1791.9,679.5z"/>
		</g>
		<g>
			<polygon class="st22" points="1895.5,985.6 1874,987.2 1875.3,1004.8 1875.7,1022.4 1897.3,1021.9 1896.8,1003.7 			"/>
			<path class="st22" d="M1887.3,920.8l-21.2,3.8c1,5.8,2.2,11.5,3,17.3l2.2,17.5l21.4-2.6l-2.3-18.1
				C1889.5,932.8,1888.3,926.8,1887.3,920.8z"/>
			<path class="st22" d="M1872.7,857.4l-20.7,5.9c1.5,5.7,3.3,11.3,4.7,17l4,17.2l21-4.7l-4.1-17.7
				C1876.2,869.1,1874.3,863.3,1872.7,857.4z"/>
		</g>
	</g>
	<g>
		<path class="st8" d="M2072.9,1115l-2.9-22c-0.9-6.6-5-12.4-11-15.5l-19.8-10c-15.1-7.6-14.8-29.2,0.4-36.6l20-9.6
			c6-2.9,10.3-8.6,11.3-15.2l3.4-21.9c2.6-16.7,23.2-23.1,34.9-10.9l15.3,16c4.6,4.9,11.4,7.1,18,6.1l21.9-3.5
			c16.7-2.7,29.2,14.9,21.2,29.8l-10.5,19.5c-3.2,5.9-3.3,13-0.2,19l10.1,19.7c7.7,15-5.2,32.4-21.8,29.3l-21.8-4
			c-6.6-1.2-13.4,0.9-18.1,5.7l-15.6,15.7C2095.6,1138.7,2075.2,1131.8,2072.9,1115z"/>
		<path class="st8" d="M2029.5,1267.1l0.3-16.7c0.1-5.1-2.3-9.8-6.4-12.8l-13.6-9.7c-10.4-7.4-7.8-23.5,4.4-27.2l16-4.9
			c4.8-1.5,8.6-5.2,10.1-10.1l5-15.9c3.8-12.1,19.9-14.6,27.2-4.2l9.6,13.7c2.9,4.1,7.7,6.6,12.7,6.5l16.7-0.1
			c12.7-0.1,20.1,14.4,12.4,24.6l-10,13.3c-3,4-3.9,9.3-2.3,14.1l5.3,15.8c4,12.1-7.5,23.5-19.6,19.4l-15.8-5.4
			c-4.8-1.6-10.1-0.8-14.1,2.2l-13.4,9.9C2043.8,1287.3,2029.3,1279.8,2029.5,1267.1z"/>
		<path class="st8" d="M1972.7,1378.4l2.7-12.9c0.8-3.9-0.3-8-3.1-10.8l-9.1-9.5c-6.9-7.3-2.5-19.3,7.5-20.4l13.1-1.4
			c4-0.4,7.5-2.8,9.4-6.3l6.3-11.6c4.8-8.8,17.6-8.3,21.7,0.8l5.4,12c1.6,3.6,4.9,6.2,8.9,7l12.9,2.4c9.9,1.8,13.4,14.2,5.9,20.9
			l-9.8,8.8c-3,2.7-4.4,6.6-3.9,10.6l1.7,13c1.3,9.9-9.3,17.1-18,12.1l-11.4-6.6c-3.5-2-7.7-2.2-11.3-0.4l-11.9,5.7
			C1980.7,1396.2,1970.6,1388.3,1972.7,1378.4z"/>
		<ellipse class="st8" cx="1948.9" cy="1418.6" rx="16.2" ry="16.2"/>
	</g>
	<g>
		<path class="st8" d="M422.1,1123.1l3-22c0.9-6.6,5-12.4,11-15.5l19.8-10c15.1-7.6,14.8-29.2-0.4-36.6l-20-9.6
			c-6-2.9-10.3-8.6-11.3-15.2l-3.4-21.9c-2.6-16.7-23.2-23.1-34.9-10.9l-15.3,16c-4.6,4.9-11.4,7.1-18,6.1l-21.9-3.5
			c-16.7-2.7-29.2,14.9-21.2,29.8l10.5,19.5c3.2,5.9,3.3,13,0.2,19l-10.1,19.7c-7.7,15,5.2,32.4,21.8,29.3l21.8-4
			c6.6-1.2,13.4,0.9,18.1,5.7l15.6,15.7C399.4,1146.7,419.9,1139.8,422.1,1123.1z"/>
		<path class="st8" d="M465.5,1275.2l-0.3-16.7c-0.1-5.1,2.3-9.8,6.4-12.8l13.6-9.7c10.4-7.4,7.8-23.5-4.4-27.2l-16-4.9
			c-4.8-1.5-8.6-5.2-10.1-10.1l-5-15.9c-3.8-12.1-19.9-14.6-27.2-4.2l-9.6,13.7c-2.9,4.1-7.7,6.6-12.7,6.5l-16.7-0.1
			c-12.7-0.1-20.1,14.4-12.4,24.6l10,13.3c3,4,3.9,9.3,2.3,14.1l-5.3,15.8c-4,12.1,7.5,23.5,19.6,19.4l15.8-5.4
			c4.8-1.6,10.1-0.8,14.1,2.2l13.4,9.9C451.3,1295.3,465.7,1287.9,465.5,1275.2z"/>
		<path class="st8" d="M522.4,1386.5l-2.7-12.9c-0.8-3.9,0.3-8,3.1-10.8l9.1-9.5c6.9-7.3,2.5-19.3-7.5-20.4l-13.1-1.4
			c-4-0.4-7.5-2.8-9.4-6.3l-6.3-11.6c-4.8-8.8-17.6-8.3-21.7,0.8l-5.4,12c-1.6,3.6-4.9,6.2-8.9,7l-12.9,2.4
			c-9.9,1.8-13.4,14.2-5.9,20.9l9.8,8.8c3,2.7,4.4,6.6,3.9,10.6l-1.7,13c-1.3,9.9,9.3,17.1,18,12.1l11.4-6.6c3.5-2,7.7-2.2,11.3-0.4
			l11.9,5.7C514.3,1404.2,524.4,1396.3,522.4,1386.5z"/>
		
			<ellipse transform="matrix(0.9584 -0.2854 0.2854 0.9584 -384.4733 215.2174)" class="st8" cx="546.2" cy="1426.7" rx="16.2" ry="16.2"/>
	</g>
	<path class="st10" d="M1352,1365c82.7-21.9,167.2-36,249.9-57.9c7.3-1.9,4.2-13.3-3.1-11.3c-82.7,21.9-167.2,36-249.9,57.9
		C1341.5,1355.6,1344.6,1367,1352,1365L1352,1365z"/>
	<path class="st10" d="M1596.5,1303.8c4.5,28.9,7.2,58,8.1,87.2c0.2,7.5,12,7.6,11.7,0c-1-30.3-3.9-60.4-8.6-90.3
		C1606.6,1293.2,1595.3,1296.4,1596.5,1303.8L1596.5,1303.8z"/>
	<path class="st10" d="M1605.9,1383.7c-34.2,20.4-71.6,34.1-108.8,47.8c-37.2,13.7-73.8,30.1-113,37.2c-7.4,1.3-4.3,12.7,3.1,11.3
		c40-7.2,77.6-24.1,115.5-38.1c37.4-13.7,74.8-27.7,109.1-48.1C1618.3,1390,1612.4,1379.8,1605.9,1383.7L1605.9,1383.7z"/>
	<path class="st2" d="M1119.5,1254.7c0,38.1-27.3,69.9-63.4,76.8c-40.8-21.7-74.4-52.9-91.4-93.4c7.6-35.2,38.9-61.7,76.5-61.7
		C1084.4,1176.4,1119.5,1211.5,1119.5,1254.7z"/>
	<path class="st2" d="M1500,1234.5c-18.1,45-51.6,78.5-92.9,100.8c-34.2-8.4-59.6-39.3-59.6-76.1c0-43.2,35.1-78.2,78.3-78.2
		C1460.3,1181.1,1489.6,1203.5,1500,1234.5z"/>
	<path class="st10" d="M1314.5,1371.7c46.5-7.1,92-24,129.2-53.3c34.6-27.3,59-64.8,70.2-107.4c1.9-7.3-9.4-10.4-11.3-3.1
		c-10.7,40.9-34.1,76.5-67.5,102.5c-35.7,27.7-79.4,43.3-123.7,50.1C1304,1361.5,1307.1,1372.8,1314.5,1371.7L1314.5,1371.7z"/>
	<path class="st10" d="M1521,1059.6c-1.7,22.2-4.7,44.2-6.4,66.4c-0.6,7.5,11.2,7.5,11.7,0c1.7-22.2,4.7-44.2,6.4-66.4
		C1533.3,1052.1,1521.6,1052.1,1521,1059.6L1521,1059.6z"/>
	<path class="st10" d="M1170,1360.9c-92.6-11.8-200.9-65.6-210.9-169.5c-0.7-7.5-12.5-7.5-11.7,0c3.7,38.9,20.6,74.2,47.7,102.2
		c28,28.9,64.3,48.9,102,62.2c23.6,8.3,48.1,13.7,72.9,16.8C1177.4,1373.6,1177.4,1361.8,1170,1360.9L1170,1360.9z"/>
	<path class="st10" d="M935.6,1082.3c0.8,18.8,1.9,37.5,3.7,56.2c0.3,3.2,2.5,5.9,5.9,5.9c2.9,0,6.2-2.7,5.9-5.9
		c-1.8-18.7-2.8-37.4-3.7-56.2C947,1074.8,935.3,1074.7,935.6,1082.3L935.6,1082.3z"/>
	<path class="st10" d="M1532.7,1084.4c21.9-2.4,40,10.5,48.5,30.2c7.5,17.3,7.1,37.3,2.3,55.2c-5,18.6-15,34.2-29,47.2
		c-16.3,15.1-37.7,28.4-60.4,29.9c-7.5,0.5-7.6,12.2,0,11.7c36.8-2.4,74.9-30.3,91.8-62.6c15.1-29,19-67.9,0.6-96.4
		c-11.8-18.3-31.8-29.3-53.8-26.9C1525.3,1073.4,1525.2,1085.2,1532.7,1084.4L1532.7,1084.4z"/>
	<path class="st10" d="M941.8,1081c-19.1-2.6-37.6,4-49.7,19.3c-12,15.2-18.3,35.1-20.5,54.2c-4.4,38,10.7,77,44.3,97
		c17.3,10.3,37.4,14.3,57.2,10.6c7.4-1.4,4.3-12.7-3.1-11.3c-40,7.4-76.4-23.4-85-61.1c-8-34.9,5.3-103.8,53.7-97.2
		C946.1,1093.4,949.3,1082,941.8,1081L941.8,1081z"/>
	<path class="st10" d="M963.2,1533c9.8-0.4,19.2,6.1,26,12.6c6.6,6.4,13.9,15.8,13.4,25.5c-0.2,4.1-2.2,7.5-5.5,10
		c-6.5,4.9-14.3,3.7-21.2,0c-14.1-7.5-24-22.1-27-37.7c-3.6-18.2,3.5-37.3,16.8-49.9c5.5-5.2-2.8-13.5-8.3-8.3
		c-14.8,14.1-23,34.9-20.7,55.3c2.2,19.9,13.6,38.3,30.5,49c8.9,5.6,20.2,8.8,30.3,4.6c6.7-2.8,12.4-7.8,15.1-14.6
		c5.1-12.9-1.9-26.9-10.1-36.8c-9.2-11.3-24.1-22.3-39.4-21.6C955.6,1521.5,955.6,1533.3,963.2,1533L963.2,1533z"/>
	<path class="st10" d="M1175.2,1373.2c22.2,3.5,44.4,6.8,66.9,7.6c24.4,0.8,48.7-1.9,72.7-6.6c7.4-1.5,4.3-12.8-3.1-11.3
		c-23,4.5-46.2,7-69.6,6.2c-21.4-0.7-42.6-3.8-63.8-7.1C1171,1360.7,1167.8,1372.1,1175.2,1373.2L1175.2,1373.2z"/>
	<path class="st10" d="M1247.9,1407.1c30.2,1.2,66.4-1.4,83.4-30.6c3.8-6.5-6.3-12.5-10.1-5.9c-14.7,25.3-47.6,25.8-73.3,24.8
		C1240.3,1395,1240.4,1406.8,1247.9,1407.1L1247.9,1407.1z"/>
	<path class="st10" d="M1611.3,1309c2.3-5.3,4.6-10.7,8.1-15.3c2.4-3.2,4.2-4.7,7.4-6.3c-0.1,0.1,1.6-0.7,0.9-0.4
		c-0.6,0.2,0.5-0.2,0.6-0.2c0.8-0.3,1.6-0.5,2.4-0.7c2.3-0.6,1.7-0.5,4-0.6c0.8,0,1.7,0,2.5,0c0.4,0,2.6,0.2,1.5,0.1
		c1.7,0.2,3.3,0.6,4.9,1.1c0.4,0.1,0.9,0.3,1.3,0.5c0.1,0,1.2,0.5,0.6,0.2c-0.7-0.3,0.9,0.4,0.8,0.4c0.3,0.2,0.7,0.3,1,0.5
		c0.6,0.4,1.3,0.7,1.9,1.1c0.3,0.2,0.6,0.4,0.9,0.6c1.1,0.8-0.4-0.4,0.5,0.4c0.6,0.5,1.2,1.1,1.8,1.7c0.2,0.3,1.6,1.9,1,1.1
		c0.4,0.6,0.8,1.2,1.2,1.8c0.2,0.3,1.2,2.5,0.8,1.6c0.3,0.8,0.6,1.6,0.8,2.4c0.1,0.4,0.5,2.5,0.4,1.6c0.1,0.8,0.1,1.6,0.1,2.4
		c0,0.5-0.2,2.7-0.1,2.2c-0.1,0.3-0.1,0.6-0.2,0.9c-0.3,1.4,0.4-0.7,0,0.1c-0.2,0.3-1.3,1.9-0.7,1.1c-1,1.2-2.5,2.5-3.3,3
		c-6.8,4.8-14.6,8.1-22.8,9.8c-3.1,0.6-4.9,4.3-4.1,7.2c0.9,3.2,4.1,4.7,7.2,4.1c8.7-1.8,17.8-5.6,25.1-10.6c4-2.7,7.9-6.1,9.6-10.8
		c1.6-4.2,1.2-9.6,0.2-13.9c-4.3-17.7-25.9-26.4-42.4-20.8c-12.9,4.4-19.1,15.9-24.2,27.8c-1.3,2.9-0.9,6.3,2.1,8
		C1605.8,1312.5,1610,1311.9,1611.3,1309L1611.3,1309z"/>
	<path class="st10" d="M1668.2,1302c10.4-3.5,23.2-4.5,30.4,5.5c7.2,10,6.3,24,3.8,35.4c-2.2,9.9-7.6,21.4-19,22.7
		c-10.4,1.2-15.9-10-18.3-18.4c-2.8-9.8-4.1-22.3,0.3-31.8c1.3-2.9,0.8-6.3-2.1-8c-2.5-1.5-6.7-0.8-8,2.1
		c-5.6,12.1-5.2,26.6-1.9,39.3c3.4,13.2,11.8,27.3,26.7,28.5c15.6,1.2,27.3-11.4,31.9-25c5-14.6,6.1-33.4-1.2-47.4
		c-4-7.6-10.7-13.5-19-15.9c-8.7-2.5-18.2-1.2-26.7,1.7C1657.9,1293.1,1661,1304.4,1668.2,1302L1668.2,1302z"/>
	<path class="st10" d="M1633.3,1324.9c-4.2,4.2-10,6.9-10.6,13.5c-0.2,2.3-0.2,4.6-0.2,6.9c-0.1,9.4,0.1,18.8,0.3,28.2
		c0.2,7.7,0.2,15.6,1.1,23.3c0.6,5,3,8.2,8.2,9.7c4,1.2,8.5,1.3,12.6,1.7c4.8,0.5,9.6,0.9,14.4,1c5.2,0.2,10.5,0,15.6-0.6
		c4.5-0.6,10-0.9,13.6-3.8c4.2-3.4,3.8-8.5,3.7-13.4c0-5.5-0.1-11-0.1-16.5c0-7.6-11.8-7.6-11.7,0c0,4.1,0,8.2,0.1,12.3
		c0,1.8,0,3.7,0,5.5c0,0.8-0.1,2,0,2.7c-0.2,1.2-0.1,1.4,0.4,0.6c0.5-0.4,0.5-0.6,0-0.4c-0.3-0.3-4.3,0.9-4.9,1
		c-1.7,0.3-3.5,0.5-5.2,0.6c-4.3,0.3-8.6,0.3-13,0.2c-3.9-0.2-7.8-0.5-11.6-0.8c-1.8-0.2-3.6-0.4-5.5-0.6c-1.5-0.2-3.9-1-5.4-0.8
		c-0.9,0.1-0.2-0.4,0,0.5c0.7,3,0.6,1.5,0.5,1.1c-0.1-0.3-0.1-0.6-0.2-0.8c0.2,0.7,0.1,1.3,0,0c0-0.6-0.1-1.1-0.1-1.7
		c-1.2-15.4-1.2-30.9-1.1-46.3c0-2.9,0.1-5.7,0.1-8.6c0-0.3,0.1-0.7,0.1-1c0.1,1.2-0.6,1.4,0.1,0.9c0.8-0.6,1.5-1.6,2.3-2.2
		c1.7-1.3,3.3-2.5,4.8-3.9C1647,1327.9,1638.7,1319.6,1633.3,1324.9L1633.3,1324.9z"/>
	<path class="st10" d="M1352.9,1361.1c3.7,31.1,10.7,62,16.8,92.7c8.1,40.3,16.4,80.5,24.9,120.7c2.9,14,5.9,28.1,8.9,42.1
		c1.5,7.4,12.9,4.3,11.3-3.1c-14.6-69.9-29.8-139.8-43-210c-2.6-13.9-5.6-28.9-7.2-42.4C1363.8,1353.7,1352,1353.6,1352.9,1361.1
		L1352.9,1361.1z"/>
	<path class="st10" d="M1323.2,1368.6c-0.9,38.5,8.5,75.9,14,113.7c1.9-2.5,3.8-5,5.7-7.4c-27.9,1.7-55.9,4.7-83.9,3.9
		c-7.6-0.2-7.6,11.5,0,11.7c28,0.8,56-2.2,83.9-3.9c4.2-0.3,6.2-3.5,5.7-7.4c-5.3-36.8-14.4-73.2-13.5-110.6
		C1335.1,1361,1323.4,1361,1323.2,1368.6L1323.2,1368.6z"/>
	<path class="st10" d="M1614.9,1390.1c1.6-0.9,3.2-1.8,4.9-2.5c-0.5,0.2-0.9,0.4-1.4,0.6c2.9-1.2,6-2.1,9.1-2.5
		c1.4-0.2,2.9-1.6,3.5-2.7c0.7-1.3,1-3.1,0.6-4.5c-0.5-1.4-1.3-2.8-2.7-3.5c-0.5-0.2-0.9-0.4-1.4-0.6c-1-0.3-2.1-0.3-3.1,0
		c-5.4,0.8-10.7,2.7-15.3,5.6c-1.3,0.8-2.3,2.1-2.7,3.5c-0.4,1.4-0.2,3.3,0.6,4.5C1608.6,1390.6,1612.1,1391.8,1614.9,1390.1
		L1614.9,1390.1z"/>
	<path class="st10" d="M1051.1,1583.6c0.4,3.7-0.1,7.4-0.5,11.1c-0.3,2.8-0.5,3.8-0.9,6.6c-0.4,2.7-0.8,5.4-1.2,8.1
		c-0.8,5.5-1.6,11-2.2,16.6c-0.4,3.8-0.9,7.7-0.4,11.4c0.4,3.2,2.4,5.9,5.9,5.9c2.9,0,6.2-2.7,5.9-5.9c-0.4-3.8,0-7.7,0.4-11.4
		c0.6-5.1,1.2-9.4,2-14.8c0.8-5.5,1.6-10.9,2.3-16.4c0.4-3.6,0.9-7.4,0.5-11.1c-0.3-3.2-2.5-5.9-5.9-5.9
		C1054,1577.7,1050.7,1580.4,1051.1,1583.6L1051.1,1583.6z"/>
	<path class="st10" d="M1256.6,1416c27.7,18.4,54.8,37.8,81,58.3c2.5,2,5.8,2.4,8.3,0c2.1-2,2.5-6.4,0-8.3
		c-27-21.1-54.8-41.2-83.4-60.1C1256.2,1401.7,1250.4,1411.8,1256.6,1416L1256.6,1416z"/>
	<path class="st10" d="M1529.9,1201.2c7.5-15.3,18.6-28.4,32.3-37.8c2.6-1.8,3.8-5.2,2.1-8c-1.5-2.6-5.4-3.9-8-2.1
		c-15.5,10.7-28.2,25.1-36.5,42c-1.4,2.8-0.8,6.4,2.1,8C1524.5,1204.8,1528.5,1204.1,1529.9,1201.2L1529.9,1201.2z"/>
	<path class="st10" d="M906,1172.1c11.3,10.4,19.4,23.3,23.7,37.8c0.9,3,4.1,5,7.2,4.1c3-0.8,5-4.2,4.1-7.2
		c-4.9-16.4-14.1-31.4-26.7-43c-2.3-2.1-6-2.3-8.3,0C903.8,1166,903.7,1170,906,1172.1L906,1172.1z"/>
	<g>
		<path class="st10" d="M1331.3,1049.3c-23.3,0-42.1,20.7-42.1,46.3c0,25.6,18.9,46.3,42.1,46.3s42.1-20.7,42.1-46.3
			C1373.4,1070.1,1354.5,1049.3,1331.3,1049.3z"/>
		<path class="st10" d="M1109.6,1049.3c-23.3,0-42.1,20.7-42.1,46.3c0,25.6,18.9,46.3,42.1,46.3c23.3,0,42.1-20.7,42.1-46.3
			C1151.8,1070.1,1132.9,1049.3,1109.6,1049.3z"/>
		<g>
			<path class="st10" d="M1199.1,1140.2c12.6,0,25.2,0,37.8,0c5.8,0,12-0.6,17.7,0c0.2,0,0.4,0,0.5,0c-1-1-1.2-0.9-0.5,0.4
				c0,1.1,0.8,2.8,1,3.9c0.7,2.7,1.4,5.4,2.1,8.2c4.7,19.4,8.7,42,0.5,61c-5.6,13-18.9,21.6-33.1,20.3c-16.8-1.5-26.4-16.8-29.5-32
				c-4.4-21.4,1.7-44.2,7.7-64.7c2.1-7.3-9.2-10.4-11.3-3.1c-6.5,22-11.9,45.4-8.2,68.3c3.2,19.5,15.7,39,36.4,42.6
				c17.8,3.1,35.7-5.1,45.4-20.3c13-20.5,9.7-47.9,4.7-70.4c-1.4-6.3-2.6-13.2-5-19.1c-2.9-7.2-9.6-6.9-16.3-6.9
				c-16.6,0-33.2,0-49.9,0C1191.5,1128.5,1191.5,1140.2,1199.1,1140.2L1199.1,1140.2z"/>
		</g>
		<path class="st10" d="M1300.2,1031c8.5-8.6,25.5-11.9,37.1-12.4c14.3-0.7,23.9,5.3,35.2,13c4.8,3.3,11-0.2,10.6-6
			c-1.4-21.4-25.4-28.5-43.5-28.3c-20.4,0.3-38.5,8.5-51.2,24.6C1282.4,1029.5,1293.6,1037.6,1300.2,1031L1300.2,1031z"/>
		<path class="st10" d="M1147.1,1024.2c-27.6-24.8-67.2-28.1-92.4,2.4c-3.9,4.7,1.6,11.9,7.2,9.6c27.9-11.6,50.4-13.8,77.4,1.5
			C1147.4,1042.2,1153.3,1029.7,1147.1,1024.2L1147.1,1024.2z"/>
	</g>
	<path class="st10" d="M1237.4,799.9c59.3,88.3,134.6,165.5,223.4,224.3c25.5,16.8,51.9,32.1,79.2,45.7c6.7,3.4,12.7-6.8,5.9-10.1
		c-93.9-47-176.8-113.4-244.4-193.8c-19.3-23-37.3-47.1-54.1-72.1C1243.3,787.7,1233.2,793.6,1237.4,799.9L1237.4,799.9z"/>
	<path class="st10" d="M1232.8,794.8c-6.2,89.4-13.3,179-8.2,268.6c0.4,7.5,12.2,7.6,11.7,0c-5-89.6,2.1-179.2,8.2-268.6
		C1245,787.2,1233.3,787.2,1232.8,794.8L1232.8,794.8z"/>
	<path class="st10" d="M1186.6,794.8c-6.9,91-5.5,190.5,36.6,273.7c3.4,6.7,13.6,0.8,10.1-5.9c-41.2-81.2-41.8-179-35-267.8
		C1198.9,787.2,1187.2,787.3,1186.6,794.8L1186.6,794.8z"/>
	<path class="st10" d="M1184.1,790.1c-51.1,79.3-106.2,159-180.5,218.6c-20.7,16.6-43,31.2-66.6,43.4c-6.7,3.5-0.8,13.6,5.9,10.1
		c85.9-44.4,150.6-119.8,205.5-197.7c15.8-22.5,31-45.4,45.9-68.5C1198.4,789.7,1188.2,783.8,1184.1,790.1L1184.1,790.1z"/>
	<path class="st10" d="M966.1,1054.2c-2.3,1.5-4.7,2.9-7.1,4.2c-0.7,0.3-1.3,0.6-2,0.9c-0.6,0.3-0.7,0.3-0.1,0.1
		c-0.3,0.1-0.7,0.3-1,0.4c-1.2,0.5-2.4,0.9-3.6,1.3c-2.6,0.8-5.3,1.5-8,2c-0.5,0.1-1.1,0.2-1.6,0.3c1.3-0.2-1,0.1-1.2,0.1
		c-1.5,0.1-2.9,0.2-4.4,0.3c-3.1,0.1-6,2.6-5.9,5.9c0.1,3.1,2.6,6,5.9,5.9c12.4-0.3,24.7-4.1,35.1-11.1c2.5-1.7,3.9-5.3,2.1-8
		C972.5,1053.8,968.8,1052.4,966.1,1054.2L966.1,1054.2z"/>
	<path class="st10" d="M1113,639.9c-88.1,17.6-166.2,69.3-219.5,141.4c-48.6,65.8-77,150-67.9,232.2c5,44.8,21.1,87.7,48.2,123.8
		c4.5,6,14.7,0.1,10.1-5.9c-47.5-63.2-58.1-144.7-39.3-220.4c19.9-80.1,69.8-152.5,136.5-200.8c40.2-29.1,86.2-49.3,134.9-59
		C1123.6,649.8,1120.4,638.4,1113,639.9L1113,639.9z"/>
	<path class="st10" d="M1117.5,650.6c46.6-26.2,99.5-37.3,152.8-33.3c52.4,4,103.3,22,148.5,48.4c45.6,26.6,86.3,62.1,118.8,103.8
		c32.9,42.4,55.7,91.3,68.1,143.5c15.1,63.5,15.1,135-22.9,190.7c-4.3,6.3,5.9,12.1,10.1,5.9c34.5-50.6,39-114.3,29.4-173.3
		c-9.1-55.7-30.4-109.9-62.6-156.4c-61.8-89.1-161.7-157.5-270.2-172.3c-61.5-8.4-123.7,2.4-178,32.8
		C1105,644.2,1110.9,654.4,1117.5,650.6L1117.5,650.6z"/>
	<path class="st10" d="M1185.7,795.7c-14.2,46.2-20.2,94.5-17.4,142.8c2.2,36.7,8.6,81,40.4,104.5c1.6,1.2,3.3-1.4,1.8-2.6
		c-30-26.3-35.9-67.8-37.8-105.6c-2.4-46.4,3.4-93.3,16.6-137.9C1190.1,794.3,1186.5,793.2,1185.7,795.7L1185.7,795.7z"/>
	<path class="st10" d="M1238.4,795.4c25.8,107.1,117.3,190.7,211.8,240.4c12.9,6.8,26,13,39.4,18.7c15.4,6.5,31.6,13.4,48.3,15.3
		c2.4,0.3,3.6-3.8,1.1-4.5c-27.4-8-53.1-18.1-78.4-31.3c-23.5-12.3-46.2-26.1-67.7-41.5c-43.9-31.6-83.5-70.1-113.2-115.5
		c-16.5-25.3-29.5-53-37-82.4C1241.9,791.8,1237.8,792.8,1238.4,795.4L1238.4,795.4z"/>
	<path class="st10" d="M1189.5,792.7c-16.3,41.8-40.3,80.4-67.6,115.9c-28.7,37.3-61.5,71.7-99.3,99.9
		c-19.6,14.6-40.5,26.8-62.9,36.6c-2.2,1-0.9,4.2,1.4,3.3c41.5-15.8,78.2-45,109.7-75.6c34.4-33.5,64.6-71.7,89.1-113
		c12.5-21.1,23.6-43.2,32.3-66.2C1192.9,791.7,1190.2,790.8,1189.5,792.7L1189.5,792.7z"/>
	<path class="st8" d="M1084.4,1075.1c-13.1,0-13.1,20.3,0,20.3S1097.5,1075.1,1084.4,1075.1z"/>
	<path class="st8" d="M1358.6,1075.1c-13.1,0-13.1,20.3,0,20.3S1371.7,1075.1,1358.6,1075.1z"/>
	<path class="st8" d="M1738.4,437.1c-18.2-42.8-51.7-77.6-91.1-100.5c-44.8-26-88.8-36.2-141.6-32.1c-10.1,0.8-25.1,3.5-34.3,7.7
		c-1.9,0.9-14.2,8.3-15.5,8.9c-2.1-3.2-15.5-21.5-17.7-24.3c-14.5-19.1-24.1-28.1-44.3-40.9c-82.5-52.4-197.4-53.2-284.3-10
		c-94.2,46.9-146.9,144.8-106.4,243.4c-30.6,18.5-48.7,54.7-40,91.2c8.5,35.8,47.8,63.1,83,67.3c-4.1,10.3-8.7,23.7,2.4,21.3
		c38.9-8.6,91.1-8.1,130.5-4.5c42.8,3.8,85.3,10.7,127.4,19.7c38.1,8.1,75.7,18.4,112.6,30.8c20.6,6.9,41,14.5,61.1,22.7
		c18.6,7.6,44.3,14.9,56.8,31.7c6.9,9.3,13.1,5.1,19.5-4.6c7.9-12,16.9-21.6,23.2-34.3c31,4.4,69.8,1.6,96.2-15.5
		c40-25.8,62.2-64.5,71.3-110.2C1757.9,552.2,1759.7,487.2,1738.4,437.1z"/>
	<path class="st12" d="M1697.2,680.7c-14.4-13-4.8-42.4-4.6-59.6c0.1-11.6-14.4-12.5-19.8-4.6c-55.6,80.3-196.7,44.3-237.3-35
		c-1.8-3.6-5.3-4.5-8.7-3.8c-0.4-0.1-0.7-0.3-1.1-0.4c-0.3-13.5-4.1-27.4-4.4-41.1c-0.3-17.3,0.4-35.7,5.5-52.2
		c2.8-9.2-11.7-14.6-15.9-5.9c-11.4,23.9-23.6,57.7-18.9,86.7c-49.2-17.5-99-31.1-152-33.4c-31.3-1.4-62.4,0.6-93.2,6
		c-16.5,2.9-32.4,7.6-48.7,11.4c-7.9,1.9-22.7,6.3-31,2.3c-12.9-6.3-19.3-23.4-22.5-36.2c-3.1-12-21.4-8.9-21.3,3.2
		c-4.6-1-9.7,0.9-10.5,6.7c-2.5,18.6-4.7,37.5,3.7,54.9c6.8,14.1,18.8,27.2,35.5,24.1c6.5-1.2,8.4-9.5,5.6-14.5
		c-4.4-7.7-11.9-12.5-16.7-19.8c5,4.7,11.4,8.5,19.5,10.9c34,10,73.3-10.6,106.9-15.2c88.2-12.1,170,15.1,252.8,41.8
		c2.8,0.9,5.5,0.8,7.8,0c10.8,22,25.1,40.1,42.7,54.4c-0.5,0.4-0.9,0.9-1.4,1.3c-46.9,41.7-100.5,7.6-155.3,13.6
		c-5.7,0.6-5.7,9.2,0.3,9.1c19.4-0.3,40.2,8.6,59.9,11.9c0.2,0.3,0.6,0.6,1,0.9c12.4,7.6,26.8,11.5,41.3,11.8
		c41.8,10.1,84.9,29.5,117.8,55.5c5,3.9,14,5.6,18.4-0.5c9.1-12.7,17.5-25.5,25.1-39.2c0.6-1.1,1-2.3,1.2-3.5
		c38.7,14.1,79.8-2.8,116.1-19.7C1703.1,698.7,1703.3,686.2,1697.2,680.7z M1490,677.3c-3.5-1.5-7-2.6-10.5-3.1
		c0.5-1.7,0.9-3.5,1-5.3c17.1,11.7,37,20.2,59.6,25.3c3.2,3.1,7,5.9,10.9,8.3C1529.9,696.1,1511,686.3,1490,677.3z"/>
	<path class="st11" d="M1447.3,651.5c-6.4,1.9-12.1,5.3-18.3,7.7c-7,2.7-13.7,4.7-21.2,5.6c-4.9,0.5-4.8,8.1,0.2,7.7
		c14.4-1.2,33-5.8,40.8-19.2C1449.3,652.3,1448.3,651.2,1447.3,651.5z"/>
	<path class="st12" d="M1436.4,357.1c-5,5.2-10,12.9-11.5,20.1c-1.4,6.7,0,13.4,1.7,19.9c0.5,1.9,2.9,2.3,4.2,1
		c4.1-4.2,8.8-7.9,12.3-12.7c3.7-5,6.7-11.3,9-17C1456.2,358.6,1444.6,348.7,1436.4,357.1z"/>
	<path class="st12" d="M1424.5,410.9c-3.2-0.7-7.3,1.4-7.8,4.9c-0.3,2.1-0.6,4.2-0.9,6.3c-0.3,2.4,0,4.5,0.3,6.9
		c0.3,2.2,1.5,4,3.7,4.6c2.1,0.5,4.3-0.6,5.3-2.4c1.1-2,2.2-3.9,2.8-6.2c0.5-2.1,0.9-4.1,1.3-6.2
		C1430.1,415.3,1427.9,411.7,1424.5,410.9z"/>
	<path class="st12" d="M1030.6,456.9c-0.9-3.7-5.3-5.9-8.9-4.8c-3.8,1.1-5.9,5.2-4.8,8.9c1.3,4.8,2.3,9.7,5.1,13.9
		c3.6,5.3,10.8,2.6,11.2-3.3C1033.5,466.5,1031.8,461.7,1030.6,456.9z"/>
	<g>
		<path class="st10" d="M1046.4,674.9c25.2-7.9,52-10,78.3-10.2c33.5-0.3,67.1,2.8,100.3,7.7c73.3,10.8,145.9,30,215.1,56.7
			c35.5,13.7,70.4,29.8,102.9,49.7c6.5,4,12.4-6.2,5.9-10.1c-60.8-37.3-129.6-62.3-198.1-81.3c-70-19.4-143-33.4-215.8-34.3
			c-30.6-0.4-62.3,1.3-91.8,10.6C1036.1,665.8,1039.1,677.2,1046.4,674.9L1046.4,674.9z"/>
		<path class="st10" d="M1047.3,670.3c4.6-26.7,12.2-52.8,17.5-79.4c1.5-7.4-9.9-10.5-11.3-3.1c-5.3,26.6-12.9,52.7-17.5,79.4
			C1034.7,674.6,1046.1,677.7,1047.3,670.3L1047.3,670.3z"/>
		<path class="st10" d="M1576.6,709.2c-5.3,11.2-11,22.2-17.1,32.9c-5.2,9-10.5,17.9-15.3,27c-3.6,6.7,6.6,12.6,10.1,5.9
			c4.9-9.1,10.2-18,15.3-27c6.2-10.7,11.8-21.7,17.1-32.9c1.4-2.9,0.8-6.3-2.1-8C1582.1,705.6,1578,706.3,1576.6,709.2L1576.6,709.2
			z"/>
		<path class="st10" d="M1066.3,587c90.8-34.8,193.3-31.1,285.4-3c26.4,8.1,52.1,18.3,76.8,30.6c6.7,3.4,12.7-6.8,5.9-10.1
			c-88.9-44.3-191.9-63.8-290.5-49.6c-27.6,4-54.6,10.9-80.7,20.8C1056.2,578.3,1059.2,589.7,1066.3,587L1066.3,587z"/>
		<path class="st10" d="M1419.6,584.9c2.9,29.1,25.5,55.4,45.7,74.8c26.2,25.2,59.1,46.8,95,54.5c19,4.1,38.9,3.8,57.2-3.2
			c7-2.7,4-14-3.1-11.3c-31,11.8-64.7,2.5-92.8-12.8c-28.7-15.7-55.2-38.3-73.9-65.3c-7.4-10.7-15.1-23.4-16.4-36.7
			C1430.6,577.4,1418.8,577.3,1419.6,584.9L1419.6,584.9z"/>
		<path class="st10" d="M1045,637.8c-36,1.2-70.8-24.5-78.6-60c-7.4-34.1,11.7-70.6,42.8-85.7c2.9-1.4,3.6-5.4,2.1-8
			c-40.8-73-0.2-164.5,63.9-208.7c74.4-51.3,176.5-71.5,262.9-41.1c45.3,16,87.7,45.5,112.7,87.1c1.2,2.1,4.2,3.6,6.6,2.7
			c78.8-29.2,172.2-5.1,230.1,55.2c34.6,36,53,84.3,57.8,133.6c4.8,50.2-2,104.3-29,147.8c-27.9,45-82.2,76.2-135.7,62.6
			c-7.3-1.9-10.5,9.5-3.1,11.3c48.1,12.2,99.6-8.5,131.9-45c35.6-40.2,49-95.6,49-148.3c0-54.2-14.3-109.8-47.8-153.2
			c-27.4-35.4-65.8-61.4-108-75.8c-47.7-16.2-100.8-17.2-148.3,0.4c2.2,0.9,4.4,1.8,6.6,2.7c-23.4-39-61.2-68-102.6-85.8
			c-43.7-18.8-91.6-24.3-138.8-19.3c-90.3,9.6-187,56.2-222.9,144.3c-17.7,43.5-18.8,93.7,4.5,135.3c0.7-2.7,1.4-5.4,2.1-8
			c-35.8,17.4-56.7,59.9-48.2,98.9c8.8,40.4,49,70,89.9,68.7C1052.5,649.3,1052.6,637.6,1045,637.8L1045,637.8z"/>
		<path class="st10" d="M1414,531.2c0,8,0,16,0,24c0,3.1,2.7,6,5.9,5.9c3.2-0.1,5.9-2.6,5.9-5.9c0-8,0-16,0-24c0-3.1-2.7-6-5.9-5.9
			C1416.7,525.5,1414,527.9,1414,531.2L1414,531.2z"/>
		<path class="st10" d="M1022.5,527.2c1.1,25.2,16.9,49.1,40.1,59.3c2.9,1.3,6.3,0.9,8-2.1c1.5-2.5,0.8-6.8-2.1-8
			c-19.4-8.5-33.4-27.8-34.3-49.2C1033.9,519.7,1022.1,519.6,1022.5,527.2L1022.5,527.2z"/>
	</g>
	<path class="st10" d="M1641.7,1198.5c-40.8-3.4-66.9-42.4-69.4-80.8c-0.9-14.5,1.4-29,5-43c3.9-15.3,9.7-31.2,19.9-43.5
		c8.4-10.1,25.1-20.3,37.9-11c12.6,9.1,11.1,31.9,11.8,45.6c0.7,14.2,1,28.6-1.5,42.6c-1.7,9.5-6.4,29.6-20.3,25.7
		c-9.8-2.7-11.5-18.5-12.3-26.8c-1.2-12.8-0.5-26.1,1.4-38.8c1.9-12.1,6.7-23.2,11.9-34.2c6.6-13.7,19.7-38.8,38.8-32.5
		c23.7,7.8,24.2,44.2,24.2,64.5c0,12.5-1.4,25-4.9,37.1c-1.6,5.7-3.7,11.3-6.3,16.6c-2.1,4.2-5.4,12.6-9.9,14.7
		c-9.2,4.4-9.7-21.5-9.7-26.3c0-10.9,1.5-21.8,4-32.5c2.4-10.2,5.6-20.5,10.2-29.9c3.8-7.9,9.1-17.8,17.9-21
		c17.9-6.4,32.6,21.3,37.5,34.1c5.9,15.6,7.3,33.1,7.1,49.6c-0.5,31-9.6,67.2-38.7,83.5c-7.8,4.3-16.3,6.7-25.1,7.9
		c-7.5,1-4.3,12.4,3.1,11.3c43.4-6.1,66-43.6,71.1-84.2c2.5-19.9,1.7-40.9-2.9-60.5c-4.7-20.2-17.9-46.5-39.4-53.1
		c-23-7.1-37.2,16.9-44.4,34.8c-9.5,23.5-14.7,50.8-10.8,76c1.5,9.9,6.6,23.3,18.8,22.9c12.4-0.4,19.3-16.3,23.5-25.8
		c11.7-26.6,12.6-56.6,8.4-85c-2-13.4-5.7-27.6-15.8-37.3c-8.6-8.2-21-12.6-32.5-8.8c-20.4,6.8-31.3,30.2-39,48.5
		c-5.6,13.3-8.7,25.5-10,39.9c-1.4,16-1.8,33.9,4.1,49.2c5.1,13.1,17.3,22,31.5,16.3c17.2-6.9,20.3-30.8,21.6-46.7
		c1.5-17.7,0.8-36.3-1.4-53.9c-2.5-19.7-11.5-39.1-34.3-38.6c-39.8,0.9-55.6,52.7-60.5,84.6c-6.4,41.7,7.7,89.6,46.8,111
		c10.1,5.6,21.2,8.5,32.7,9.5C1649.2,1210.9,1649.2,1199.1,1641.7,1198.5L1641.7,1198.5z"/>
	<path class="st10" d="M1633.9,1204.6c-1.2,9.6-1.5,19.4-0.9,29c0.2,3.1,2.6,6,5.9,5.9c3-0.1,6.1-2.6,5.9-5.9
		c-0.6-9.7-0.3-19.4,0.9-29c0.4-3.1-3-6-5.9-5.9C1636.3,1198.9,1634.3,1201.3,1633.9,1204.6L1633.9,1204.6z"/>
	<path class="st10" d="M1669,1207c-0.6,9.1-0.1,18.1,1.1,27.1c0.2,1.4,1.6,2.9,2.7,3.5c1.3,0.7,3.1,1,4.5,0.6
		c1.4-0.5,2.8-1.3,3.5-2.7c0.8-1.5,0.8-2.9,0.6-4.5c-0.2-1.4,0.1,0.9-0.1-0.4c-0.1-0.6-0.1-1.2-0.2-1.7c-0.1-1-0.2-2-0.3-3
		c-0.2-2.1-0.3-4.2-0.4-6.3c-0.1-4.2-0.1-8.4,0.2-12.6c0.2-3.1-2.9-6-5.9-5.9C1671.6,1201.2,1669.3,1203.7,1669,1207L1669,1207z"/>
	<path class="st10" d="M1631.1,1277.9c0-5.9-0.1-11.9-0.1-17.8c0-2.9-0.1-5.8,0-8.8c0-1.7-0.1-3.9,0.9-5.4c2.2-3.3,9-4.1,12.5-4.7
		c5.1-0.8,10.5-0.7,15.7,0c4.8,0.6,10.1,1.4,14.7,3.2c0.3,0.1,1.4,0.6,1.6,0.7c0.4,0.1,0.8,1.1,0.5,0c0.3,0.9,0,2.4,0,3.4
		c0,1.5,0,3,0,4.6c0,12.2,0,24.3-0.1,36.5c0,7.6,11.7,7.6,11.7,0c0-11.2,0-22.4,0.1-33.6c0-4.4,0.9-9.8-0.6-14.1
		c-1.7-4.9-6.1-7.5-10.8-8.9c-9.5-3-20.2-4.5-30.2-3.6c-9.1,0.8-21.8,3.1-26,12.5c-2.4,5.4-1.7,11.6-1.7,17.3
		c0,6.3,0.1,12.6,0.1,18.9C1619.4,1285.4,1631.1,1285.5,1631.1,1277.9L1631.1,1277.9z"/>
	<path class="st8" d="M1815,1103.3c-8.3,6.2-15,14.7-18.9,24.5c-4-9.8-10.6-18.3-18.9-24.5c8.4-6.2,15-14.7,18.9-24.5
		C1800.1,1088.6,1806.7,1097.1,1815,1103.3z"/>
	<path class="st8" d="M1795.5,1168.6c-4,3-7.2,7-9.1,11.8c-1.9-4.7-5.1-8.8-9.1-11.8c4-3,7.2-7.1,9.1-11.8
		C1788.3,1161.5,1791.5,1165.6,1795.5,1168.6z"/>
	<path class="st8" d="M1820.9,1144.2c-4,3-7.2,7-9.1,11.8c-1.9-4.7-5.1-8.8-9.1-11.8c4-3,7.2-7.1,9.1-11.8
		C1813.7,1137.1,1816.9,1141.2,1820.9,1144.2z"/>
	<path class="st13" d="M2025.4,840.8c18.7-49.3-16.5-100.8-56.2-127.9c-22.1-15.1-36.2-13.2-59.4-1.2c-14.5,7.5-33.7,16-45.6,27.3
		c-9.8,9.3-16.7,29.5-32.8,30.1c-1.5-4.5-6.9-8.1-11.3-4.6c-16,12.6-48.2,30.3-57.4,48.5c-6.9,13.7,6.3,31.6,9.8,44.9
		c1.3,4.8,3.1,10.7,7.9,8.8c11.7-4.6,25.7,9,18.8,18.9c-1.9,2.8-7,5.1-5.6,7.8c19.4,36.3,80.2,19,112,14.3
		c45.9-6.8,89-20.1,124.3-51.1C2036.1,851.5,2031.7,842.8,2025.4,840.8z"/>
	<path class="st14" d="M2025.4,840.8c8.7-22.8-3.5-64.7-13.1-85.8c-9.2,6.4-65.2,40.1-88.7,51.9c-5.7,2.8,0.9,20.8-17,27.4
		c-11,4.1-20.3,0.8-29.2-7.5c-18.9,6.9-44.2,9.1-64.1,7.5c-19.6-1.5-42.1,0.3-48.1-14.1c1.4,11.1,4.9,28.3,7.4,37.9
		c1.3,4.8,3.1,10.7,7.9,8.8c11.7-4.6,25.7,9,18.8,18.9c-1.9,2.8-7,5.1-5.6,7.8c19.4,36.3,80.2,19,112,14.3
		c45.9-6.8,89-20.1,124.3-51.1C2036.1,851.5,2031.7,842.8,2025.4,840.8z"/>
	<path class="st10" d="M1757.2,819.6c0.2,11.5,4.6,23.1,9,33.6c1.3,3.1,2.7,6.2,4.1,9.3c1.2,2.6,2.3,6.1,4.5,8.2
		c2.6,2.4,6,2.4,9.1,1.3c1.4-0.5,4.6-2.1,5.7-1.8c3.7,1.1,6.3,7.3,7.1,10.8c0.2,1.1,0.2,2.9,0.3,2.6c-0.1,0.6,0,0.2-1.2,0.9
		c-0.2,0.1-1.5,0.7-0.8,0.4c0.6-0.3-1.3,0.5-1.9,0.8c-1.1,0.6-2.2,1.3-3,2.3c-3.7,4.9,0.6,9.4,3.7,13.2c4.7,5.9,10,11.2,16.2,15.5
		s12.1-5.9,5.9-10.1c-3.1-2.2-5.9-4.8-8.5-7.5c-1.5-1.6-2.9-3.2-4.3-4.9c-0.8-0.9-1.5-1.9-2.2-2.8c-1.1-1.7-1.3-1.9-0.7-0.5
		c0.5,2.4-0.2,4.2-2.1,5.5c0.2-0.1,0.4-0.2,0.6-0.3c0.6-0.2,0.4-0.2-0.3,0.1c0.6-0.3,1.2-0.5,1.8-0.8c1.5-0.7,2.9-1.4,4.2-2.6
		c8.8-7.7,2.5-22.9-4.4-29.7c-3.8-3.8-8.8-5.4-14-4.3c-1.4,0.3-2.8,0.8-4.1,1.4c-0.2,0.1-1.9,0.8-1.9,0.8c-0.7,0.2-0.6,0.2,0.3,0
		c1.3,0.1,2.5,0.7,3.4,1.9c-0.6,0.3-9.8-22.6-10.5-24.9c-2-5.9-3.9-12.2-4.1-18.5C1768.8,812.1,1757.1,812,1757.2,819.6
		L1757.2,819.6z"/>
	<path class="st10" d="M1768.6,817.7c-0.3-7.8,11.9-16.4,17-20.7c5.6-4.7,11.4-9.2,17.3-13.5c3.3-2.4,6.7-4.8,10-7.1
		c1.9-1.4,9.5-4.7,10.1-6.8c-0.3,1.1-2.5-0.5-2.4,0c0.1,0.6,2.9,2.3,3.1,2.5c3,2,6.3,3,9.9,3.1c9.3,0.3,21.4-3.6,25.5-12.6
		c1.7-3.7,1.8-7.7,1.6-11.6c-0.1-1.8-0.2-3.7-0.4-5.4c-0.1-0.4,0.2-1.6-0.4-0.1c-0.7,1.5,0.5-0.1,1.3-0.5c6.7-3.4,12.8-9,18.9-13.2
		c16.1-10.9,35.4-24.7,55.4-26.6c9.2-0.9,17,3.6,24.6,8.3c9.9,6.2,19.2,13.6,27.6,21.7c16.4,15.9,23.5,35.2,28.7,56.9
		c2.6,11,5.5,22.1,7.3,33.3c1.2,7.6,3.3,18.5-0.8,25.4c-7.3,12.1-25,19.4-37.2,24.9c-24.7,11.1-51.3,18.7-77.8,24.1
		c-29.4,6.1-59.4,9.3-89.4,7.8c-7.6-0.4-7.5,11.4,0,11.7c55.2,2.7,113.4-8.7,164.4-29.8c16.1-6.7,34.8-14.6,46.6-28.2
		c13.2-15.2,6-39.5,1.9-57c-5.2-22.6-9.9-46.3-24.3-65.1c-13.7-17.8-34.6-35.2-55.7-43.4c-19.7-7.7-41.9,4.2-58.7,14
		c-9.4,5.5-18.5,11.7-27.4,17.9c-4.9,3.5-14.5,7.8-16.3,14c-1.3,4.4,0.7,8.9,0.1,13.4c-0.9,6.3-9.7,9.1-15.5,8.4
		c-6.6-0.7-8.8-7.8-16.5-4c-7.9,3.8-15.3,10.3-22.3,15.5c-6.8,5-13.6,10.2-20,15.9c-7.3,6.5-18.4,16-18,26.9
		C1757.1,825.2,1768.8,825.2,1768.6,817.7L1768.6,817.7z"/>
	<path class="st23" d="M1859.2,860.3c-0.7-3.3-3-6.1-5.9-7.9c-2-2.3-4.8-3.9-7.7-4.3c-3-0.4-5.7-0.1-8.3,1.3c-2.2,1.1-4,3.1-5.3,5.1
		c-1.4,2.2-2,4.7-2.2,7.2s0.5,5,1.5,7.3c1.9,4.1,6,7.4,10.4,8.5c4.8,1.2,10-0.1,13.5-3.8C1858.7,870.1,1860.2,865.2,1859.2,860.3z"
		/>
	<g>
		<path class="st23" d="M1932,730c-6.4-2.3-14.2-0.1-18.8,4.8c-5.7,6.3-6.2,16-1.5,23.1c5,7.6,14.1,10.6,22.8,8.9
			c8.4-1.6,16.3-9,15.5-18.1C1949.2,739,1941.3,731.7,1932,730z"/>
		<path class="st14" d="M1944.2,736.3c-13.1-1.9-28.2,4-34.6,15.5c-0.1,0.2-0.3,0.3-0.4,0.4c0.5,2,1.4,3.9,2.5,5.7
			c5,7.6,14.1,10.6,22.8,8.9c8.4-1.6,16.3-9,15.5-18.1C1949.6,743.9,1947.4,739.6,1944.2,736.3z"/>
		<path class="st24" d="M1930,748.5L1930,748.5L1930,748.5L1930,748.5z"/>
	</g>
	<path class="st23" d="M1986.9,827.4c-2.1-5.8-7.6-10.5-14.1-10c-4,0.3-7.9,2.2-10.5,5.3c-0.2,0.1-0.4,0.1-0.5,0.2
		c-4.9,2.8-6.7,8.9-5.4,14.2c1.3,5.1,5.5,9.4,10.7,10.4c5.6,1.1,11.4-0.6,15.6-4.6C1986.9,839,1988.9,832.8,1986.9,827.4z"/>
	<path class="st23" d="M1828.8,800.6c0-0.3,0-0.5-0.1-0.8c-0.1-0.8-0.2-1.6-0.4-2.3c-0.3-1-0.7-2-1.3-2.9c-1-1.4-1.9-2.3-3.3-3.3
		c-0.9-0.6-1.9-1-2.9-1.4c-0.6-0.2-1.2-0.4-1.9-0.5c-2.3-0.3-4.5-0.4-6.8,0.3c-1.1,0.3-2.1,0.8-3.1,1.3c-1.3,0.7-2.3,2.1-2.7,3.5
		c-0.4,1.4-0.2,3.3,0.6,4.5c0.1,0.1,0.2,0.2,0.3,0.4c-0.2,0.4-0.3,0.7-0.5,1.1c-0.2,0.8-0.3,1.6-0.4,2.4c-0.1,1.1,0,2.2,0.2,3.2
		s0.6,2.1,1.2,3c0.5,0.9,1.2,1.7,2,2.4c1.3,1.1,2.3,1.7,3.9,2.3c1,0.4,2.1,0.5,3.2,0.6s2.2-0.1,3.2-0.3s2-0.6,3-1.1
		c0.9-0.5,1.8-1.1,2.5-1.9c1.1-1.3,1.7-2.3,2.3-3.9c0.4-1,0.5-2.1,0.6-3.2c0-0.4,0-0.8,0-1.1
		C1828.6,802.2,1828.8,801.4,1828.8,800.6z"/>
	<path class="st14" d="M1828.6,802.1c-0.1-0.1-0.2-0.3-0.3-0.4c-0.1-0.1-0.2-0.2-0.2-0.3c0,0,0,0-0.1-0.1s-0.2-0.3-0.4-0.4
		c-0.2-0.3-0.5-0.5-0.8-0.8s-0.5-0.5-0.8-0.7l0,0c-0.6-0.4-1.1-0.8-1.7-1.1c-0.3-0.2-0.6-0.3-1-0.5c0,0,0,0-0.1,0
		c-0.6-0.2-1.3-0.5-1.9-0.6c-0.4-0.1-0.8-0.2-1.2-0.3h-0.1c-1,0.1-0.5-0.1,0,0c0.1,0,0.1,0,0.2,0c-0.7,0.1-1.5-0.1-2.2-0.1
		s-1.4,0-2.1,0.1l0,0c-0.4,0.1-0.7,0.1-1.1,0.2c-0.7,0.2-1.5,0.4-2.2,0.7c-0.1,0-0.2,0.1-0.4,0.1l0,0c-0.3,0.1-0.7,0.3-0.7,0.4
		c-0.7,0.4-1.4,0.8-2,1.2c-0.1,0-0.1,0.1-0.2,0.1c-0.3,0.2-0.6,0.5-0.9,0.8c-0.5,0.5-1.1,0.8-1.7,1c-0.1,0.6-0.2,1.2-0.3,1.9
		c-0.1,1.1,0,2.2,0.2,3.2s0.6,2.1,1.2,3c0.5,0.9,1.2,1.7,2,2.4c1.3,1.1,2.3,1.7,3.9,2.3c1,0.4,2.1,0.5,3.2,0.6s2.2-0.1,3.2-0.3
		s2-0.6,3-1.1c0.9-0.5,1.8-1.1,2.5-1.9c1.1-1.3,1.7-2.3,2.3-3.9c0.4-1,0.5-2.1,0.6-3.2c0-0.4,0-0.8,0-1.1
		C1828.5,802.7,1828.5,802.4,1828.6,802.1z"/>
	<path class="st8" d="M1995.9,790.4c-0.2,6.1-0.9,11.6-2.3,17.5c-0.4,1.5,0.5,3.3,2.1,3.6c1.5,0.3,3.2-0.5,3.6-2.1
		c1.5-6.2,2.3-12.6,2.5-19c0-1.5-1.4-3-2.9-2.9C1997.2,787.6,1996,788.8,1995.9,790.4L1995.9,790.4z"/>
	<path class="st8" d="M2004.8,797.6c-0.7,5-1.4,9.9-2,14.9c-0.1,0.8-0.1,1.5,0.3,2.3c0.4,0.6,1.1,1.2,1.8,1.3
		c1.4,0.3,3.4-0.4,3.6-2.1c0.7-5,1.4-9.9,2-14.9c0.1-0.8,0.1-1.5-0.3-2.3c-0.4-0.6-1.1-1.2-1.8-1.3
		C2007.1,795.2,2005,796,2004.8,797.6L2004.8,797.6z"/>
	<path class="st8" d="M1889.1,869c6.4,3.1,12.8,6.2,19.3,9.4c1.4,0.7,3.2,0.4,4-1.1c0.8-1.3,0.4-3.3-1.1-4
		c-6.4-3.1-12.8-6.2-19.3-9.4c-1.4-0.7-3.2-0.4-4,1.1C1887.3,866.3,1887.6,868.3,1889.1,869L1889.1,869z"/>
	<path class="st8" d="M1886.5,882.1c3,1.6,6.1,3.1,9.1,4.7c1.4,0.7,3.2,0.4,4-1.1c0.7-1.3,0.4-3.3-1.1-4c-3-1.6-6.1-3.1-9.1-4.7
		c-1.4-0.7-3.2-0.4-4,1.1C1884.8,879.4,1885.1,881.3,1886.5,882.1L1886.5,882.1z"/>
	<path class="st8" d="M2067.7,815.2c4.5,19.5-2.7,40.6-17.9,53.6c-2.9,2.5,1.3,6.6,4.2,4.2c16.8-14.3,24.4-37.8,19.4-59.3
		C2072.5,809.9,2066.9,811.5,2067.7,815.2L2067.7,815.2z"/>
	<path class="st8" d="M2051.7,822c1.4,5.2,1.5,10.4,0.1,15.5c-0.4,1.5,0.5,3.3,2.1,3.6c1.5,0.3,3.2-0.5,3.6-2.1
		c1.6-6.1,1.5-12.6-0.1-18.7c-0.4-1.5-2.1-2.5-3.6-2.1C2052.3,818.9,2051.3,820.4,2051.7,822L2051.7,822z"/>
	<path class="st8" d="M1944.8,649.4c-8.3,6.2-15,14.7-18.9,24.5c-4-9.8-10.6-18.3-18.9-24.5c8.4-6.2,15-14.7,18.9-24.5
		C1929.9,634.7,1936.5,643.1,1944.8,649.4z"/>
	<circle class="st8" cx="1885.5" cy="670.8" r="6.3"/>
	<path class="st25" d="M857.5,664.5c-6.2-31.8-17.6-45.2-46.1-57.4c-2.3-1-27.9-14.9-30.1-15.9c-23-26.1-16.9-47.4-44.4-68.8
		c-40.9-31.8-85.4-24.8-116.3,7.3c-28.3,17.3-41.6,56.7-30.3,93.4c20.6,67.3,105,109.8,168.6,125.4c29.7,7.3,49.9,5.9,74.1-15.1
		C853.3,715.7,862.6,691,857.5,664.5z"/>
	<path class="st26" d="M847.5,704.4c-9.5,5.5-22.7,7.1-31.6-0.1c-7.7-6.2-11.5-20.4-23.5-18c-9.4,1.9-16.9,8.8-26.6,10.2
		c-11.6,1.6-23-5-29.2-14.7c-6.5-10.3-3.6-21.3-2-32.5c0.6-4.1,1.9-14.3-2.5-17c-2.9-1.8-7.2,1.4-9.9,2.8c-9,4.8-17.1,8.5-27.3,5.5
		c-7.1-2.1-13.9-6.4-15.9-14c-3.9-14.4,8.3-29.4,13.3-42c2-5,4.6-11.8,0.1-16.1c-6.8-6.4-16.7-2.9-24,0.4
		c-14.9,6.8-33.3,20.9-49.8,10.2c-15.4-10.1-13.2-28.9-6.2-43.5C589.8,555,580.1,590,590.2,623c20.6,67.3,105,109.8,168.6,125.4
		c29.7,7.3,49.9,5.9,74.1-15.1c11.5-9.9,19.4-22.1,23.2-35.6C853.6,700.3,850.7,702.6,847.5,704.4z"/>
	<g>
		<g>
			<path class="st10" d="M583.8,588.3c-1.1,57.1,44.1,101.4,88.3,130.8c44.4,29.5,115.4,62.2,162.6,20.4
				c19.7-17.4,30.4-45.2,28.4-71.3c-1.9-24-14.7-41.7-34.8-54.1c-18.7-11.6-41.6-19-55.1-37.4c-9.2-12.5-11.8-28.5-20.8-41.2
				c-7.8-11.1-18.6-19.9-30.8-25.7C664.1,482.2,586.8,522.6,583.8,588.3c-0.3,7.6,11.4,7.5,11.7,0c2.5-53.7,64.3-88.5,113.1-71.3
				c11.8,4.1,22.7,11.3,30.9,20.9c9.2,10.9,12.5,24.8,18.9,37.2c9.7,18.7,27.6,29.5,45.6,39.1c16.7,8.9,35.2,18,43.1,36.3
				c9.5,22.1,3.6,49.6-9.8,68.7c-35.3,50.2-105.6,22.7-147.4-2.6c-45.1-27.3-95.5-70.7-94.4-128.2
				C595.7,580.7,584,580.7,583.8,588.3z"/>
			<path class="st10" d="M755.5,559c-39.8-4.5-80.1,15-102.1,48.2c-4.2,6.3,6,12.2,10.1,5.9c19.8-30,56.4-46.5,92-42.4
				C762.9,571.6,762.9,559.9,755.5,559L755.5,559z"/>
			<path class="st10" d="M782.5,592.2c-34.6,12.7-63.9,38.1-80.9,70.9c-3.5,6.7,6.7,12.6,10.1,5.9c15.5-30,42.1-53.8,73.8-65.5
				C792.6,600.9,789.6,589.6,782.5,592.2L782.5,592.2z"/>
			<path class="st10" d="M817.4,622c-24.3,22.1-41.7,51.4-49.6,83.3c-1.8,7.3,9.5,10.5,11.3,3.1c7.4-30.1,23.6-57.3,46.5-78.1
				C831.3,625.2,823,616.9,817.4,622L817.4,622z"/>
			<path class="st10" d="M627.9,574.2C627.9,574.2,627.9,574.3,627.9,574.2c0-0.1-0.1-0.4-0.2-0.6c0,0.1,0.1,0.2,0.1,0.3
				c0-0.3-0.1-0.5-0.1-0.8c0,0.2,0,0.3,0,0.4c0-0.3,0.1-0.5,0.1-0.8c0,0.2-0.1,0.4-0.2,0.6c0.1-0.2,0.2-0.5,0.3-0.7
				c-0.2,0.4-0.4,0.7-0.6,1.1c-0.3,0.5-0.6,1.1-0.8,1.7c-0.5,1.8,0.1,3.8,1.7,4.8c1.5,0.9,3.3,0.4,4.6-0.6l0.1-0.1
				c0.2-0.2,0.4-0.5,0.5-0.7c0.3-0.5,0.5-1.1,0.5-1.7c0-0.9-0.3-1.9-1-2.5c-0.3-0.3-0.6-0.5-0.9-0.6c-0.3-0.2-0.7-0.3-1.1-0.3
				c-0.7,0-1.6,0.3-2.1,0.9c-0.5,0.6-0.9,1.3-0.9,2.1c0,0.7,0.3,1.6,0.9,2.1l0.1,0.1c-0.2-0.2-0.3-0.4-0.5-0.6c0,0,0,0.1,0.1,0.1
				c-0.1-0.2-0.2-0.5-0.3-0.7v0.1c0-0.3-0.1-0.5-0.1-0.8v0.1c0-0.3,0.1-0.5,0.1-0.8v0.1c0.1-0.2,0.2-0.5,0.3-0.7c0,0,0,0.1-0.1,0.1
				c0.2-0.2,0.3-0.4,0.5-0.6c-0.1,0.1-0.1,0.1-0.2,0.2c0.2-0.2,0.4-0.3,0.6-0.5c-0.1,0.1-0.1,0.1-0.2,0.1c0.2-0.1,0.5-0.2,0.7-0.3
				c-0.1,0-0.2,0.1-0.3,0.1c0.3,0,0.5-0.1,0.8-0.1c-0.1,0-0.1,0-0.2,0c0.3,0,0.5,0.1,0.8,0.1c-0.1,0-0.1,0-0.2-0.1
				c0.2,0.1,0.5,0.2,0.7,0.3c0,0-0.1,0-0.1-0.1c0.2,0.2,0.4,0.3,0.6,0.5l-0.1-0.1c0.2,0.2,0.3,0.4,0.5,0.6c-0.1-0.1-0.1-0.1-0.1-0.2
				c0.1,0.2,0.2,0.5,0.3,0.7c0-0.1-0.1-0.2-0.1-0.3c0,0.3,0.1,0.5,0.1,0.8c0-0.1,0-0.3,0-0.4c0,0.3-0.1,0.5-0.1,0.8
				c0-0.2,0.1-0.5,0.2-0.7c-0.1,0.2-0.2,0.5-0.3,0.7c0.3-0.6,0.7-1.1,0.9-1.7c0.2-0.4,0.3-0.7,0.4-1.1c0.1-0.4,0.1-0.8,0.2-1.2
				c0-0.8-0.2-1.5-0.6-2.2c-0.3-0.6-1.1-1.2-1.8-1.3c-0.7-0.2-1.6-0.1-2.3,0.3c-0.6,0.4-1.2,1-1.3,1.8
				C627.5,572.8,627.5,573.5,627.9,574.2L627.9,574.2z"/>
			<path class="st10" d="M639.8,566.5c0,0.7-0.1,1.3-0.2,2c0,0.2,0,0.4-0.1,0.6c0-0.3,0-0.3,0,0.1c0,0.3-0.1,0.6-0.1,0.8
				c-0.2,1.3-0.5,2.6-0.9,3.9c-0.4,1.3-0.8,2.6-1.3,3.8c0,0-0.4,0.9-0.1,0.4c-0.1,0.4-0.3,0.7-0.5,1c-0.3,0.6-0.6,1.2-0.9,1.8
				c-0.7,1.4-0.4,3.3,1.1,4c1.4,0.7,3.3,0.4,4-1.1c2.8-5.4,4.5-11.3,4.8-17.4c0.1-1.5-1.4-3-2.9-2.9
				C641,563.6,639.9,564.8,639.8,566.5L639.8,566.5z"/>
			<path class="st10" d="M671.3,652.2c2.5,2.9,5.1,5.7,7.6,8.6c1,1.2,3.1,1.1,4.2,0c1.1-1.2,1.1-2.9,0-4.2c-2.5-2.9-5.1-5.7-7.6-8.6
				c-1-1.1-3.1-1.1-4.2,0C670.1,649.3,670.2,651,671.3,652.2L671.3,652.2z"/>
			<path class="st10" d="M681.1,638.8c1.3,4.8,2.6,9.6,3.8,14.4c0.4,1.5,2.1,2.5,3.6,2.1c1.5-0.5,2.5-2,2.1-3.6
				c-1.3-4.8-2.6-9.6-3.8-14.4c-0.4-1.5-2.1-2.5-3.6-2.1C681.6,635.7,680.7,637.2,681.1,638.8L681.1,638.8z"/>
			<path class="st10" d="M764.9,640.8c-1.5,1.5-3,2.9-4.5,4.4c-0.5,0.5-0.9,1.3-0.9,2.1c0,0.7,0.3,1.6,0.9,2.1
				c0.6,0.5,1.3,0.9,2.1,0.9s1.5-0.3,2.1-0.9c1.5-1.5,3-2.9,4.5-4.4c0.5-0.5,0.9-1.3,0.9-2.1c0-0.7-0.3-1.6-0.9-2.1
				c-0.6-0.5-1.3-0.9-2.1-0.9C766.2,640,765.5,640.3,764.9,640.8L764.9,640.8z"/>
			<path class="st10" d="M773.6,647.2c-2.7,2.2-5.4,4.4-8,6.7c-0.5,0.5-0.9,1.4-0.9,2.1c0,0.7,0.3,1.6,0.9,2.1
				c0.6,0.5,1.3,0.9,2.1,0.9s1.4-0.3,2.1-0.9c2.7-2.2,5.4-4.4,8-6.7c0.5-0.5,0.9-1.4,0.9-2.1c0-0.7-0.3-1.6-0.9-2.1
				c-0.6-0.5-1.3-0.9-2.1-0.9C774.9,646.4,774.3,646.7,773.6,647.2L773.6,647.2z"/>
			<g>
				<path class="st10" d="M812.8,695.3c3.8,0,3.8-5.9,0-5.9C809,689.4,809,695.3,812.8,695.3L812.8,695.3z"/>
			</g>
			<path class="st10" d="M818.3,680C818.5,680.2,818.5,680.2,818.3,680c0.1,0.1,0.2,0.2,0.2,0.3c0.2,0.2,0.4,0.5,0.5,0.7
				c0.4,0.5,0.7,1,1,1.5c0.6,1,1.2,2,1.8,3.1c0.3,0.5,0.5,1,0.8,1.6c0.1,0.3,0.3,0.6,0.4,0.8c0.1,0.1,0.1,0.3,0.2,0.4
				c-0.1-0.3-0.2-0.4,0-0.1c0.4,1.2,0.9,2.3,1.2,3.5c0.4,1.5,2.1,2.5,3.6,2.1c1.5-0.5,2.5-2,2.1-3.6c-1.6-5.3-4.2-10.2-7.7-14.5
				c-1-1.2-3.2-1.1-4.2,0C817.1,677.1,817.3,678.7,818.3,680L818.3,680z"/>
			<path class="st10" d="M692.7,541.9c2.9,2.1,5.8,4.3,8.6,6.4c0.6,0.4,1.6,0.5,2.3,0.3s1.4-0.7,1.8-1.3c0.4-0.7,0.5-1.5,0.3-2.3
				s-0.7-1.3-1.3-1.8c-2.9-2.1-5.8-4.3-8.6-6.4c-0.6-0.4-1.6-0.5-2.3-0.3s-1.4,0.7-1.8,1.3c-0.4,0.7-0.5,1.5-0.3,2.3
				C691.6,540.9,692.1,541.4,692.7,541.9L692.7,541.9z"/>
			<path class="st10" d="M700.6,533.8c2.2,2.7,4.4,5.4,6.7,8c0.5,0.5,1.4,0.9,2.1,0.9c0.7,0,1.6-0.3,2.1-0.9
				c0.5-0.6,0.9-1.3,0.9-2.1s-0.3-1.4-0.9-2.1c-2.2-2.7-4.4-5.4-6.7-8c-0.5-0.5-1.4-0.9-2.1-0.9c-0.7,0-1.6,0.3-2.1,0.9
				c-0.5,0.6-0.9,1.3-0.9,2.1C699.7,532.5,700,533.2,700.6,533.8L700.6,533.8z"/>
		</g>
	</g>
	<path class="st25" d="M1569.4,1579.7c-16.2-35.8-64.6-44.6-99.8-33.7c-18.5-21.6-43.1-31-72.5-32.7c-63.3-3.6-94.8,77-56.3,122.6
		c0.4,0.5,0.9,0.9,1.3,1.3c-0.3,1.1-0.3,2.1-0.2,3.2c-1.3,1.6-2.6,3.2-3.8,4.8c-9.6,5.2-20.1,9.1-16.2,23.4
		c4.3,15.7,22.5,15.1,34.4,8.7c4.1-2.2,7.9-5.1,11.6-8.2c23.3,23.6,69.1,35.7,109.7,33.3c-1.5,8.6-0.7,17.1,4.9,22.8
		c8.3,8.5,20.3,7,29.1,0.9c12.3-6.4,19-22.9,17.6-37.4c3.3-1.9,6.4-4,9.2-6.3c3.8-3.1,5.9-8.1,5.6-13
		C1569.9,1647.5,1584.5,1613.1,1569.4,1579.7z M1521.5,1619.5c-1.9,6.6-5.9,11.4-11.1,14.9c-1.2-14-5.8-31.1-10.9-45
		C1520.4,1585.9,1525.9,1604.2,1521.5,1619.5z M1371.3,1603.6c-4.3-8.4-1.9-29.1,2.7-35c11.1-14.2,37.4-12.4,50.3-2.5
		c0.3,0.2,0.5,0.5,0.8,0.7C1409,1576.3,1385.5,1591.7,1371.3,1603.6z M1399.8,1636.3c1.5-1.4,3-2.9,4.6-4.2
		c14-11.7,30.7-21.1,44.9-32.8c1.4,2.8,2.7,5.6,3.9,8.2c5.6,12.8,9.3,34.3,15.6,45.5C1444.6,1657.9,1417.2,1650.3,1399.8,1636.3z"/>
	<path class="st26" d="M1429.2,1592.9c-16.3,12.9-31.1,28.1-46.4,42.1c-7.2,6.7-14.5,13.2-21.8,19.9c-10.9,10-18.3,14.2-30.6,4
		c-4.3-3.6-8.6,2.7-6.1,6.6c11.5,18.1,25,20.7,41.4,6.7c25-21.2,51.1-43.2,73.8-66.8C1446.6,1598.1,1437.6,1586.3,1429.2,1592.9z"/>
	<path class="st26" d="M1533.5,1584.1c-9.4-14.4-27-17.1-41.9-10c-6.2,2.9-2,11.7,4.3,9.6c9.2-3.1,21.9,0.9,28.4,8
		c8.4,9.2,9.4,21.8,2.2,31.8c-0.8,1.2,0.9,2.3,1.8,1.3C1538.1,1614,1541.7,1596.6,1533.5,1584.1z"/>
	<path class="st26" d="M1488,1649.5c-2.8-42.4-30.2-101.5-76.6-109.7c-36.2-6.4-73.6,25.3-54.1,62.2c2.6,4.9,11.6,3.1,9.9-3
		c-5-18.9,5-36,23.2-41.3c11.1-3.2,22.4-1,32.2,4.4c0.3,1.1,0.7,2.1,1.7,3c13.3,12.1,22.2,26.8,33,40.7c6,15.5,9.5,32.1,15.5,48.1
		C1476.2,1663.1,1488.6,1658,1488,1649.5z"/>
	<path class="st26" d="M1496.4,1705.7c-1-3.6-4-6.5-8.1-5.8c-3.6,0.6-6.6,4.3-5.8,8c0.7,3.1,1.1,6.1,1.1,9.2c0,3.8,0.3,7.4,2.8,10.4
		c1.9,2.3,5.4,2.6,7.8,0.8C1500.6,1723.1,1498.3,1712.6,1496.4,1705.7z"/>
	<path class="st26" d="M1561.1,1648c-22,20.3-51.8,33.6-81.4,37.8c-38.3,5.5-65.4-7.4-100-21c-5.5-2.2-9.8,5.9-4.8,9.2
		c56.3,37.7,149,38.2,188.8-23.6C1564.8,1648.8,1562.7,1646.6,1561.1,1648z"/>
	<path class="st10" d="M1364.9,1605.2c-12.7,11-24.6,22.8-36.1,35c-4.6,4.9-9.5,9.7-12,16c-1.8,4.6-2,9.8-0.7,14.6
		c2.6,9.5,10.7,16.6,19.9,19.6c10.2,3.3,21.2,0.5,28.7-7c6.1-6.2,11.8-12.8,18-18.9c6.6-6.6,13.5-12.9,20.6-19
		c5.7-4.9-2.6-13.2-8.3-8.3c-10.8,9.3-21.1,19.1-30.8,29.5c-6.2,6.7-11.8,14.6-21.7,13.3c-5.9-0.8-12.3-5.3-14.5-10.7
		c-1.3-3.2-1.4-6-0.1-9.2c2-4.9,6.7-8.8,10.2-12.5c11.2-11.9,22.8-23.3,35.1-34C1378.9,1608.5,1370.6,1600.2,1364.9,1605.2
		L1364.9,1605.2z"/>
	<path class="st10" d="M1447.4,1599.4c-18.4,11.4-36,23.7-52.5,37.7c-2.9,2.5-1.9,7.5,1.2,9.2c19.3,10.8,41.4,15.8,63.4,16.5
		c19.6,0.6,41.1-2.4,56.2-15.9c12-10.7,18.4-28.5,15.4-44.4c-1.5-8.2-6.2-15.6-13.3-20c-8.4-5.3-18.4-5.1-27.8-3.2
		c-7.4,1.5-4.3,12.8,3.1,11.3c7.5-1.5,15.9-1.5,21.6,4.4c4.3,4.4,5.6,10.7,5.3,16.7c-0.5,13.8-8.6,25.9-20.7,32.4
		c-14.5,7.7-32.5,7.9-48.5,6.5c-17-1.5-33.9-6-48.9-14.4c0.4,3.1,0.8,6.1,1.2,9.2c15.7-13.4,32.5-25.1,50.1-35.9
		C1459.7,1605.6,1453.8,1595.4,1447.4,1599.4L1447.4,1599.4z"/>
	<path class="st10" d="M1363.5,1677.9c45.7,31.4,111.1,41.1,161.6,15.7c6.8-3.4,0.8-13.5-5.9-10.1c-46.8,23.6-107.6,13.2-149.7-15.7
		C1363.2,1663.4,1357.3,1673.6,1363.5,1677.9L1363.5,1677.9z"/>
	<path class="st10" d="M1476.7,1655.3c-8.9-32.5-23.5-66.7-48.5-90.2c-5.5-5.2-13.8,3.1-8.3,8.3c23.6,22.1,37.2,54.4,45.5,85
		C1467.3,1665.7,1478.7,1662.6,1476.7,1655.3L1476.7,1655.3z"/>
	<path class="st10" d="M1373.2,1613.5c16.8-14.5,34.8-27.7,53.8-39.2c3.1-1.9,4-6.6,1.2-9.2c-12.6-11.5-29-19.5-45.8-12.1
		c-14.2,6.2-23.5,20.3-23.8,35.8c-0.1,8.2,2.1,16.1,5.3,23.5c1.3,2.9,5.5,3.6,8,2.1c3-1.8,3.4-5.1,2.1-8c-5.2-12.1-5.8-26.5,4-36.4
		c5.5-5.5,12.9-9.1,20.8-8.2c8.1,1,15.2,6.2,21,11.5c0.4-3.1,0.8-6.1,1.2-9.2c-19.9,12-38.6,25.8-56.2,41c-2.4,2.1-2.1,6.2,0,8.3
		C1367.2,1615.8,1370.8,1615.5,1373.2,1613.5L1373.2,1613.5z"/>
	<path class="st10" d="M1468.1,1553.5c22-7.8,46.7-11.1,67.5,2c15.3,9.6,25.4,25.6,27.9,43.3c4.7,33.6-14.9,68.7-44.3,84.6
		c-1.6,0.9-3.2,3.1-2.9,5.1c1.8,13.9,7,35.2-11.7,39.4c-4.8,1.1-10.5,0.6-14.3-3c-5.8-5.6-4.3-16.7-5.1-23.9
		c-0.8-7.4-12.5-7.5-11.7,0c1.2,11,0,23.8,8.6,32.2c6.1,6,15.1,7.8,23.3,6.5c8.2-1.4,16-6,20.5-13.1c7.2-11.2,3.8-25.8,2.2-38.1
		c-1,1.7-1.9,3.4-2.9,5.1c27.2-14.7,46-43.1,49.9-73.7c4.3-33.1-11.8-66.4-43.4-79.6c-21.5-9-45.3-5.7-66.7,1.9
		C1457.9,1544.7,1460.9,1556.1,1468.1,1553.5L1468.1,1553.5z"/>
	<path class="st10" d="M1518.6,1639.9c-15.3-56.8-48.7-123.8-114-132.1c-21.3-2.7-42.5,2.4-59,16.4c-15.3,13-24.5,32.5-27.6,52.1
		c-3.6,23.4,0.5,47.6,12.6,68c3.8,6.5,14,0.6,10.1-5.9c-17.9-30.2-17.2-73.6,7.3-100.2c12.5-13.6,30-20.1,48.4-19.4
		c26.3,1,49.5,14.8,66.7,34.1c22.5,25.1,35.5,57.9,44.1,90.1C1509.2,1650.3,1520.6,1647.2,1518.6,1639.9L1518.6,1639.9z"/>
	<path class="st26" d="M1425.9,1534.2c-3.7-0.5-4.5,5.3-0.7,5.8C1428.9,1540.5,1429.6,1534.7,1425.9,1534.2z"/>
	<path class="st26" d="M1392.8,1533.2c-3.7-0.5-4.5,5.3-0.7,5.8C1395.9,1539.5,1396.6,1533.6,1392.8,1533.2z"/>
	<path class="st26" d="M1436.4,1557.4c-3.7-0.5-4.5,5.3-0.7,5.8C1439.4,1563.7,1440.2,1557.8,1436.4,1557.4z"/>
	<path class="st27" d="M1469.5,1566.7c-3.7-0.5-4.5,5.3-0.7,5.8C1472.5,1573,1473.2,1567.2,1469.5,1566.7z"/>
	<path class="st26" d="M1413.6,1598c-3.7-0.5-4.5,5.3-0.7,5.8C1416.7,1604.3,1417.4,1598.5,1413.6,1598z"/>
	<path class="st26" d="M1382.2,1625.1c-3.7-0.5-4.5,5.3-0.7,5.8C1385.2,1631.4,1386,1625.6,1382.2,1625.1z"/>
	<path class="st27" d="M1499,1554.9c-3.7-0.5-4.5,5.3-0.7,5.8C1502,1561.2,1502.7,1555.4,1499,1554.9z"/>
	<path class="st27" d="M1529.2,1570.2c-3.7-0.5-4.5,5.3-0.7,5.8C1532.2,1576.5,1532.9,1570.6,1529.2,1570.2z"/>
	<path class="st27" d="M1523.3,1550.8c-3.7-0.5-4.5,5.3-0.7,5.8C1526.3,1557.1,1527.1,1551.2,1523.3,1550.8z"/>
	<path class="st27" d="M1548.5,1605.8c-3.7-0.5-4.5,5.3-0.7,5.8C1551.5,1612.1,1552.2,1606.3,1548.5,1605.8z"/>
	<path class="st27" d="M1538,1639.7c-3.7-0.5-4.5,5.3-0.7,5.8C1541,1646,1541.7,1640.2,1538,1639.7z"/>
	<path class="st27" d="M1479.9,1599.2c-3.7-0.5-4.5,5.3-0.7,5.8C1482.9,1605.5,1483.6,1599.6,1479.9,1599.2z"/>
	<path class="st27" d="M1459.3,1589.3c-3.7-0.5-4.5,5.3-0.7,5.8C1462.3,1595.6,1463.1,1589.8,1459.3,1589.3z"/>
	<path class="st26" d="M1346.1,1558.3c-3.7-0.5-4.5,5.3-0.7,5.8C1349.1,1564.6,1349.9,1558.8,1346.1,1558.3z"/>
	<path class="st26" d="M1506.2,1710.3c-3.7-0.5-4.5,5.3-0.7,5.8C1509.2,1716.6,1509.9,1710.8,1506.2,1710.3z"/>
	<path class="st26" d="M1474.6,1673.1c-3.7-0.5-4.5,5.3-0.7,5.8C1477.6,1679.5,1478.4,1673.6,1474.6,1673.1z"/>
	<path class="st26" d="M1399.8,1658.5c-3.7-0.5-4.5,5.3-0.7,5.8C1402.8,1664.8,1403.5,1658.9,1399.8,1658.5z"/>
	<path class="st26" d="M1355.5,1647.7c-3.7-0.5-4.5,5.3-0.7,5.8C1358.5,1654,1359.3,1648.1,1355.5,1647.7z"/>
	<path class="st27" d="M1490.7,1620.2c-3.7-0.5-4.5,5.3-0.7,5.8C1493.7,1626.5,1494.4,1620.7,1490.7,1620.2z"/>
	<path class="st8" d="M1571.7,1549.5c10.1,9.9,14.9,24.6,12.4,38.5c-0.7,3.7,5,5.3,5.7,1.6c2.9-16-2.3-32.8-14-44.2
		C1573.1,1542.7,1569,1546.8,1571.7,1549.5L1571.7,1549.5z"/>
	<path class="st8" d="M1589.8,1553c0.4,0.4,0.8,0.7,1.2,1.1c0.2,0.2,0.4,0.4,0.6,0.6c0.1,0.1,0.2,0.2,0.2,0.3
		c-0.1-0.1-0.3-0.5-0.1-0.1c0.7,0.9,1.2,1.9,1.7,2.9c0.1,0.1,0.1,0.2,0.2,0.4c0.2,0.4-0.2-0.5-0.1-0.2s0.2,0.5,0.3,0.8
		c0.2,0.5,0.3,1,0.5,1.6c0.1,0.3,0.1,0.5,0.2,0.8c0,0.2,0.1,0.3,0.1,0.5c0.1,0.4,0-0.1,0-0.2c0,0.6,0.1,1.2,0.1,1.7
		c0,1.5,1.3,3,2.9,2.9s3-1.3,2.9-2.9c-0.1-5.4-2.5-10.7-6.5-14.3c-1.2-1-3-1.2-4.2,0C1588.7,1549.9,1588.5,1551.9,1589.8,1553
		L1589.8,1553z"/>
	<path class="st8" d="M1298.3,1607.4c-1.1,12.1,2.2,24.5,9.1,34.6c2.1,3.1,7.2,0.2,5.1-3c-6.4-9.3-9.3-20.4-8.3-31.6
		c0.1-1.6-1.4-2.9-2.9-2.9C1299.5,1604.5,1298.4,1605.9,1298.3,1607.4L1298.3,1607.4z"/>
	<path class="st8" d="M1284.2,1625c1.5,4.3,3.1,8.7,4.6,13c0.5,1.4,2,2.6,3.6,2.1c1.4-0.5,2.6-2.1,2.1-3.6c-1.5-4.3-3.1-8.7-4.6-13
		c-0.5-1.4-2-2.6-3.6-2.1C1284.8,1621.9,1283.6,1623.5,1284.2,1625L1284.2,1625z"/>
	<path class="st8" d="M935.2,1576.7c-8.3,6.2-15,14.7-18.9,24.5c-4-9.8-10.6-18.3-18.9-24.5c8.4-6.2,15-14.7,18.9-24.5
		C920.2,1562,926.8,1570.5,935.2,1576.7z"/>
	<path class="st8" d="M1688.6,261.8c-8.3,6.2-15,14.7-18.9,24.5c-4-9.8-10.6-18.3-18.9-24.5c8.4-6.2,15-14.7,18.9-24.5
		C1673.6,247.1,1680.3,255.6,1688.6,261.8z"/>
	<path class="st8" d="M779.2,274.3c-8.3,6.2-15,14.7-18.9,24.5c-4-9.8-10.6-18.3-18.9-24.5c8.4-6.2,15-14.7,18.9-24.5
		C764.2,259.6,770.9,268.1,779.2,274.3z"/>
	<path class="st8" d="M1737.5,232.7c-4.6,3.4-8.3,8.1-10.5,13.6c-2.2-5.5-5.9-10.2-10.5-13.6c4.7-3.5,8.3-8.2,10.5-13.6
		C1729.1,224.6,1732.8,229.3,1737.5,232.7z"/>
	<path class="st8" d="M762.1,128.1c-4.6,3.4-8.3,8.1-10.5,13.6c-2.2-5.5-5.9-10.2-10.5-13.6c4.7-3.5,8.3-8.2,10.5-13.6
		C753.8,119.9,757.5,124.6,762.1,128.1z"/>
	<path class="st8" d="M660.5,204.6c-4.6,3.4-8.3,8.1-10.5,13.6c-2.2-5.5-5.9-10.2-10.5-13.6c4.7-3.5,8.3-8.2,10.5-13.6
		C652.2,196.5,655.9,201.2,660.5,204.6z"/>
	<path class="st8" d="M1697,96.4c-4.6,3.4-8.3,8.1-10.5,13.6c-2.2-5.5-5.9-10.2-10.5-13.6c4.7-3.5,8.3-8.2,10.5-13.6
		C1688.7,88.2,1692.4,92.9,1697,96.4z"/>
</g>
</svg>
