<?xml version="1.0" encoding="utf-8"?>
<!-- Generator: Adobe Illustrator 22.0.0, SVG Export Plug-In . SVG Version: 6.00 Build 0)  -->
<svg version="1.1" xmlns="http://www.w3.org/2000/svg" xmlns:xlink="http://www.w3.org/1999/xlink" x="0px" y="0px"
	 viewBox="0 0 560 560" style="enable-background:new 0 0 560 560;" xml:space="preserve">
<style type="text/css">
	.st0{fill:#56AEA3;stroke:#56AEA3;stroke-miterlimit:10;}
	.st1{opacity:0.44;fill:#42776E;stroke:#42776E;stroke-miterlimit:10;}
	.st2{display:none;fill:#DDDDDD;}
	.st3{fill:#FEC9A3;stroke:#FEC9A3;stroke-miterlimit:10;}
	.st4{fill:#F4AD7D;stroke:#F4AD7D;stroke-miterlimit:10;}
	.st5{fill:#BC87BF;stroke:#BC87BF;stroke-miterlimit:10;}
	.st6{fill:#FFFFFF;stroke:#FFFFFF;stroke-miterlimit:10;}
	.st7{fill:#F7B5D0;stroke:#F7B5D0;stroke-miterlimit:10;}
	.st8{fill:#F870A4;stroke:#F870A4;stroke-miterlimit:10;}
	.st9{fill:#F25595;stroke:#F25595;stroke-miterlimit:10;}
	.st10{fill:#DDDDDD;stroke:#DDDDDD;stroke-miterlimit:10;}
</style>
<g id="Capa_11">
	<circle class="st0" cx="280" cy="280" r="276.5"/>
</g>
<g id="Capa_6">
	<path class="st0" d="M556.5,280c0-1.9,0-3.7-0.1-5.6l-366.1-221c16.4,30.7,75.3,140.6,88.4,161.4c0.4,0.6,0.8,1.3,1.2,1.9
		c0,0,0,0,0,0c0.4,0.7,0.9,1.3,1.3,1.9c0,0,0,0.1,0.1,0.1c0.4,0.6,0.9,1.1,1.3,1.7c0,0.1,0.1,0.1,0.1,0.2c0.4,0.5,0.8,1,1.3,1.5
		c0.1,0.1,0.1,0.1,0.2,0.2c0.4,0.5,0.8,0.9,1.2,1.3c0.1,0.1,0.1,0.1,0.2,0.2c0.4,0.4,0.8,0.8,1.2,1.2c0.1,0.1,0.1,0.1,0.2,0.2
		c0.4,0.4,0.8,0.7,1.2,1.1c0.1,0.1,0.2,0.1,0.2,0.2c0.4,0.3,0.8,0.6,1.2,0.9c0.1,0.1,0.2,0.1,0.2,0.2c0.4,0.3,0.8,0.6,1.1,0.8
		c0.1,0.1,0.2,0.1,0.3,0.2c0.4,0.3,0.8,0.5,1.1,0.7c0.1,0.1,0.2,0.1,0.3,0.2c0.4,0.2,0.7,0.4,1.1,0.6c0.1,0,0.2,0.1,0.3,0.1
		c0.4,0.2,0.7,0.4,1.1,0.5c0.1,0,0.2,0.1,0.3,0.1c0.4,0.2,0.7,0.3,1.1,0.4c0.1,0,0.2,0.1,0.3,0.1c0.4,0.1,0.7,0.2,1.1,0.3
		c0.1,0,0.2,0.1,0.3,0.1c0.3,0.1,0.7,0.2,1,0.3c0.1,0,0.2,0,0.3,0.1c0.3,0.1,0.7,0.1,1,0.2c0.1,0,0.2,0,0.3,0c0.3,0.1,0.7,0.1,1,0.1
		c0.1,0,0.2,0,0.3,0c0.3,0,0.6,0.1,1,0.1c0.1,0,0.2,0,0.3,0c0.3,0,0.6,0,0.9,0c0.1,0,0.2,0,0.3,0c0.3,0,0.6,0,0.9,0
		c0.1,0,0.2,0,0.3,0c0.3,0,0.6,0,0.9-0.1c0.1,0,0.2,0,0.3,0c0.3,0,0.6-0.1,0.9-0.1c0.1,0,0.2,0,0.3-0.1c0.3,0,0.6-0.1,0.8-0.2
		c0.1,0,0.2,0,0.3-0.1c0.3-0.1,0.5-0.1,0.8-0.2c0.1,0,0.2-0.1,0.3-0.1c0.3-0.1,0.5-0.1,0.8-0.2c0.1,0,0.2-0.1,0.4-0.1
		c0.2-0.1,0.5-0.2,0.7-0.2c0.1,0,0.2-0.1,0.4-0.1c0.2-0.1,0.5-0.2,0.7-0.2c0.1,0,0.2-0.1,0.4-0.1c0.2-0.1,0.4-0.2,0.7-0.3
		c0.1-0.1,0.2-0.1,0.4-0.2c0.2-0.1,0.4-0.2,0.6-0.3c0.1-0.1,0.3-0.1,0.4-0.2c0.2-0.1,0.4-0.2,0.5-0.3c0.2-0.1,0.3-0.1,0.5-0.2
		c0.1-0.1,0.3-0.1,0.4-0.2c0.2-0.1,0.4-0.2,0.6-0.3c0.1-0.1,0.2-0.1,0.3-0.2c0.3-0.2,0.6-0.3,0.8-0.4c13.5-7.4,78,27.5,78,27.5
		c35.5,27.5,3.8,27.5,3.8,27.5s-93,0-112.7,0.1c-0.2,0-0.4,0-0.7,0c-0.1,0-0.2,0-0.2,0c-0.1,0-0.2,0-0.3,0h163.5v40.4H302.3
		c11.4,1.3,26.2,6.3,26.2,23.5c0,0.6,0,1.1-0.1,1.6c0,0.2,0,0.3-0.1,0.5c0,0.3-0.1,0.7-0.2,1c0,0.2-0.1,0.4-0.1,0.6
		c-0.1,0.3-0.2,0.6-0.3,0.9c-0.1,0.2-0.1,0.4-0.2,0.5c-0.1,0.3-0.2,0.5-0.3,0.8c-0.1,0.2-0.2,0.3-0.3,0.5c-0.1,0.2-0.3,0.5-0.4,0.7
		c-0.1,0.1-0.2,0.3-0.3,0.4c-0.2,0.2-0.4,0.5-0.5,0.7c-0.1,0.1-0.2,0.2-0.3,0.4c-0.2,0.3-0.5,0.5-0.8,0.7c-0.1,0.1-0.1,0.1-0.2,0.2
		c-0.4,0.3-0.7,0.6-1.1,0.8c-0.1,0.1-0.2,0.1-0.3,0.2c-0.3,0.2-0.6,0.4-0.9,0.6c-0.2,0.1-0.3,0.2-0.5,0.2c-0.3,0.1-0.6,0.3-0.9,0.4
		c-0.2,0.1-0.4,0.2-0.6,0.2c-0.3,0.1-0.6,0.2-0.9,0.3c-0.2,0.1-0.4,0.1-0.6,0.2c-0.3,0.1-0.6,0.2-1,0.3c-0.2,0.1-0.4,0.1-0.6,0.2
		c-0.4,0.1-0.7,0.2-1.1,0.3c-0.2,0-0.4,0.1-0.6,0.1c-0.4,0.1-0.9,0.2-1.3,0.2c-0.2,0-0.3,0.1-0.5,0.1c-1.2,0.2-2.5,0.4-3.8,0.5
		c-0.2,0-0.4,0-0.6,0c-0.5,0-1,0.1-1.5,0.1c-0.2,0-0.5,0-0.7,0c-0.5,0-0.9,0.1-1.4,0.1c-0.2,0-0.5,0-0.7,0c-0.5,0-1,0-1.5,0
		c-0.2,0-0.5,0-0.7,0c-0.5,0-1,0-1.6,0c-0.2,0-0.4,0-0.6,0c-0.6,0-1.2,0-1.9,0c-0.1,0-0.3,0-0.4,0c-5.8,0-12-0.3-18.3-0.5
		c-3.3-0.1-6.7-0.2-10-0.2c-26,0-29.6,24.5-0.2,24.5c0.3,0,4.3,0,10.2,0.1c0.7,0,1.4,0,2.2,0c1.5,0,3,0,4.6,0.1c0.9,0,1.8,0,2.7,0
		c1.8,0,3.7,0,5.7,0.1c0.3,0,0.6,0,0.9,0c0.2,0,0.5,0,0.7,0c2.8,0,5.6,0.1,8.5,0.1c0.9,0,1.7,0,2.6,0c1.1,0,2.2,0,3.3,0
		c1.1,0,2.1,0,3.1,0c1.6,0,3.1,0,4.6,0.1c1,0,1.9,0,2.9,0c0.5,0,0.9,0,1.4,0c0.4,0,0.8,0,1.2,0c2.5,0,4.9,0.1,7,0.1
		c0.5,0,0.9,0,1.4,0c1.5,0,2.8,0,4,0c0.8,0,1.4,0,2,0c1,0,1.9,0,2.4,0c0.2,0,0.4,0,0.6,0c0.2,0,0.3,0,0.3,0c2.4,0,4.8-0.8,6.7-2.3
		l66.4-51.1c16.2-16.2,46.6,10.9,31.3,26.2c-6.2,6.2-85.1,76.9-116.9,76.1c-0.8,0-1.7,0-2.6-0.1c-0.3,0-0.5,0-0.8,0
		c-0.7,0-1.4,0-2.1,0c-0.3,0-0.5,0-0.8,0c-1,0-2,0-3.1,0c-0.1,0-0.2,0-0.3,0c-1,0-2,0-3,0c-0.4,0-0.8,0-1.2,0c-0.8,0-1.6,0-2.5,0
		c-0.4,0-0.8,0-1.2,0c-1.2,0-2.4,0-3.6,0c-0.3,0-0.7,0-1,0c-0.9,0-1.9,0-2.8,0c-0.6,0-1.1,0-1.7,0c-0.8,0-1.6,0-2.4,0
		c-0.6,0-1.2,0-1.8,0c-1.2,0-2.5,0-3.8,0c-0.6,0-1.2,0-1.8,0c-0.9,0-1.7,0-2.6,0c-0.7,0-1.4,0-2.1,0c-0.7,0-1.4,0-2.1,0
		c-2.1,0-4.2,0-6.3,0c-34.5,0-74.8,0.2-93.8,0.3c-6.1,0-11.1-4.9-11.1-11v24h-70.8l179.1,108.1C434.5,554.7,556.5,431.6,556.5,280z"
		/>
	<path class="st1" d="M556.5,280c0-1.9,0-3.7-0.1-5.6l-366.1-221c16.4,30.7,75.3,140.6,88.4,161.4c0.4,0.6,0.8,1.3,1.2,1.9
		c0,0,0,0,0,0c0.4,0.7,0.9,1.3,1.3,1.9c0,0,0,0.1,0.1,0.1c0.4,0.6,0.9,1.1,1.3,1.7c0,0.1,0.1,0.1,0.1,0.2c0.4,0.5,0.8,1,1.3,1.5
		c0.1,0.1,0.1,0.1,0.2,0.2c0.4,0.5,0.8,0.9,1.2,1.3c0.1,0.1,0.1,0.1,0.2,0.2c0.4,0.4,0.8,0.8,1.2,1.2c0.1,0.1,0.1,0.1,0.2,0.2
		c0.4,0.4,0.8,0.7,1.2,1.1c0.1,0.1,0.2,0.1,0.2,0.2c0.4,0.3,0.8,0.6,1.2,0.9c0.1,0.1,0.2,0.1,0.2,0.2c0.4,0.3,0.8,0.6,1.1,0.8
		c0.1,0.1,0.2,0.1,0.3,0.2c0.4,0.3,0.8,0.5,1.1,0.7c0.1,0.1,0.2,0.1,0.3,0.2c0.4,0.2,0.7,0.4,1.1,0.6c0.1,0,0.2,0.1,0.3,0.1
		c0.4,0.2,0.7,0.4,1.1,0.5c0.1,0,0.2,0.1,0.3,0.1c0.4,0.2,0.7,0.3,1.1,0.4c0.1,0,0.2,0.1,0.3,0.1c0.4,0.1,0.7,0.2,1.1,0.3
		c0.1,0,0.2,0.1,0.3,0.1c0.3,0.1,0.7,0.2,1,0.3c0.1,0,0.2,0,0.3,0.1c0.3,0.1,0.7,0.1,1,0.2c0.1,0,0.2,0,0.3,0c0.3,0.1,0.7,0.1,1,0.1
		c0.1,0,0.2,0,0.3,0c0.3,0,0.6,0.1,1,0.1c0.1,0,0.2,0,0.3,0c0.3,0,0.6,0,0.9,0c0.1,0,0.2,0,0.3,0c0.3,0,0.6,0,0.9,0
		c0.1,0,0.2,0,0.3,0c0.3,0,0.6,0,0.9-0.1c0.1,0,0.2,0,0.3,0c0.3,0,0.6-0.1,0.9-0.1c0.1,0,0.2,0,0.3-0.1c0.3,0,0.6-0.1,0.8-0.2
		c0.1,0,0.2,0,0.3-0.1c0.3-0.1,0.5-0.1,0.8-0.2c0.1,0,0.2-0.1,0.3-0.1c0.3-0.1,0.5-0.1,0.8-0.2c0.1,0,0.2-0.1,0.4-0.1
		c0.2-0.1,0.5-0.2,0.7-0.2c0.1,0,0.2-0.1,0.4-0.1c0.2-0.1,0.5-0.2,0.7-0.2c0.1,0,0.2-0.1,0.4-0.1c0.2-0.1,0.4-0.2,0.7-0.3
		c0.1-0.1,0.2-0.1,0.4-0.2c0.2-0.1,0.4-0.2,0.6-0.3c0.1-0.1,0.3-0.1,0.4-0.2c0.2-0.1,0.4-0.2,0.5-0.3c0.2-0.1,0.3-0.1,0.5-0.2
		c0.1-0.1,0.3-0.1,0.4-0.2c0.2-0.1,0.4-0.2,0.6-0.3c0.1-0.1,0.2-0.1,0.3-0.2c0.3-0.2,0.6-0.3,0.8-0.4c13.5-7.4,78,27.5,78,27.5
		c35.5,27.5,3.8,27.5,3.8,27.5s-93,0-112.7,0.1c-0.2,0-0.4,0-0.7,0c-0.1,0-0.2,0-0.2,0c-0.1,0-0.2,0-0.3,0h163.5v40.4H302.3
		c11.4,1.3,26.2,6.3,26.2,23.5c0,0.6,0,1.1-0.1,1.6c0,0.2,0,0.3-0.1,0.5c0,0.3-0.1,0.7-0.2,1c0,0.2-0.1,0.4-0.1,0.6
		c-0.1,0.3-0.2,0.6-0.3,0.9c-0.1,0.2-0.1,0.4-0.2,0.5c-0.1,0.3-0.2,0.5-0.3,0.8c-0.1,0.2-0.2,0.3-0.3,0.5c-0.1,0.2-0.3,0.5-0.4,0.7
		c-0.1,0.1-0.2,0.3-0.3,0.4c-0.2,0.2-0.4,0.5-0.5,0.7c-0.1,0.1-0.2,0.2-0.3,0.4c-0.2,0.3-0.5,0.5-0.8,0.7c-0.1,0.1-0.1,0.1-0.2,0.2
		c-0.4,0.3-0.7,0.6-1.1,0.8c-0.1,0.1-0.2,0.1-0.3,0.2c-0.3,0.2-0.6,0.4-0.9,0.6c-0.2,0.1-0.3,0.2-0.5,0.2c-0.3,0.1-0.6,0.3-0.9,0.4
		c-0.2,0.1-0.4,0.2-0.6,0.2c-0.3,0.1-0.6,0.2-0.9,0.3c-0.2,0.1-0.4,0.1-0.6,0.2c-0.3,0.1-0.6,0.2-1,0.3c-0.2,0.1-0.4,0.1-0.6,0.2
		c-0.4,0.1-0.7,0.2-1.1,0.3c-0.2,0-0.4,0.1-0.6,0.1c-0.4,0.1-0.9,0.2-1.3,0.2c-0.2,0-0.3,0.1-0.5,0.1c-1.2,0.2-2.5,0.4-3.8,0.5
		c-0.2,0-0.4,0-0.6,0c-0.5,0-1,0.1-1.5,0.1c-0.2,0-0.5,0-0.7,0c-0.5,0-0.9,0.1-1.4,0.1c-0.2,0-0.5,0-0.7,0c-0.5,0-1,0-1.5,0
		c-0.2,0-0.5,0-0.7,0c-0.5,0-1,0-1.6,0c-0.2,0-0.4,0-0.6,0c-0.6,0-1.2,0-1.9,0c-0.1,0-0.3,0-0.4,0c-5.8,0-12-0.3-18.3-0.5
		c-3.3-0.1-6.7-0.2-10-0.2c-26,0-29.6,24.5-0.2,24.5c0.3,0,4.3,0,10.2,0.1c0.7,0,1.4,0,2.2,0c1.5,0,3,0,4.6,0.1c0.9,0,1.8,0,2.7,0
		c1.8,0,3.7,0,5.7,0.1c0.3,0,0.6,0,0.9,0c0.2,0,0.5,0,0.7,0c2.8,0,5.6,0.1,8.5,0.1c0.9,0,1.7,0,2.6,0c1.1,0,2.2,0,3.3,0
		c1.1,0,2.1,0,3.1,0c1.6,0,3.1,0,4.6,0.1c1,0,1.9,0,2.9,0c0.5,0,0.9,0,1.4,0c0.4,0,0.8,0,1.2,0c2.5,0,4.9,0.1,7,0.1
		c0.5,0,0.9,0,1.4,0c1.5,0,2.8,0,4,0c0.8,0,1.4,0,2,0c1,0,1.9,0,2.4,0c0.2,0,0.4,0,0.6,0c0.2,0,0.3,0,0.3,0c2.4,0,4.8-0.8,6.7-2.3
		l66.4-51.1c16.2-16.2,46.6,10.9,31.3,26.2c-6.2,6.2-85.1,76.9-116.9,76.1c-0.8,0-1.7,0-2.6-0.1c-0.3,0-0.5,0-0.8,0
		c-0.7,0-1.4,0-2.1,0c-0.3,0-0.5,0-0.8,0c-1,0-2,0-3.1,0c-0.1,0-0.2,0-0.3,0c-1,0-2,0-3,0c-0.4,0-0.8,0-1.2,0c-0.8,0-1.6,0-2.5,0
		c-0.4,0-0.8,0-1.2,0c-1.2,0-2.4,0-3.6,0c-0.3,0-0.7,0-1,0c-0.9,0-1.9,0-2.8,0c-0.6,0-1.1,0-1.7,0c-0.8,0-1.6,0-2.4,0
		c-0.6,0-1.2,0-1.8,0c-1.2,0-2.5,0-3.8,0c-0.6,0-1.2,0-1.8,0c-0.9,0-1.7,0-2.6,0c-0.7,0-1.4,0-2.1,0c-0.7,0-1.4,0-2.1,0
		c-2.1,0-4.2,0-6.3,0c-34.5,0-74.8,0.2-93.8,0.3c-6.1,0-11.1-4.9-11.1-11v24h-70.8l179.1,108.1C434.5,554.7,556.5,431.6,556.5,280z"
		/>
	<polygon class="st2" points="457.9,479.9 456.1,479.9 457.9,478.7 	"/>
	<path class="st2" d="M378.6,79.8l-8.6,5.2c0.5-0.9,0.9-1.8,1.4-2.5C372.8,79.8,375.9,78.7,378.6,79.8z"/>
	<g id="Capa_7">
		<path class="st3" d="M178.8,350.6c0,0,22.2-26.8,34.1-26.8l76.4-0.2c0,0,39.3-4.4,39.3,23.6c0,19.3-30.7,14-58.5,14
			c-26,0-29.6,24.5-0.2,24.5c1.5,0,72.2,0.9,72.2,0.9c2.4,0,4.8-0.8,6.7-2.3l66.4-51.1c16.2-16.2,46.6,10.9,31.3,26.2
			c-6.2,6.2-85.1,76.9-116.9,76.1c-28.9-0.8-113-0.3-143.3-0.1c-6.1,0-11.1-4.9-11.1-11v-65.5C175.1,355.7,176.4,352.7,178.8,350.6z
			"/>
		<path class="st4" d="M446.4,359.3c15.3-15.3-15.1-42.4-31.3-26.2l-66.4,51.1c-1.9,1.5-4.3,2.3-6.7,2.3c0,0-42.1-0.5-62.1-0.8V435
			c20.4,0,38.8,0.1,49.5,0.4C361.3,436.3,440.2,365.5,446.4,359.3z"/>
		<path class="st4" d="M328.5,347.2c0-28-39.3-23.6-39.3-23.6l-9.2,0v37.7C304.7,362.1,328.5,364.2,328.5,347.2z"/>
		<polygon class="st5" points="102.4,347.2 175.1,347.2 175.1,352.7 175.1,448.4 102.4,448.4 		"/>
		<circle class="st6" cx="138.7" cy="415.3" r="11.5"/>
		<path class="st7" d="M210.5,181.2c1.2,1.1,1.3,3,0.4,4.3c-5.9,8.3-20.4,18.4-18.7,54.6c0,0,5.2,31.2,1.4,37.9
			c-3.7,6.4-21.8,5.3-25.3,0.3c-2.2-3.1-0.1-10.4,0.6-16.4c4.8-43.5-9.9-109.8-14.9-117.7C151.3,140.1,181.9,153.3,210.5,181.2z"/>
		<path class="st8" d="M278.8,214.9c15.3,24.3,31.4,18.3,40.3,13.4c13.5-7.4,78,27.5,78,27.5c35.5,27.5,3.8,27.5,3.8,27.5
			s-93,0-112.7,0.1c-6.5,0-47.3,8.2-49.7-44.8c-2.2-48.3-62.9-79.7-80-87.6c-3-1.4-5.2-3.9-6.4-7c-19.9-55,14.5-85.5,28.4-95.1
			c2.8-2,6.8-1,8.4,2C203.2,77.5,265.2,193.4,278.8,214.9z"/>
		<path class="st9" d="M400.9,283.2c0,0,31.6,0-3.8-27.5c0,0-64.5-34.9-78-27.5c-8.6,4.7-24.1,10.5-39-11.6v67
			c3.8-0.1,6.8-0.4,8.2-0.4C307.9,283.3,400.9,283.2,400.9,283.2z"/>
		<rect x="102.4" y="283.3" class="st6" width="348.1" height="40.4"/>
		<rect x="280" y="283.3" class="st10" width="170.6" height="40.4"/>
	</g>
</g>
</svg>
